<svg xmlns="http://www.w3.org/2000/svg" viewBox="0 0 226.733 226.733">
  <path
    d="M179.416 100.695c-35.992-21.374-95.36-23.34-129.719-12.912-5.518 1.675-11.353-1.44-13.024-6.957-1.672-5.521 1.439-11.352 6.96-13.03 39.443-11.971 105.008-9.66 146.443 14.937 4.964 2.946 6.59 9.356 3.65 14.31-2.945 4.963-9.36 6.6-14.31 3.652m-1.179 31.66c-2.525 4.096-7.882 5.382-11.974 2.866C136.257 116.777 90.5 111.433 55 122.209c-4.603 1.39-9.465-1.204-10.864-5.8a8.717 8.717 0 0 1 5.805-10.856c40.554-12.307 90.968-6.347 125.432 14.833 4.092 2.52 5.38 7.88 2.864 11.968m-13.662 30.404a6.954 6.954 0 0 1-9.57 2.316c-26.22-16.025-59.222-19.644-98.09-10.767a6.955 6.955 0 0 1-8.331-5.232 6.95 6.95 0 0 1 5.233-8.333c42.534-9.723 79.018-5.539 108.448 12.445a6.96 6.96 0 0 1 2.31 9.571M113.367 1.708C51.7 1.709 1.709 51.7 1.709 113.366c0 61.672 49.992 111.66 111.658 111.66 61.668 0 111.658-49.988 111.658-111.66 0-61.666-49.99-111.656-111.658-111.656" />
</svg>
