<svg xmlns="http://www.w3.org/2000/svg" id="svg554" x="0" y="0" version="1.1" viewBox="0 0 1920 1080" xml:space="preserve">
   <g id="Layer_1">
     <g id="g81">
       <path id="path79" fill="#b4b4b4" fill-opacity=".2" d="M454.4 210.5c-2.1 2.7-5.4 2.9-8 .8-2-1.6-3.1-4.1-4.6-6.1-.2-.3-.7-.3-.7.1-.1.6-.2 1.2-.1 1.9v-.1c-.2-.6-1.3-.4-1 .3 1 2.8 2 7 .9 9.9-1.3 3-4.6 2.8-7.1 1.7-.6-.3-1.2.3-.9.9 1.6 3 6.2 2.8 8.2.3 1.8-2.2 1.8-5.5 1.3-8.5 1.1 1.8 2.7 3.3 4.8 4.1 3.7 1.4 8.4-.6 8.8-4.8-.1-.9-1.2-1-1.6-.5zm0-9.1c5-2.1 9.9-4.3 14.7-6.9.3-.1 0-.5-.2-.4-6.9 3.1-13.8 6.1-20.9 8.6-.7.2-.4 1.4.3 1.1 1.8-.7 3.5-1.4 5.3-2.1zm-6.2 2.4c0 .3.1.5.5.6 5.3.5 16.4-.3 21.6-1.4.2-.1.2-.5-.1-.4-5.2.5-15.9 1.5-21.1.9zm19.2-14c-7.6 3.7-14.9 7.9-22.2 12.3-.6.3-.1 1.2.5.9 7.5-3.9 14.9-8 22-12.6.4-.3.1-.8-.3-.6zm-31.1 17.3c-2.2 3.6-10.6 11.1-12.8 14.7-.3.5.5.8.8.4 2.3-3.6 10.9-11 13.2-14.5.5-.7-.7-1.3-1.2-.6zm0-.5c-5.9 3.1-12 6-17.6 9.6-.4.2 0 .8.4.7 6.1-2.6 11.9-5.9 17.8-9.1.7-.4.2-1.6-.6-1.2zm.3-2.4c-7.7.6-15.7 1.6-22.9 4.5-.6.2-.4 1.3.3 1.2 7.6-1.6 15-3.6 22.8-4.3.7-.1.6-1.4-.2-1.4zm17.4-29c-4.4-.9-9.3 1-13.1 3.2-.6.3-.2 1.3.4 1.1 2-.7 4.1-1.3 6.2-1.7 2.1-.5 4.3-.4 6.4-1 .8-.2.9-1.4.1-1.6zm1.8 9.9c-.1-1.4-.9-2.4-2-3.1l-.1-.1c-.9-.8-2-1.3-3.2-1.3h-.2c-1.2 0-2.4.5-3.2 1.3-.7.7-1.3 1.9-1.3 3-.1.6-.1 1.2 0 1.8.2.6.5 1.1.8 1.5.5 1.3 1.6 2.3 3.2 2.3.6 0 1.1-.1 1.6-.3.8-.1 1.7-.5 2.3-1.1 1.3-.8 2.3-2.3 2.1-4zm-27.5-3.5c-4.9.3-9.3 2.5-13.3 5.3-.8.5-.1 1.7.7 1.3 4-2.4 8.4-4 12.7-5.9.4-.2.2-.7-.1-.7zm1.4 12.4c-.1-1.3-.5-2.7-1.5-3.6-1-.9-2.2-1.5-3.6-1.5-1.2 0-2.4.5-3.3 1.3-1.2.5-1.8 1.5-2 2.7-.3.6-.5 1.2-.5 1.9v.1c-.2.3-.3.7-.2 1 .2.5.4.9.8 1.2.8 1.6 2.5 2.6 4.4 2.2.9.1 1.8-.1 2.6-.5.7-.3 1.4-.7 1.9-1.2.8-.9 1.5-2.3 1.4-3.6zm54.8-15.1c-1.7-3.8-3.5-7.9-5.9-11.4-1.4-2-3.2-3.6-5.6-3.7-1.6-10.2-5-20.3-8.5-29.8-.4-1-1.8-1.7-2.7-.7-3.4 4.1-6.3 8.6-8.5 13.4-1 2.2-1.9 4.5-2.7 6.8-.6 1.7-1.1 3.8-2.3 5.2-13.4-4.9-29.4 3.5-40.5 10.7-.2.1-.3.2-.4.4-3.4-3.9-8.8-7-13.2-9.6-5-2.9-10.3-5.2-15.8-7.1-1.5-.5-2.5 1.3-1.9 2.5l6.3 12.3c.5 1 5.8 10.7 4.3 10.9-.2 0-.4.2-.3.4.4.9 1.6 1.4 2.6.9 1.6-.9 1.1-3.2.5-4.5-2.4-6-5.5-11.9-8.5-17.7 3.9 1.7 7.7 3.6 11.3 5.8 4.6 2.8 8.5 6.8 13.1 9.6 1.2.7 2.2 0 2.5-1 .3.1.7 0 1.1-.2 6.5-3.2 12.8-6.8 19.7-9 5.3-1.7 10.8-2.3 16.2-2.2 0 .5.3 1.1 1 1 1.1-.1 1.9-.4 2.7-.9h.6c.7.1 1.1-.8.9-1.4 1.4-1.7 2.2-4.1 2.9-6.2 2.1-5.8 5.1-11.2 8.8-16 1.7 5.1 3.2 10.2 4.5 15.4 1.5 6.2 2.3 12.4 3.7 18.6.4 1.8 3.4 1.5 3.3-.4-.1-1.4-.2-2.8-.4-4.2 1.7 1.4 2.8 3.8 3.7 5.6 1.6 3 3.1 5.9 4.4 9 2.4 5.7 3.7 11.7 3 17.9-1.4 11.7-8.8 22.1-18.6 28.5-10.3 6.7-22.7 9.5-34.9 9.6-12.6.1-23.6-4.8-30.9-15.4-3.7-5.4-5.9-11.6-7.2-18.1-1.5-7.6-1-15-1.1-22.7 0-.5-.7-.6-.8-.1-3.6 13.1-1.8 29 5.2 40.7 6.8 11.5 17.9 18.2 31.2 19 25.9 1.6 56.9-12 60.7-40.6 1.2-7.1-.5-14.4-3.5-21.3z"/>
     </g>
     <g id="g95">
       <path id="path93" fill="#b4b4b4" fill-opacity=".2" d="M1815.1 139.1c-2-3.3-4.4-6.2-7.2-8.8 1.5-.9 3-1.6 4.5-2.4 2.2-1.1.7-4.6-1.5-3.5-1.2.5-2.4 1-3.5 1.5.3-.3.6-.6.9-.8 1.5-1.2.5-4-1.6-3.6-1.4.3-3.5.4-4.8 1l.9-1.5c1.4-2.1 3.1-4.1 2.8-6.7-.1-.7-.8-.9-1.3-.7-2.3.8-3.4 3.1-4.6 5.1-1 1.5-3.2 3.8-2.7 5.8.4 1.9 2.1 2.4 3.9 2.3-.5.6-.9 1.2-1.3 1.8-.8 1.2.1 3.6 1.8 3.1.7-.2 1.3-.4 2-.6.1.2.2.3.4.4 4.6 3.8 10.6 9.7 12 15.7.1.4.7.8 1.1.4 2.4-2.3-.5-6.2-1.8-8.5zm-26-2.9c.1.3.1.6.2.9 0 .2.3.1.3 0 0-.3-.1-.6-.1-1-.1-.2-.5-.1-.4.1zm-23.8-40c-8.2-2.7-16.5-4.1-25.2-3.3-.6.1-.5.9 0 1 8.2 1.5 16.5 2.6 24.7 4.1 1.1.2 1.6-1.5.5-1.8zm15.8-8.1c-1.8-3.8-3.5-7.6-5-11.5-1.3-3.4-2.2-7.5-4.9-10.1-.3-.3-.8-.2-.8.2-.6 3.5 1.1 7.3 2.5 10.5 1.7 4.1 3.5 8.1 5.5 12 .9 1.8 3.6.6 2.7-1.1zm21.4-22.5c-2.6 6.7-4.9 13.5-7 20.4-.4 1.2 1.4 2 1.9.8 2.4-6.9 4.5-13.8 6.2-20.8.2-.8-.9-1-1.1-.4zm34.9 87c-3-3.7-6.1-7.5-9.1-11.2-1.4-1.8-4.2.4-2.8 2.2 1.1 1.4 2.3 2.8 3.4 4.3-2.4 2.3-5.1 4.3-8.2 5.6-3.2 1.4-6.9 1.4-10 2.9-1.1-1.6-2.3-2.9-3.7-3.7.9-.2 1.6-.7 2.1-1.4.4-.7.2-1.6-.5-1.9-.6-.3-.9-.2-1.5.2-.2.1-.3.4-.2.6-.7-.6-1.6-.9-2.5-1-.6-.2-1.3-.3-1.9-.6-.9-.3-1.8-.7-2.7-1.2-2.2-1.1-4.3-2.6-6.2-4.2-3.6-3.1-6.5-6.9-9-10.8-5.8-9.1-12.5-24.6.6-30.9 9.7-4.7 23.2-5.9 30.1 3.7 7 9.7 9 22.8 11.1 34.3.2 1.1 1.9 1.2 2.1 0 1.2-11.8-2-24.7-8.2-34.8-5.7-9.4-14.7-12.4-25.3-10.6-10 1.7-20.3 5.7-21.8 17.1-1.4 10.4 5.3 21.4 11.6 29.2 3.2 3.9 7.1 7.7 11.7 9.9 1.8.9 5.6 2.5 8.7 2.6.7 1.3 1.8 2 2.8 3.2 1.3 1.5 2.4 3.2 3.3 5 1.2 2.5 2 5.1 3.5 7.5 3 5 7.6 5.8 12.7 3.3 3.8-1.9 7.6-4 11.3-6 2.1-1.1 4.9-2.2 4.5-5.1-.5-3.1-4-6-5.9-8.2zm.7 9.7c-.4.2-.8.5-1.3.7-1.5 1.1-3.4 1.9-5 2.8-2.6 1.5-5.4 3.5-8.3 4.3-6.2 1.6-8.4-6.4-11.8-12.4 3.4 1.4 8 0 11-1.5 3.1-1.6 5.8-3.9 7.7-6.8.5.7 1.1 1.3 1.6 2 1.8 2.2 5.2 5.2 6.3 7.9 1.3.9 1.2 1.9-.2 3z"/>
     </g>
     <path id="path97" fill="#b4b4b4" fill-opacity=".2" d="M712.1 769.2c-8.3-8.1-17.2-16.7-27.4-22.6 1-3.9-2.4-6.9-5.3-9.2-2.4-1.9-4.9-3.8-7.4-5.5-1.8-1.2-3.5-2.6-5.6-3.1-.2-.4-.5-.8-.9-1.2-.9-1-2.5-.1-2.3 1.1.8 4.9-.8 10.3 1.7 14.9 1.7 3.1 4.5 5.4 7.8 6.2.1.2.3.4.6.4 1.8.2 3.2.3 4.8-.5 1.5-.8 2.8-1.8 3.6-3.2.1-.2.1-.3.1-.5.4.5.8 1 1.2 1.6.2.2.4.3.6.3 1.7 1.6 3.4 3.2 5.1 4.7-.6.3-1.1.7-1.6 1.1-1.2.9-2.5 1.8-3.6 2.9-.2.2-.3.4-.3.6-2.3-2-4.7-3.9-7-5.9-.5-.4-1.2.2-.7.7 8.8 8.5 18 16.7 27.5 24.6 9.7 8.1 19.5 16.4 30.4 22.8.4.2.9-.1.9-.5l.1.1c.6.8 2.1-.2 1.5-1-7-10.5-14.9-20-23.8-28.8zm-21-14.6c1.1 1 2.2 1.9 3.2 2.8-1.9 1.4-3.8 2.7-5.5 4.4-1.3-1.1-2.7-2.2-4-3.4 2.2-.5 4.9-1.9 6.3-3.8zm42.5 43.4c-8.8-7.9-18.5-14.8-27.7-22.2-5.1-4.1-10.1-8.2-15.1-12.4 1.2-.5 2.4-1.2 3.4-2.1.8-.7 1.4-1.5 1.9-2.3 4.6 4 9.2 8.1 13.5 12.4 8.4 8.5 16.4 17.5 24 26.6z"/>
     <path id="path99" fill="#b4b4b4" fill-opacity=".2" d="M89.3 157.4c-5.2-7-4.5-16.7-.7-24.2 4.1-8.2 12.4-11.7 19.4-17 6.5-4.8 11-11.2 11-19.5 0-4.2-1.1-8.3-2.8-12.3 13.6 6.2 29.6 4.6 42.5-4 9-6 16.9-14.3 27.4-17.7 4.5-1.5 9.9-2.1 14.4-.2 4.3 1.8 8.8 6.4 7.1 11.3-.5 1.4 1.4 2.4 2.1 1 3.5-7.4-2.3-15.1-9.4-17.4-9.4-3-19.7.6-27.7 5.8C162.1 70 153.1 80 140.2 82c-10.5 1.6-21.3-1.3-29.4-8.1-2.7-2.3-6.2 1-4.5 4 3.8 6.8 8.5 15.4 6.1 23.5-2.6 9-13.1 12.8-19.9 18-12.4 9.4-17.5 28.1-5.2 39.9 1.1 1.1 3-.6 2-1.9z"/>
     <path id="path101" fill="#b4b4b4" fill-opacity=".2" d="M1843.9 917.4c5.8 6.4 6.2 16.1 3.2 24-3.3 8.6-11.2 12.9-17.6 18.8-5.9 5.4-9.8 12.2-9 20.5.4 4.2 2 8.2 4 11.9-14.2-4.8-29.9-1.6-41.9 8.3-8.4 6.9-15.4 15.9-25.5 20.4-4.4 1.9-9.6 3.1-14.3 1.7-4.4-1.4-9.4-5.5-8.2-10.5.3-1.4-1.7-2.2-2.2-.8-2.7 7.8 3.8 14.8 11.1 16.3 9.7 2.1 19.5-2.6 27-8.5 9.8-7.8 17.8-18.6 30.5-22 10.2-2.7 21.3-.9 30 5.1 2.9 2 6-1.6 4.1-4.4-4.5-6.4-10-14.5-8.5-22.7 1.7-9.2 11.7-14.1 18-19.9 11.4-10.6 14.6-29.7 1.1-40.2-1.2-1.1-2.9.8-1.8 2z"/>
     <g id="g113">
       <path id="path111" fill="#b4b4b4" fill-opacity=".2" d="M105.4 985.4c2.2-6.4 5-13.3 5.6-20.1.1-.8-1.1-1.1-1.4-.3-2.6 6.3-4 13.2-6.3 19.7s-5.1 12.8-7.2 19.4c-.1.4.5.9.7.4 3.8-6.1 6.3-12.5 8.6-19.1zm-25.2-9.1c1.8-5.1 4.3-9.9 6.7-14.8.3-.6-.5-1.2-1-.8-4.2 3.7-6.7 8.5-8.6 13.8-2 5.4-3.9 11.2-4.1 16.9 0 1.1 1.4 1.5 1.9.5 2.2-4.9 3.2-10.4 5.1-15.6zm57.6 48.7c-2.6-3.7-6.1-6.7-8.8-10.4.5-.5.4-1.5-.3-1.8-3.5-1.4-7.2-2.2-10.7-3.7-2.7-1.1-5.9-3.6-8.8-3.2-.3 0-.5.4-.3.6 1.4 2.8 5.9 4.3 8.6 5.5 3.1 1.4 6.6 2.7 10.1 2.8 0 .1 0 .3.1.5 2.2 4.2 5.2 8.5 9.8 10.3.3.2.6-.3.3-.6zm6.9-48.9c.2-.7-.7-1.1-1.1-.4-4.3 8-13.2 28-13.9 37.2-.1.7.9 1 1.2.3 3.7-8.2 11-28.6 13.8-37.1zm14-2.3c.6-3-1.9-8.3-1.8-11.4.8-.1 1.7-.3 2.5-.5 7.6-2.3 12.2-10.4 11.6-18.1-.5-6.8-5.5-13.2-11.9-15.8-6.4-4.4-15.1-2.4-21.1 2.3-3.1 2.5-5.1 5.5-5.9 8.8-1.6-.6-3.5.2-4.5 0h-.9c2.1-7.7.8-17.4-4.2-23.7-5-6.3-14-8.6-21.5-6-7.4 2.6-12.6 10.4-12.7 18.2 0 .6 0 1.1.1 1.7-.4.1-.8.3-.9.7-1 3.1-.5 6.8-.4 10-5.1 3.9-9.2 12.6-11.1 16.2-5.5 10.4-10.4 23.3-9.9 35.3 0 .8 1.3.9 1.5.2 1.4-4.6 2.2-9.4 3.5-14 1.4-4.8 3.1-9.6 5.1-14.2 2-4.7 4.4-9.2 7.1-13.5.9-1.4 2.2-3.8 3.9-5.8 0 2.1.1 4.1.2 6.2.3 5 1 10.4 3.9 14.5-2.2 2.7-2.3 7.1 1.7 8 2.9.6 7.7-.6 8.2-4.1.3-2-.9-4.2-2.6-5.4 2-5.3 2.5-11.7 2.9-17.1h.1c.6.2 1.2.4 1.9.6 2.2.5 3-3 1-3.8-7.2-2.9-12.7-9.5-11.3-17.7 1.3-7.8 8.5-13.5 16.5-12.3 8.7 1.4 12.6 9.5 13 17.6.4 7.9-4.5 17.6-13.6 17.2-1.4-.1-2.2 2.2-.7 2.6 4.2 1.2 8.2.3 11.5-1.8-.1.1-.1.2-.2.3-1.4 4.8-1.2 10.3-2 15.3-.9 5.7-2.2 11.2-4 16.7-1.7 5.1-3.8 10-6.1 14.9-2.3 5-5.2 9.7-7 14.9-.2.5.4 1.1.9.7 4.1-3.4 6.8-7.9 9.4-12.5 2.9-5.1 5-10.7 6.8-16.4 1.7-5.3 3-10.7 3.9-16.2.5-2.8.8-5.7 1-8.5.2-2.7.5-5.8-.2-8.5-.2-.8-1.1-1.3-1.8-1.1 1.8-1.4 3.3-3.1 4.5-5.2.4.3 0-.8 1-.5 1.9.5 3.8 1 5.8 1.2.3 2.8 1.5 5.7 3.6 8.3 4.4 5.5 11.2 10.1 18.3 10.4-.5 2.9 2.5 8 1.9 10.9-.8 4-8.1 21.6-9.5 25.4-1.3 3.6-2.9 7.1-4.6 10.5-1.7 3.5-4.1 6.9-5.3 10.6-.2.7.6 1.5 1.3 1 2.9-2.4 4.9-6 6.7-9.4 2.1-3.8 3.8-7.9 5.2-12 1.2-3.9 8.4-21.7 9.2-25.7zm-62.1-7.7v.4c0 .4.4.5.6.3.1.1.1.2.2.2.8 1.4.4 2.1-1.2 2.6-1.1.3-3.1.6-3.4-.9-.1-.3.1-.9.4-1.5.7.1 1.3-.5 1-1.3 0-.1 0-.1-.1-.2.6-.6 1.2-.8 1.5 0 .3.5.7.5 1 .4zm-2.9-24.9c1.7 1.9 3.7 3.4 6 4.5-.5 3.5-1 6.9-1.6 10.3-.4 2.2-.9 4.5-1.2 6.8-.5-.1-1-.2-1.5-.1-.3 0-.5.3-.6.6-.5-.1-.9 0-1.3.1-1.4-4.7-2.3-9.4-2.5-14.4-.1-2.6-.2-5.1-.3-7.7.9-.3 1.9-.4 3-.1zm-2.4-3.1c-.2 0-.5.1-.7.1v-1.4c.2.5.5.9.7 1.3zm44.7.9c2.2-5.9 9.2-10.2 15.8-10.2.1.2.4.4.7.6 7.1 2.6 14.7 7.5 14.6 16.1-.1 6.9-4.8 12.1-11 12.9-.3 0-.5 0-.8.1-1.4.1-2.9 0-4.4-.4-7.2-2-18-10.6-14.9-19.1z"/>
     </g>
     <g id="g129" transform="translate(-56.394 -53.103)">
       <path id="path127" fill="#b4b4b4" fill-opacity=".2" d="M1322.1 220.4c-9.1-3.6-19.5-4.4-29.1-5.9-5.1-.8-10.2-1.6-15.3-2.5-5.1-.9-10.2-2.1-15.3-2.4-.6 0-.9.8-.3 1.1 4.5 1.7 9.5 2.5 14.3 3.4 5.1 1 10.2 1.9 15.3 2.7 5 .8 10.1 1.4 15.2 2.2 5 .8 9.9 2.2 14.8 3.3 1.1.2 1.4-1.5.4-1.9zm4.7-9.6c-19.5-1.9-38.5-8.5-58.1-9.5l-.1-.1c-.2-.1-.3 0-.4 0-1.5-.1-2.9-.1-4.4-.1-.8 0-1 1.1-.1 1.3 10.5 1.8 20.9 3.3 31.3 5.6 10.5 2.3 20.9 4.7 31.6 5.8 1.8.1 2.1-2.9.2-3zm2.8-5.5c-5.1-2.5-11.4-3.6-16.8-5-5.1-1.3-10.2-2.5-15.4-3.5-5.4-1-10.8-1.9-16.3-2.7-2.8-.4-5.7-.7-8.5-1.1-1.6-.2-3.2-.5-4.7-1-1.1-.4-1.8-.9-2.9-.9-.3 0-.4.2-.3.4 1.3 3.8 8.5 4.2 11.8 4.6 6 .8 12 1.8 17.9 3 6 1.2 11.9 2.5 17.8 4 5.5 1.4 11.1 3.7 16.8 4.6 1.6.5 1.9-1.8.6-2.4zm-10.9-16.3c-2-1.3-4.5-1.6-6.7-2.1-3-.7-6-1.3-9-1.8-5.8-1-11.7-1.9-17.6-1.7-.1 0-.2.2-.1.3 1.8 1.7 4.4 1.8 6.8 2.2 3 .4 6 1 9 1.5 2.8.5 5.6 1.1 8.4 1.7 2.8.7 5.7 1.9 8.7 1.8.9-.1 1.2-1.5.5-1.9zm-.5-12.6c-3.6-2.2-8.6-2.5-12.7-3.2-4.7-.8-9.5-1.6-14.3-1.7-1.6 0-1.8 2.1-.2 2.5 4.5 1.1 9.1 1.7 13.7 2.6 4.1.8 8.7 2.7 12.9 2.4 1.2-.2 1.6-2 .6-2.6zm21.2 43.1c1.3-4.7 2.5-9.4 3.5-14.2 2.2-10 3.6-20.3 4.5-30.5.3-3.1 1.8-8.5-1.6-10.5-1.8-1.1-4.3-1.4-6.3-2-2.7-.8-5.4-1.6-8.1-2.3-10.3-2.9-20.6-5.7-31-8.3-11.6-2.9-23.2-5.8-35-7.7-1.1-.2-1.6 1.6-.5 2 18.9 5.5 38.1 9.8 57 15.1 4.7 1.3 9.4 2.6 14.1 4 2.2.6 4.9 1.1 7 2.1 2.1 1 1 4.2.8 6.2-.9 9.3-2.4 18.6-4.3 27.8-1.1 5.5-2.4 10.9-3.8 16.3-.6 2.4-1.3 4.9-2 7.3-.6 2.3-1.5 4.7-1 7 .1.6.9 1 1.4.5 3.3-2.8 4.2-8.8 5.3-12.8zm-84.7-18.9c.6-2.6 1-5.1 1.4-7.7.8-4.8 1.6-9.5 2.5-14.3 1.8-9.8 4.6-19.6 5.8-29.5.2-1.3-1.7-1.7-2.2-.5-3.6 9.3-5.3 19.4-7.2 29.1-1 4.9-1.9 9.9-2.7 14.8-.4 2.6-.8 5.1-1 7.7-.2 2-.5 4 .4 5.9.2.4.7.4.9.1 1.5-1.5 1.7-3.6 2.1-5.6z"/>
     </g>
     <g id="g139">
       <path id="path137" fill="#b4b4b4" fill-opacity=".2" d="M270 744.1c-15.3-6.9-35.4-4.4-46.2 7.6-18 8.2-22.2 29-16.1 46.1 3.2 8.9 8.7 17.7 17.1 23.1 8.9 5.8 20.3 6.5 30.6 4.3 18.2-3.9 33.8-18.2 37.2-35.8 3.5-17.6-5-37.3-22.6-45.3zm-8.3 70.5c-7.3 3.3-16 4.8-23.9 3.1-8.6-1.8-14.5-7.8-18.6-14.9-7-12.2-8.9-28.6-.6-39.9.8.6 2.2.6 3-.3 9.9-12.3 25.1-18.5 41.1-13.3 14.8 4.8 23.4 18.8 22.9 33.3-.5 14.2-10.7 26-23.9 32zm1.8-17.6c-4.8-3.1-10.4-5.4-16.9-5.8-5.4-.3-14.2.4-17.9 3.8-.6.6-.7 1.7.5 2 4.5 1.2 9.7-1 14.5-.9 6.3.1 12.6 1.7 18.7 2.5 1.2.1 2.1-1 1.1-1.6zm5.2-7.7c-2-5-10.5-8.2-16.1-9.6-8.4-2.1-15.4.6-23.5 2.1-2.3.4-2.1 3.1-.4 3.9 2.3 1.1 4.9.5 7.4.1 4.6-.7 8.8-1.5 13.5-.6 5.9 1.2 11.8 6.2 18 5.5.7-.2 1.4-.7 1.1-1.4zm3.3-15.2c-5.9-4.6-14.2-9.7-22.6-9.7-7.4 0-16.5 1.4-22.2 5.6-3.8 2.7.8 6.5 4.6 5.7l-.2.1c5.7-1.6 11.3-3 17.4-2.9 6.6.1 11.7 5.6 17.3 7.9 5 2.1 9.9-3.5 5.7-6.7z"/>
     </g>
     <g id="g149">
       <path id="path147" fill="#b4b4b4" fill-opacity=".2" d="M238.7 267.7c-2.7-8.6-11-16.8-19.7-19-9.3-2.4-20.5-1.3-28.3 4.6-5.7 4.3-16 15.9-12.9 24.1-2.7 1.4-4.9 4.7-6.7 6.9-2.7 3.2-5.3 6.4-8.3 9.3-3 2.8-3.2 4.1-6.1 7.1-2.5 2.6-5.4 5.4-6.4 8.9-.2.6.5.9.9.6 3.1-2.3 2.5-4.2 5.4-6.8 3.1-2.8 6.2-5.5 9.1-8.4 2.6-2.6 5-5.4 7.3-8.4 1.3-1.7 2.5-3.4 3.9-5.1.7-.8 1.4-1.5 1.9-2.3.1.1.2.2.3.4.4.5 1.2.2 1.3-.3.8-2.6 1-5.3 2-7.8.9-2.5 2.3-4.8 3.9-7 3-4.2 6.9-8.1 11.8-10.2 5-2.1 10.9-2.4 16.3-1.8 5.8.7 10.2 3.3 14.1 7.6 4 4.3 6.3 8.8 7 14.6.7 5.9.1 12.1-2.7 17.3-2.6 4.9-6.3 8.5-11.6 10.3-3.8 1.3-9.6 1.6-12.2 4.9-.1.1-.1.1-.1.2-2.2.8-4.4 1.8-6.5 2.7-3.5 1.5-7 3.1-10.4 4.8-6.9 3.4-13.7 6.9-19.9 11.4-.2.1-.2.3-.3.4-.3 0-.7.2-.7.6-.6 4.5-.3 9.4-2.6 13.6-1.9 3.4-5.1 5.7-8.5 7.4-6.9 3.5-15.8 5.8-23 2-3.2-1.9-6.1-4-8.8-6.8-2.2-2.2-4-4.7-5.8-7.2-1.3-1.8-.6-5.4-1.5-7.6.2-.2.2-.5.1-.8-.2-.3-.3-.6-.5-.9v-.2c0-.5-.3-.8-.7-1-2.7-4.1-6.7-7.2-10.3-10.5-2.7-2.4-6.1-7.1-10.2-6.2-.4.1-.6.7-.3 1 3.5 3 6.7 6.4 10 9.5 3 2.9 5.7 5.9 9.2 8.2-.5 5.7 2.1 13.5 5.5 17.5 4.3 5 10.4 9.9 17.3 9.7h.3c6.6 2.1 14.3-.3 20.4-3.6 9.2-5 12.9-13.9 10.7-24h.2c6.8-3 13.4-6.5 20.1-9.7 3.3-1.5 6.5-3 9.8-4.5 3.4-1.6 7.2-2.8 10.3-4.9 1.3-.3 2.5-.8 3.7-1.1 2.7-.6 5.4-1.2 8-2.2 4-1.6 7.8-4.3 10.4-7.8 6-8.2 6.8-20 3.8-29.5zm-88.8 39.8c-4.5-2.4-10.7-4-15.3-1.1-4.3-4.1-8.6-8.5-13.2-12.2.1-.4 0-.8-.4-1.1-6.8-6.2-13.4-12.7-20.4-18.6-.6-.5-1.4.3-.9.9 5.8 7.2 12.6 13.4 19.3 19.6 4.5 5 10 9.2 15.2 13.4.4.3.8.2 1.1-.1 4.9 0 9.1-.9 14 1 .9.3 1.6-1.3.6-1.8zm9.2 25.3c.1-1.3.1-3.3-.3-5.1.6-.3.9-.9.5-1.5-1.6-2-3.4-3.8-5.5-5.2-2.4-1.6-4.7-2.2-7.5-2.9-.7-.2-1 .9-.4 1.2 3.2 1.7 6.4 3.9 9.4 6.1.1.5.3.9.5 1.5.5 1.4.7 3 .6 4.5-.2 3.3-1 8.6-4.1 10.3-5.8 3.3-13.6-.1-18.1-4-.2-.1-.3-.2-.5-.1-.9-1.8-1.7-3.6-2.3-5.5-.3-.8-1.6-.4-1.3.5 1.1 3.4 2.6 6.8 5 9.6.3.4.9 0 .7-.5 0-.1-.1-.1-.1-.2 5 4.6 13.4 7 19.1 2.5 3.1-2.4 4-7.4 4.3-11.2zm63.5-62.7c-2.3-3.6-5.8-6.1-10.1-6.8-4-.7-10.6-.3-13.1 3.2-.2.3-.2.8 0 1.1.1.1.1.2.2.3-5.1 3.7-7.3 10-4.1 16.6 3.9 8.2 14.9 13.4 23.1 7.5 6.8-4.9 8.5-14.9 4-21.9zm-6.9 19c-6.4 3.8-13.6-.7-16.3-6.6-3.8-8.3 2.9-11.3 8.3-15.9 1.8-.1 3.7 0 5.4.5 3.3 1 5.8 3.5 7.1 6.6 2.5 5.3.9 12.2-4.5 15.4z"/>
     </g>
     <path id="path151" fill="#b4b4b4" fill-opacity=".2" d="M1379.3 698.9c-.9-.9-2-1.8-3.7-2h-.3c-2.1-.9-4.6-.7-6.7.8-.3.2-.6.4-.8.7-2.6-.9-5.2-1.8-7.7-2.5-1.2-.4-2.4-.7-3.5-1.1-5.6-1.8-11.3-3.5-16.8-5.2l-2-.6c0-.8-.1-1.5-.3-2-1.5-3.1-6-4.5-8.3-3.9-1.5.4-2.6 1.1-3.3 2.2-3.2-1-6.9-2.1-10.5-3.2-1.5-.4-2.9-.9-4.3-1.3-1.8-.6-3.6-1.2-5.5-1.7-.9-.3-1.8-.6-2.8-.9-.9-.3-1.9-.6-2.9-.9-.1 0-.3-.1-.6-.2-1-.4-2.4-.9-3.7-1.1-1.8-.2-2.7.5-3.1 1.1-.5.7-.6 1.7-.2 2.6 1.1 2.4 4.3 3.2 6.7 3.7.7.2 1.3.3 1.7.4 6.9 2.4 14 4.8 21.7 7.3-.1 1.1.1 2.2.5 3 .8 1.7 2.1 2.9 3.6 3.4.8.3 1.5.4 2.3.4 2.6 6.8 5.5 13.6 8.2 20.2 1 2.3 2 4.7 2.9 7l1.3 3.2c1.9 4.5 3.8 9.1 5.8 13.6.4.8.7 1.6 1.1 2.5.9 2.2 1.9 4.4 2.9 6.6-1.1 1-1.9 2.2-2.3 3.4-1.1 3.1.1 6.4 2.9 8 1.8 1 3.9 1.1 5.7.3 1-.4 1.9-1.1 2.6-2 0-.1.1-.1.1-.2 1.4-1 2.3-2.9 2.4-4.3.2-1.7-.4-3.7-1.4-4.9-.8-.9-1.8-1.6-2.9-2-1-2.6-2.1-5.1-3.1-7.6-.3-.7-.6-1.5-.9-2.2-2.1-4.9-4.3-9.8-6.4-14.5l-1.2-2.8c-1.6-3.7-3.1-7.3-4.6-10.7-2.1-4.9-4.2-10-6.6-15.1.3-.1.5-.3.8-.5 2.3.7 4.5 1.3 6.6 1.9 2.1.5 4.3 1.1 6.6 1.8 1.6.5 3.2 1 4.9 1.6 3.5 1.1 7 2.3 10.6 3.3-.1.6-.1 1.3 0 1.9.2 2 1.1 3.8 2.5 5.2 1.6 1.6 4.1 2.3 6.5 1.9 3-.4 5.6-2.5 6.9-5.8 1-2.5 1-6.4-1.4-8.8z"/>
     <g id="g171">
       <path id="path169" fill="#b4b4b4" fill-opacity=".2" d="M1394.1 894.9c-.1 0-.1 0 0 0zm-53.7 24c-1.1-1.4-3.1-2.1-4.7-1.4-2.1-.1-3.4 1.7-3.6 3.6-.1 1 0 2.1.5 3 .6 1 1.6 1.6 2.7 1.8 1.9.5 4-.1 5.1-1.6 1.1-1.6 1.3-3.9 0-5.4zm23.9 21.9c.1 1.2 1.1 2.4 2.2 2.6 1.2.8 2.7.3 3.5-.7.4-.5.8-1.2.8-2s-.4-1.5-.9-2.1c-.9-1-2.4-1.4-3.7-1-1.1.5-2 1.8-1.9 3.2zm-36.9 4c.6.3 1.5.3 2-.2.8-.3 1-1.2.8-1.9-.1-.4-.3-.8-.7-1-.4-.3-.8-.3-1.3-.3-.8.1-1.5.7-1.7 1.4-.1.7.2 1.6.9 2zm12.1 16.8c.4.8 1.2 1.5 2.1 1.4 1 .3 1.9-.3 2.3-1.3.2-.5.3-1 .2-1.5-.1-.6-.6-1-1.1-1.3-.9-.5-2-.5-2.8.1-.7.6-1.1 1.7-.7 2.6zm8.2-.9c-1 1.7-1 4.1.3 5.5.7 2.2 3.1 3 5.2 2.5 1.1-.3 2.2-.8 2.9-1.7.8-1 1-2.3.9-3.5-.2-2.2-1.7-4.2-3.7-4.8-2.1-.7-4.5 0-5.6 2zm30.6-18.8c-1.1 1-1.6 2.7-1 4 .1 1.8 1.6 2.8 3.2 2.9.8 0 1.8-.1 2.5-.6.8-.5 1.2-1.4 1.4-2.4.3-1.6-.3-3.4-1.6-4.3-1.3-.8-3.2-.8-4.5.4zm2.3-20.8c-3.1-1.4-7.2-.9-9.3 1.5-3.6 1.7-4.5 5.9-3.3 9.3.7 1.8 1.8 3.6 3.4 4.7 1.8 1.2 4.1 1.3 6.2.9 3.7-.8 6.8-3.7 7.5-7.2.7-3.6-1-7.6-4.5-9.2zm.6-30.5c-18.9-8.6-43.6-5.4-56.9 9.4-22.1 10.1-27.4 35.7-19.8 56.8 4 11 10.7 21.8 21 28.5 10.9 7.1 25.1 8 37.7 5.3 22.5-4.8 41.7-22.5 45.9-44.1 4.2-21.8-6.2-46-27.9-55.9zm-10.2 86.8c-9 4-19.7 5.9-29.5 3.8-10.6-2.3-17.9-9.7-22.9-18.4-8.7-15-11-35.3-.8-49.1 1 .8 2.8.8 3.7-.4 12.2-15.2 31-22.8 50.6-16.4 18.2 5.9 28.8 23.2 28.3 41-.6 17.6-13.1 32.2-29.4 39.5z"/>
     </g>
     <g id="g187">
       <path id="path173" fill="#b4b4b4" fill-opacity=".2" d="M969.62 403.047c-47.347.066-95.686 2.972-103.92 4.353-19.5 3.3-30.7 20.5-32.8 39.1-.9 8-.5 16.1-.3 24.1.6 25-.4 50 .1 75l.3 12.4c.7 19.1-.2 46.7 19.1 57.8 8.2 4.7 17.5 6.7 26.8 7.3 5.5.4 11.1.1 16.6.2 10.424.086 20.848.095 31.271.096-1.028 8.52-1.316 16.98-.771 25.604-.1-.6-14.5-.1-15.7-.1-6.8 0-13.4-1.2-20.1-2.2-5.1-.8-13.8-3.3-18.4 0-5.9 4.2-2.9 13.3-2.8 19.3 0 .7.2 1.3.4 1.8.1 1.5.3 3.1.5 4.6.1 1.4.9 2.4 1.9 3.1 1.7-.3 3.5-.3 5.4-.3 3.3.1 6.6.6 10 1.1h.9c.1 0 .2-.1.3-.1 3-.1 6.1-.2 9.1-.3 6.4.3 12.6.3 18.8-.1 5.3 1.2 11.5 1 17 .6 8.9 0 17.7-.1 26.6-.1.5 0 .9.1 1.4.1h.2c4.1.5 8.2.5 12.4.2 1.7.2 3.3.4 5 .4 6.8 0 13.7-.1 20.5-.3h.2c1.9-.1 3.9-.1 5.8-.2.2 0 .4.1.6.1h1.1c10.2-.4 20.4-.6 30.6-.2.6.2 1.2.2 1.9.1h.7s0-.1.1-.1c1.5-.5 2.8-1.7 3-3.7.6-5.7.9-11.5 1.9-17.2 2.2-12.7-10.5-9.7-16.8-8.2-2.4.6-7.4.5-12.7 1.2-10.9 1.1-24 1.2-24.1.3-.575-8.236-.405-16.473.663-24.71 18.4.115 36.422-.047 49.438-1.09 23.8-1.9 39.199-19.6 43.799-43.5 2.9-14.6.7-30.9.3-45.6-.5-19-1-38-1.6-57-.6-23 2.5-50.7-19.9-64.4-12-7.36-53.005-9.512-94.78-9.453zm-21.933 18.908c16.028-.018 32.064.07 48.114.145 18 .1 35.9.9 53.5 4.7 5.7 1.2 10.999 3.7 13.699 9.2 2.9 5.9 2.4 13.2 2.7 19.6.4 7.9.8 15.7 1.1 23.6 0 19.7 1.9 39.7 2.9 59.4.5 9.7.9 19.4 2 29.1.047.434.025 1.281-.01 2.3-36.806-1.376-73.698-2.2-110.59-2.2-2.1 0-4.2.1-6.3.1l-.005.004c-34.798.065-69.597-.086-104.395-.258-.08-1.303-.174-2.455-.2-3.146-.6-26.3-1.3-52.6-1.9-78.9-.4-16.5-1.3-31.3 3.2-47.2 1.3-4.6 6.4-14.4 16.1-14.9 26.687-1.188 53.376-1.515 80.087-1.545zm131.229 111.422c.053 1.487.102 2.972.143 4.457-.19-1.491-.265-2.982-.143-4.457zm-237.223 42.436l2.563.017c1.672.059 3.36.124 4.545.17a.954.954 0 00.52-.139c36.892.247 73.786.33 110.679.239.338 0 .654-.035.95-.098 37.539.013 75.149.767 112.683 2.266.998.078 2.061.167 3.107.119l.36.013c.07.004.13-.008.199-.007-1.69 7.874-5.15 15.398-10.399 21.507-7.7 8.9-18.5 13.2-29.8 15.5-8.6 1.8-144.5-.9-154.1-1.4-9.2-.4-16.9-2.6-25-6.6-7.3-4.1-11.4-10.4-14-18.2-1.188-4.24-1.89-8.757-2.307-13.388z"/>
       <path id="path181" fill="#b4b4b4" fill-opacity=".2" d="M958.8 587c-10.6 0-10.6 16.4 0 16.4 10.5 0 10.5-16.4 0-16.4z"/>
     </g>
     <g id="g197">
       <path id="path195" fill="#b4b4b4" fill-opacity=".2" d="M1793.4 304.9c-8 1.3-15.2.1-22.9-1.5-5.5-1.1-12.8-.7-17 3.5-.6.6-.1 1.6.7 1.4 3.6-.6 6.8-1.8 10.5-1.7 3.8.1 7.5 1.4 11.2 2.1 6.4 1.3 12.4.6 18.4-1.6 1.3-.4.5-2.4-.9-2.2zm1.3-9.7c-6.4-1.8-14.4-2.1-21-1.7-4.6.3-9.7 1.7-11.8 6.1-.1.3.2.6.5.4 10-6.5 21.2-1.5 32.2-3.3.7 0 .8-1.3.1-1.5zm1.4-9.8c-8.3 2.2-24.4-9.1-28.5 3.4-.2.6.6.9.9.5 4.4-5.4 11.9-2.1 17.2-.9 4.1.9 7.4.7 11-1.7.6-.4 0-1.4-.6-1.3zm21.6-4.5c-7.9-13.5-23.7-19.6-38.8-17.6-16.4 2.1-32.4 12.8-41.7 26.3-9.3 13.5-9.9 34.5 6.2 43.2.1.1.3.1.4.1-4.1 6.2-7.9 12.6-13 18.3-1.7 2 .1 5.7 2.8 4.2 6.3-3.5 12.5-7.1 18.8-10.8 2.9-1.7 5.8-3.4 8.6-5.3 2.4-1.7 4.9-3.1 6.7-5.4 14.1 1.1 28.6-2.5 40-11.3 12.4-9.9 18.4-27.4 10-41.7zm-10.4 35.8c-12.6 11.8-32.5 14.6-49.1 12.4-1.7-.2-2.4 2.6-.6 3.1 1.6.4 3.3.7 4.9 1-1.2.6-2.5 1.2-3.7 1.8-3.3 1.6-6.4 3.4-9.5 5.2l-7.2 4.2c2.6-4 4.8-8.3 6.2-12.8.5-1.7-1.8-2.9-2.8-1.4-.2.3-.4.5-.5.8l-.3-.3c-11.5-8.1-10.7-24.4-4-35.3 7.1-11.7 20-20.9 33.1-24.6 12.9-3.6 27.1-1.2 36.3 9.1 10 11.2 7.9 26.8-2.8 36.8z"/>
     </g>
     <path id="path199" fill="#b4b4b4" fill-opacity=".2" d="M1059.113 248.718c-2-2.6-4.7-4.2-7.7-4.6.9-4.1.7-8.3-.5-12.2-.5-1.5-1.1-3-1.9-4.4-.1-.1-.2-.3-.2-.4-3-5.1-7.8-8.7-13.6-10.2-11.7-3-23.3 3.8-26.9 15.5-2.9-1.9-6.6-3.5-10.3-3.3-1.5.1-3.1.5-4.6 1.3-1.5.8-2.7 1.9-3.6 3.2-1.3 1.8-2 3.9-1.9 6.1-1.8-.4-3.5-.5-5.2-.3-2.1.2-4.2.8-6.2 1.8-1.1.6-2.2 1.2-3.2 2.1-5.4 4.3-8.6 11.4-8.2 18.5.4 7.8 4.5 15.1 10.9 19.1 4.7 3 10.1 3.8 15.4 2.5 1.8 1.5 3.8 2.8 6 3.7 4.8 2 10.3 2.1 15.2.5 5.3-1.6 9.5-3.8 12.4-8.5.5-.8 1-1.6 1.4-2.5-.4.9 3.3 2.6 3.8 2.8 6.3 2.4 13.7.2 19.4-2.7 5.5-2.9 10.3-7.5 12-13.7.3-1 .5-2 .6-3.1 0-.5.1-.9.1-1.4.1-3.5-1-7.1-3.2-9.8zm-2.2 13.3c-1.9 6.4-9.4 10.9-15.5 12.6-4.7 1.3-9.3.6-12.9-2.8-1.1-1-2.5-2.2-3.9-1.6-1.4.5-1.8 2.4-2.4 3.7-.7 1.6-1.5 3.2-2.7 4.6-1.8 2.1-4.1 2.5-6.6 3.7-4.4 2.1-9.4 2.2-14 .3-1.2-.5-2.4-1.2-3.4-1.9s-2-1.6-2.8-2.5c-.1 0-.2.1-.4.1-1.6.6-3.3 1-4.9 1.1-3.4.2-6.8-.8-9.8-2.9-5.1-3.6-8.2-9.8-8-16.2.1-5.3 2.6-10.2 6.5-13.2.4-.3.8-.6 1.2-.8 1.2-.8 2.5-1.3 3.9-1.6 3-.7 6.1-.4 9.2 1.1.9.4 1.9.2 2.7-.7.7-.8.8-1.8.3-2.7-1.2-2-1.4-3.7-.4-5.2 1.4-2.1 5-3.4 8.1-2.8 2.8.5 5.1 2.3 7.3 4 .6.5 1.4.6 2.2.3.8-.3 1.5-1.1 1.6-2 .8-5.3 3.8-10.1 8.2-12.9 4.1-2.7 9-3.5 13.8-2.2 4.8 1.3 8.7 4.4 10.9 8.7 2.4 4.7 2.6 10.4.6 15.5-.3.8-.2 1.8.4 2.5.6.7 1.5 1.1 2.4.9 3-.6 4.9.7 6 2 2.1 2.2 2.9 5.8 2.8 8.8 0 .7-.2 1.4-.4 2.1z"/>
     <g id="g205">
       <path id="path203" fill="#b4b4b4" fill-opacity=".2" d="M1820 534.6c-3.5-3.1-7.4-5.7-11.6-8.1 1.1-1.3 2.1-2.6 3-3.9.4-.5-.2-1.2-.8-.9-1.8.9-3.5 2-5.1 3.3-3.9-2.1-7.8-3.9-11.7-5.7-1.3-.6-2.1 1.4-1.1 2.1 3 2.1 6.2 4.3 9.4 6.4-1.8 1.6-3.9 3.3-4.3 5.6-.1.8.7 1.5 1.4 1.3 2.5-.6 4.2-3.1 6-5 4.3 2.6 8.8 4.9 13.5 6.5 1 .3 2.1-.9 1.3-1.6zm30.5-12.9l-44.7-11.1c-7.2-1.8-14.4-3.8-21.7-5-6.5-1.1-14.2-2-20.3 1.1-1 .5-.6 2 .3 2.3.5.1.9.2 1.4.4-.5.2-.9.4-1.1.9-.5.9-.5 1.8-.3 2.6-.1 1-.2 1.9 0 3 .2 1.3.5 2.6.8 4 .7 3.1 1.3 6.1 2 9.2 1.4 5.8 2.8 11.7 4.2 17.5 1.4 5.8 2.8 11.7 4.2 17.5.6 2.6 1.2 5.9 2.1 9-2 1.7-3.8 3.6-5 5.8-.8 1.6.6 3 2.2 2.8 2.1-.4 4.1-1.3 6-2.4l.7.7c1.2 1 2.7.5 3.3-.9.3-.8.4-1.6.5-2.5 3-2 6-4.2 8.9-6.3 6.4-4.6 12.7-9.2 19.1-13.8 12.7-9.2 25.4-18.5 38.1-27.8 2.7-2 2.6-6.2-.7-7zm-41.7 28.3l-19.1 13.8-5.4 3.9c-.5-2-1.1-3.9-1.6-5.9-1.5-5.8-3-11.6-4.5-17.5s-3-11.6-4.5-17.5c-.7-2.8-1.5-5.6-2.3-8.3l-1.2-4.2c-.6-1.8-1.6-2.7-2.3-4.3-.1-.2-.2-.3-.3-.5 2.5.4 5.1.5 7.6.9 3.6.5 7.2 1.3 10.7 2.1 6.8 1.7 13.5 3.5 20.3 5.3 11.6 3 23.2 6 34.9 9-10.9 7.8-21.6 15.5-32.3 23.2z"/>
     </g>
     <path id="path235" fill="#eaba21" d="M935.6 670.9c-.1 0-.1.2 0 .2s.1-.2 0-.2z" opacity=".85"/>
     <g id="g251">
       <path id="path249" fill="#b4b4b4" fill-opacity=".2" d="M1672.1 893.7c-1-.3-2.1-.5-3.1-.8-2.3-.6-4.8-1.2-7.1-2-1.4-.5-2.7-1.1-4-1.7-1.8-.9-3.7-1.8-5.7-2.3-.3-.1-.6 0-.7.3-.1.2-.1.5.1.8 2.7 2.8 6.8 4.9 11.2 6.1 3.1.9 6.2 1.4 9 1.6.5 0 .9-.3 1-.8.1-.6-.2-1.1-.7-1.2zm-61.2-47.5c-.8-1.1-2.2-2.3-3.7-2.7.5-.5 1.1-.9 1.7-1.1.8-.2 1.6-.2 2.3.2.7.4 1.2 1 1.4 1.8.1.3.4.5.8.5.3-.1.5-.3.5-.7-.1-1.6-1.3-2.9-3-3.4-1.6-.5-3.5.1-4.9 1.4-3.1 3-2.9 7.6-1.5 10.7.8 1.6 2.3 3.5 4.2 4.1.1 0 .1 0 .2.1.3.1.6-.1.7-.3.1-.3.1-.6-.2-.8-1.5-1.3-2.7-2.4-3.5-4.2-.7-1.7-.9-3.6-.4-5.3.2-.6.4-1.3.7-1.8h.1c.5.2.9.4 1.3.6.7.5 1.4 1 1.9 1.7.9 1.2 1.6 2.8 1.8 4.7 0 .2.2.4.5.4s.5-.2.5-.4c.5-1.9 0-3.8-1.4-5.5zm125.8-13.5c.1-.9.2-1.8.3-2.6h-.3c.6-1.2 1.1-2.5 1.2-3.8.3-2 0-4-.8-5.7-.4-.9-1-1.7-1.5-2.4-.2-.3-.5-.6-.5-.9 0-.3.1-.6.6-1 .2-.1.4-.3.5-.4.6-.5 1.3-1 1.7-1.8.5-.9.7-2.5-.4-3.1-.4-.3-1-.3-1.4-.3h-.4l-2.1-.3c-1.3-.2-2.6-.5-3.8-.7-.5-.1-.9-.2-1.4-.3.4-.5.7-1.2.9-1.8.5-1.8 0-3.6-1.1-5.1-2.8-3.4-7.4-2.9-11.1-2.5l-.9.1c-4.4.5-9 .8-13.5-.2-3.3-.7-6.6-2.1-10.4-4.4-2.7-1.7-5.4-3.6-7.9-5.5-3.6-2.6-7.4-5.4-11.4-7.4-3.7-1.9-7.2-2.9-10.6-3.2-3.9-.3-7.8.6-11.6 1.4l-1.5.3c-4.7 1-9.2 1.5-13.5 1.5h-.1c-.9 0-1.3-.1-1.4-.5-.1-.4 0-1 .1-1.5.1-.3.1-.5.2-.8.2-1 .5-2.1.3-3.2-.2-.7-.5-1.3-1.1-1.7-.4-.3-1-.2-1.4.1-2.2 2.1-4.3 4.3-6.3 6.7-.4-1-1-2.1-2-2.9-1.3-1.1-3.2-1.2-4.6-.5-1.6.8-2.1 2.6-1.5 4.9.4 1.6.9 3.1 1.7 4.7-2.7 1.4-5.1 3.8-7.5 7.5-2.2 3.5-4.3 7.5-6.3 12.3-3.8 9-6.2 18.4-7.1 27.9-.5 4.6-.5 9.3-.2 13.9-.1 1.2-.1 2.4 0 3.6.3 3.1 1.6 5.8 3.5 7.5 1.6 1.4 3.6 2.2 5.6 2.2-2.1 7.3-3.7 14.5-1.5 21.3 1.3 3.9 4 7 6.9 10.1 5.9 6.2 13.2 11.3 21.7 14.9 3 1.3 6.1 2.4 9.3 3.3 5 1.5 10.4 2.6 16.3 3.3 7.2.9 14.9 1.4 24.3 1.4 4.6 0 9-.2 12.7-2.7 4.3-3 6.3-8.3 7.7-13.6l.3-1c1.3-4.7 2.6-9.5 5.8-12.9.8-.8 1.7-1.6 2.6-2.3 1.5-1.3 3.1-2.6 4.2-4.3.9-1.5 1.4-3.2 1.8-4.9.1-.3.1-.6.2-.9 1.7-6.5 4.9-12.7 7.9-18.8 3.7-7.3 7.6-14.8 8.8-23zm-20 44.9c-1.3 2-3 3.8-5.5 5.5 1.3-4 2.7-8.1 4.1-12.2 1-.4 1.9-1 2.7-1.6.4-.3.8-.6 1.2-1 0 1.1-.1 2.1-.3 3.2-.2 2.2-1 4.3-2.2 6.1zm-113.8-53.4c2.1-9.1 5.5-17.7 10-25.6 2.2-3.8 4.8-7.6 8.7-9 .4-.1.6-.4.8-.8.1-.3.1-.7-.1-1-.7-1.4-1.3-2.8-1.7-4.2l-.1-.3c-.4-1.3-.7-2.4 0-2.9.4-.3.9-.3 1.4-.2.3.1.6.3.8.5.9.8 1.4 2.2 1.8 3.5.1.4.5.8 1 .9.4.1.8-.1 1-.4 2-2.4 4-4.7 6.2-6.9 0 .4-.1.8-.2 1.1 0 .1-.1.3-.1.5-.3 1.2-.6 2.6.1 3.8.9 1.7 3.1 1.6 4.6 1.5h.7c2.1-.1 4.3-.2 6.5-.5 2.3-.3 4.5-.8 6.7-1.3 2-.4 4.1-.9 6.1-1.2 3.8-.5 7.5-.2 11 1 5.5 1.9 10.3 5.4 14.9 8.9 1.2.9 2.5 1.9 3.8 2.8 2.5 1.8 5.9 4 9.5 5.7 3.7 1.7 7.7 2.6 11.8 2.7 2.6.1 5.3-.2 7.3-.4.6-.1 1.2-.1 1.8-.2 1.8-.2 3.7-.5 5.5-.2 1.8.2 3.8 1.2 4.4 3.1.2.8.1 1.7-.3 2.4-.2.4-.7.9-1.4 1.1-.5.1-.9.6-.9 1.2 0 .5.3 1 .8 1.1 3.4.9 6.9 1.6 10.4 2.1-.2.4-.8.8-1 .9l-.1.1c-.8.6-1.6 1.3-1.9 2.4-.4 1.5.4 2.7 1.2 3.7.3.4.6.7.8 1.1 1.5 2.8 1 6.6-1 9-2.5 2.8-6.5 3.2-10.1 3.5l-.6.1c-4.4.4-8.9.5-13.8.4h-.6c.9-.6 1.8-1.4 2.8-2.2l.2-.2c1-.9 2.6-2.3 2.5-3.7 0-.4-.2-1-.9-1.5-.8-.6-1.8-.7-2.7-.8-.2 0-.5-.1-.7-.1-1.2-.2-2.5-.4-3.7-.6-2.8-.4-5.8-.7-8.8-.5-.3 0-.6.2-.7.5-.1.3-.1.7.1.9.2.2.4.3.7.3 1.1.1 2.1.2 3.2.3 1.6.1 3.3.3 5 .5 1.4.2 2.8.4 4.2.7l.4.1c.4.1.9.2 1.3.3h.1c.1 0 .2 0 .3.1-.1.1-.3.3-.3.4l-.1.1c-1.7 1.7-3.4 3.1-5.3 4.1-.7.4-1.5.8-2.3 1.1-7.4-.6-14.8-2-22.2-4.1-3.4-1-7-2.2-11-3.6 1.6-.1 3.3-.5 4.9-1.1 1.8-.7 3.4-1.5 4.8-2.6l.2-.1c1-.7 3.1-2.3 2.2-4-.4-.8-1.4-1-2.1-1.1-.1 0-.3 0-.4-.1l-6.7-1.4h-.2c-.8-.1-1.2-.2-1.5-.3.2-.1.3-.2.4-.2.1-.1.2-.1.3-.2l2.7-1.8c.1-.1.2-.1.3-.2.4-.2.9-.5 1.1-1 .4-.6.3-1.1.1-1.5-.5-1.1-2.1-1.5-3.1-1.7-.2 0-.3-.1-.4-.1l-1.7-.5c-1.8-.5-3.6-1-5.5-1.6-1.2-.3-2.3-.6-3.5-.9-.2-.1-.4-.1-.7-.2-.9-.3-1.9-.6-2.8-.2l-.2.1-.1.2-.1.3.1.2c.5.7 1.3 1 1.9 1.2.1 0 .3.1.4.1 1 .3 2 .7 3 1 1.9.6 3.8 1.2 5.7 1.7l3.8 1.1c-.3.2-.6.4-1 .6-.3.2-.5.4-.8.5-.2.1-.4.2-.6.4-.6.4-1.3.8-1.8 1.3-.5.7-.5 1.3-.4 1.7.3.9 1.2 1.5 2.1 1.8 1.3.4 2.6.6 3.9.9.6.1 1.3.2 1.9.4l2.8.6h.1l-.1.1c-.1.1-.2.1-.2.2-1.2 1-2.5 1.8-4 2.5-3 1.3-6.5 1.8-10.2 1.4-.2 0-.4 0-.6.2-3.1-1.2-6.2-2.4-9.2-3.7l-1.3-.5c-2.3-.9-4.6-1.8-6.8-2.8l-1-.4c0-.1-.1-.2-.2-.2-.3-.2-.7-.3-1-.1-.7.4-1.3 1-1.9 1.6l-.6.6c-.7.7-1.5 1.4-2.3 2.1-1.7 1.4-3.4 2.6-5.1 3.7-1.8 1.1-3.6 2-5.5 2.8-1 .4-2.1.8-2.9 1.1-.8.3-2.2.8-3.1.3-.4-.2-.8-.1-1.1.2-.3.3-.3.8 0 1.1.5.6 1.1.9 1.8 1.1-.8 1.7-1.8 3.9-2.9 6-.6 1.1-1.4 2.3-2.5 2.9-.9.4-2 .6-2.7-.1-.6-.6-.9-1.4-1.2-2.3-.3-.9-.6-1.8-1.3-2.5-2-2.3-5.4-.6-6.5-.1-1.9.9-3.7 2.5-5.3 4.4-.8 1-1.5 2.1-2.1 3.3.7-6.3 1.5-12.4 2.9-18.3zm115.5 40.5c3.6-8.3 6.2-17 7.7-25.9l-1-.3-24.4 64.8c-1.5 4-3.2 7.8-6.3 9.7-2.3 1.4-5.1 1.5-8.1 1.5-11.8 0-27.3-.5-41.7-4.9-8.1-2.5-15.3-6-21.5-10.5-3.3-2.4-6.4-5.1-9-8-2.6-2.8-5.2-5.9-6.1-9.8-.1-.3-.1-.6-.2-.8 0-.3-.1-.6-.1-.8-.2-1.4-.2-2.8-.1-4.3.2-4.6 1.6-9.2 2.9-13.6.1-.4 0-.9-.3-1.2-.1-.1-.3-.3-.5-.3-.2-.1-.4-.1-.6 0-1.9.5-4-.1-5.6-1.6-1.5-1.4-2.4-3.6-2.6-6.2-.3-4.5 1.3-9.3 4.2-12.6 1.5-1.7 3.2-2.9 5-3.5 1-.3 1.9-.6 2.5 0 .4.4.7 1.1.9 1.8l.1.3c.7 1.9 1.7 3.9 4.1 4.1 2.2.2 4.4-1.2 6-3.9 1.5-2.5 2.6-5.3 3.6-7.8 1-.2 1.9-.5 2.9-.9 2.2-.9 4.3-1.9 6.3-3.1 2.1-1.3 4-2.7 5.8-4.2 1.1-1 1.9-1.8 2.7-2.6l.2-.2c.2-.2.5-.5.7-.8.6.2 1.2.5 1.8.7.4.2.8.3 1.2.5l7.5 3c9.7 3.9 19.7 7.9 30.2 10.5 4.5 1.1 9.1 1.9 13.7 2.4.1.1.2.2.4.2.9.1 1.8.3 2.8.1 4.4.4 8.9.4 13.3.3 2.7-.1 5.1-.3 7.6-.6 2.2-.2 4.4-.5 6.6-1.2 2-.7 3.5-1.7 4.7-2.9-3.8 11.8-9.6 23-17.3 32.6zm-12.1-8.6c-1.3-1.2-2.8-1.9-4.6-2.7-1.4-.6-3-1.2-4.8-1.8-1.7-.5-3.4-1-5.1-1.3-1.1-.2-1.9-.4-2.7-.5h-.3c-.6-.1-1.4-.2-2 .2-.1.1-.2.2-.2.4 0 .1 0 .3.1.4.4.6 1.1.7 1.7.8.1 0 .2 0 .3.1l.3.1c.7.2 1.5.3 2.2.5 1.7.4 3.4.9 5.1 1.4 1.4.5 3 1 4.8 1.8.4.2.8.3 1.2.5 1 .4 2 .9 3 1.2.2.1.4.1.6.2.3.1.5-.1.6-.3 0-.5 0-.8-.2-1zm-40.5-11.4c.2 0 .4-.2.6-.4.1-.2.1-.5-.1-.7-.4-.6-1.1-.9-1.7-1.1l-.2-.1c-1-.4-1.7-.8-2.4-1.1-1.8-.8-3.4-1.3-4.9-1.8l-4.8-1.5-.6-.2c-1.5-.4-3.1-.9-4.7-.7-.3 0-.6.3-.7.6-.1.3.1.7.4.8 1.1.7 2.4 1 3.7 1.3.3.1.7.2 1 .3 1.7.5 3.3 1 4.9 1.5 1.5.5 3.1 1 4.6 1.6l1.1.4c.4.2.8.3 1.3.5.1 0 .3.1.4.2l.9.3c.5.1.8.1 1.2.1zm31.8 17.7l-.3-.3c-.2-.2-.3-.4-.5-.6l-.1-.1-.1-.1c-.4-.2-.8-.5-1.2-.7h-.2c-.5-.1-.9-.1-1.3-.1h-.5c-.6.2-1.1.4-1.8.7h-.1c-2.4 1.4-4.1 4.6-4.6 6.9-.6 2.5-.2 4.5 1.1 5.8.5.5 1.1.8 1.6 1 1.5.4 3.2-.1 4.4-1.1 3-2.4 5.1-7.1 3.3-11.2zm-39.5-13.9l-.3-.3c-.2-.2-.3-.4-.5-.6l-.1-.1-.1-.1c-.4-.2-.8-.5-1.2-.7h-.2c-.5-.1-.9-.1-1.3-.1h-.5c-.6.2-1.2.4-1.8.8h-.1c-2.4 1.6-4.2 4.9-4.7 7.4-.6 2.7-.2 4.8 1 6.1.5.5 1.1.8 1.6 1 1.5.4 3.2-.2 4.5-1.3 3-2.6 5.2-7.6 3.5-12z"/>
     </g>
     <g id="g437">
       <g id="g435">
         <g id="g433">
           <path id="path431" fill="#b4b4b4" fill-opacity=".2" d="M377.4 647c2.8 4.8 9.6 7.7 14.8 9 6.5 1.7 13.4 1.7 19.8-.3 10.6-3.3 22.7-13.5 23.6-25.3.1-.7-.9-.8-1.2-.3-3 4.8-5.1 9.4-9.2 13.5-4.1 4-9.3 7.2-14.8 8.8-5.6 1.6-11.6 1.8-17.3.5-5.6-1.3-10-4.5-15.2-6.4-.4-.1-.7.3-.5.5zm-8.1-15.7c-3.6 4.4-6.7 10.8-6 16.7.6 5.1 4.4 6.7 8.9 7.4 8.1 1.3 14.5 6.3 22.3 8.2 6.6 1.6 13.6 1.5 20.1-.5 6.1-1.9 11.6-5.3 16.1-9.9 5.2-5.4 7.9-12.3 11.7-18.6 3.1-5.1 5.3-10.1 1.7-15.7-2.9-4.5-8.6-7.1-13.9-6.7-1.2.1-1.7 2.1-.3 2.3 6 1 13.2 3.1 13.4 10.6.1 5-4.9 10.3-7.3 14.5-5.6 9.8-12.6 17.8-23.9 20.8-5.5 1.4-11.3 1.5-16.8.2-4.9-1.2-9.2-3.8-13.8-5.7-4.3-1.7-10.1-1.4-13.5-4.4-3-2.6-2.2-6-1.1-9.5.9-3 2.3-5.9 3.8-8.6.6-.8-.7-1.9-1.4-1.1zm54.5-10c-.4 2.6.4 5.1 1.4 7.5.7 2 1.4 4.5 3.5 5.3.3.1.6-.1.7-.4.3-2-1-3.7-1.8-5.5-1-2.4-1.6-5-3.1-7.1-.2-.1-.6-.2-.7.2zm1.8 7c.8 1.3 2.3 1.2 3.6 1.3 1.9.1 3.8-.1 5.7-.3 1.7-.2 1.8-2.8 0-2.7-1.8.1-3.5.2-5.3.2-1.3 0-2.8-.4-3.8.7-.3.2-.3.5-.2.8zm-42.4 12.4c-1.1.6-2 1.7-3 2.6-1 .9-2.1 1.8-3.1 2.6-1.2.9.4 3 1.6 2.1 1.2-.8 2.3-1.7 3.3-2.6 1-.9 2.2-1.8 2.8-3.1.6-1-.5-2.2-1.6-1.6zm-1.5-6.7c.6 2.5 1.3 5 1.8 7.6.4 2.2.1 5.1 1.5 6.9.4.6 1.4.7 1.8 0 1.3-2.2.2-5.3-.5-7.7-.8-2.6-2.1-5.1-3.9-7.2-.3-.3-.8.1-.7.4zm16-13c3.5.4 7.4-1.5 10.3-3.3 2.3-1.4 6.1-3.7 6.3-6.6 0-.3-.3-.4-.5-.4-1.3.3-1.7.9-2.7 1.8-1.4 1.3-2.9 2.5-4.5 3.6-2.8 1.8-6.1 2.7-8.9 4.4-.3.1-.2.4 0 .5zm5.7-17.9c.6.4 1.2.9 1.7 1.5.5.5 1.6 1.4.5 2-.9.5-2.1.3-2.7 1.2-.1.1 0 .2 0 .3 1.1 1 3.8-.2 4.2-1.5.5-1.7-2.3-3.3-3.5-4-.2-.2-.5.3-.2.5zm7.4-23.2c-3.3 3 1.4 11.2 5.6 8.3 1.8-1.3 2.6-3.9 2.1-6-.3-1.5-1.7-4.2-3.6-3.7-.5.2-.7.8-.3 1.2.7.8 1.2 1.3 1.4 2.3.3 1.2.3 2.8-.5 3.8-1.3 1.6-2.7-1-3.1-2.1-.4-1.1 0-2.1 0-3.2 0-.8-1-1.1-1.6-.6zm.9.2c-.7 1-.9 2.3-.7 3.4.2 1.1.8 2.2 1.6 3.1.5.6 1.3 1.3 2.2 1.1.8-.1 1.3-.7 1.7-1.3.9-1.5 1.1-3.2.6-4.7-.3-.9-.9-2.4-2-2.5m-6.8 11.1c2.7.4 5.2-.2 7.8-1 1.9-.6 5-1.1 5.7-3.2.1-.3-.1-.7-.5-.8-1.9-.6-4.1 1.2-5.9 1.8-2.4.8-4.8 1.3-7.2 2.3-.2.2-.4.8.1.9zm-30 9.2c2.5.8 5.2.4 7.8-.1 2.1-.4 5.3-.8 6.4-2.9.2-.4 0-.9-.4-1-2-.5-4.2 1-6.1 1.6-2.5.7-5.1.8-7.6 1.5-.6.2-.5.8-.1.9zm27.3-16.5c2.5-.6 4.9-1.7 7.4-2.4 2-.5 4.6-.4 6-1.8.3-.3.2-.8-.1-1-2-1.2-4.9.1-6.9.8-2.4.8-4.9 1.8-6.8 3.7-.3.3 0 .8.4.7zm-24 5.8c.3-.1.6-.2.9-.2-.3-.1-.7 0-.9.2-2.9 3.2 1.5 12.8 5.9 9.5 2-1.5 2.5-4.7 1.8-7-.4-1.6-1.7-4.3-3.7-3.9-.6.1-.6.8-.3 1.2 1.5 1.8 2.9 5.2 1.2 7.4-1.3 1.7-2.5-1.2-3-2.3-.6-1.5-.3-2.7-.4-4.2.1-.8-.9-1.3-1.5-.7zm.9.2c-.7 1.2-.8 2.6-.5 3.9.3 1.3.9 2.5 1.7 3.6.5.7 1.3 1.5 2.2 1.4.8-.1 1.3-.8 1.7-1.4.9-1.6 1-3.6.4-5.4-.4-1.1-1-2.8-2.2-3m-9.3 3.9c2.5-.7 4.8-1.9 7.2-2.6 1.9-.5 4.7-.3 6.1-1.8.3-.3.2-.8-.1-1-1.9-1.3-5 .1-7 .8-2.5.9-4.9 1.9-6.7 3.9-.3.3 0 .8.5.7zm43.1-21.5c-2.8-2-6.9-1.3-9.9-.1-2.6 1-6.6 3.2-7.1 6.3-.1.7.5 1.2 1.1.9 2.6-1.4 4.1-3.9 7-5 2.9-1.1 5.7-.7 8.6-1.1.5-.1.7-.7.3-1zm-30.9 10.3c-2.8-2-6.9-1.3-9.9-.1-2.6 1-6.6 3.2-7.1 6.3-.1.7.5 1.2 1.1.9 2.6-1.4 4.1-3.9 7-5 2.9-1.1 5.7-.7 8.6-1.1.6-.2.7-.7.3-1zm28.6-44.9c3.3 14.5 8.3 28.6 12.5 42.8 1.7 5.6 2.4 11.9 4.9 17.3 2 4.3 4.4 5.5 9 5-.2-.6-.5-1.2-.7-1.7-1.1 1-1.3 2.6-2.4 3.6-.7.6 0 2.1 1 1.7l4.5-1.8-1.2-1.5c-1.6 1.8-2.2 4.1-4 5.8-2.9 2.8-8 5.4-12.2 4.6-1.6-.3-2.3 2.1-.7 2.5 3.9.9 7.8-.6 11.1-2.6 1.8-1.1 3.6-2.6 4.8-4.4.9-1.3 1.2-3.3 2.3-4.5.6-.6 0-2-.9-1.6-1.4.5-2.9 1.1-4.3 1.7.3.6.7 1.1 1 1.7 1.1-1 1.3-2.6 2.4-3.5.6-.6.2-1.8-.7-1.7-7.4.8-8.6-7.7-10.1-13.2-1.6-5.6-2.9-11.3-4.5-16.9-3.1-11.1-6-22.6-10.4-33.4-.4-1.1-1.6-.8-1.4.1zm-66.8 68.2c.7.4 1.4.7 2.1 1.1.5.3 1.1.9 1.8.9.1 0 .3-.1.2-.2-.1-.8-.9-1.2-1.5-1.6-.8-.4-1.6-.7-2.5-.7-.2 0-.3.4-.1.5zm-2.6-3.5c1.8.1 3.3 1.1 4.6 2.3.6.6 1.6 2 .3 2.5-.6.3-2-.2-2.5-.6-.3-.2-.7 0-.6.3.4 1.7 1.4 3 3.3 2.5 1.6-.4 2.6-1.9 2.3-3.6-.3-1.8-2-3-3.4-3.9-1.3-.8-3.1-1.6-4.4-.3-.1.4.1.8.4.8zm8.8 8.8c-5.1 1-9.4-1.4-10.8-6.6-.7-2.7-.9-6.9 3.6-5.8 2.1.6 4.1 2.2 5.6 3.8.8.8 2.4 0 2-1.1-.6-1.6-.8-3.4-1.9-4.8-.3-.5-1.2-.5-1.4.2-.4 1.9.3 3.5 1 5.3.7-.4 1.3-.8 2-1.1-2.3-2.4-6.1-5.2-9.7-5-3.5.2-4.3 4-4.1 6.8.5 6.6 7.4 14.6 14.4 10.2 1-.7.4-2.1-.7-1.9zm63.1-53.1c2 12.9 8 24.8 10.4 37.5 2.4 12.7-5.3 25.1-13 34.7-9.6 11.9-23.8 6.2-36.3 3-6.2-1.6-14.2-2.3-18.1-8-2.6-3.9-3.7-8.6-6.6-12.4-.9-1.2-3-.1-2.1 1.2 3.3 4.7 4.1 10.9 8 15.1 4.2 4.4 11.4 5.1 17 6.5 11.5 2.8 26.3 8.8 36.4-.5 4.6-4.2 7.8-10.3 10.9-15.6 3-5.2 5.6-10.9 5.9-17 .4-7.6-2.6-15.1-4.6-22.2-2.2-7.6-4-15.4-7.2-22.6-.2-.5-.8-.1-.7.3zm-22.5-5.2c-2.9-2-5.7 1.1-7.3 3.3-2.1 2.8-5.9 8.4-4.6 12 .2.5.7.6 1.2.3 2.2-1.7 2.8-5.4 4.2-7.8 1.5-2.8 3.1-6.1 6.4-6.7.5-.1.5-.9.1-1.1zm-20.8 5.6c-4.1-2.5-6.4 3.5-7.9 6.2-1.6 2.8-3.3 5.6-4.8 8.5-1.1 2-2.5 3.9-2 6.2.1.5.6.6 1 .4 3-1.4 4.3-6 5.7-8.8 1.9-3.8 3.8-10.4 8-12 .1-.1.2-.4 0-.5zm-13-14.6c-9.9 1-13.2 10.4-16.4 18.4-3.6 9.3-10.1 20.3-4.9 30.2.6 1.2 2.5.9 2.9-.4 1.5-5.7 3.3-11.7 8.2-15.5-.8-.6-1.6-1.3-2.5-1.9-2.6 7.6-1.7 15.5 2.5 22.3 1 1.6 3.5.6 3.1-1.3-1.2-4.5-.8-8.8 1.3-13-1-.1-2-.3-3-.4.1.4.1.8.2 1.3.2 1.3 1.9 1.5 2.8.7 2.8-2.5 5.5-5.1 7.9-8.1-1-.4-2-.8-3-1.3-1 3.6-2.8 6.6-5 9.6-.8 1.1.5 2.9 1.9 2.4 11.2-4.1 20.9-10.8 28.6-19.9-.9-.5-1.8-1-2.7-1.6-.4 1.3-.9 2.6-1.3 3.9-.4 1.1.8 2.3 2 2 5.2-1.7 9.7-4.4 13.7-8.1-.9-.5-1.8-1-2.6-1.5-.7 2.2-1.4 4.3-2.1 6.5-.5 1.4 1.2 2.4 2.3 1.8 8.1-4 14.2-12.1 16.2-20.8h-3c1 5.2 2.2 10.2 4.7 14.8.6 1 2.1 1 2.7 0 1.2-2.1 2.5-4.3 3.7-6.4 1-1.7-1.7-3.3-2.7-1.6-1.3 2.1-2.5 4.3-3.8 6.4h2.7c-2.3-4.4-3.4-9.2-4.3-14.1-.3-1.5-2.7-1.4-3 0-1.8 8-7.4 15.2-14.8 18.9.8.6 1.5 1.2 2.3 1.8.7-2.2 1.4-4.3 2.2-6.5.5-1.6-1.6-2.6-2.6-1.5-3.6 3.4-7.6 5.8-12.3 7.3l2 2c.4-1.3.9-2.6 1.3-3.9.5-1.5-1.7-2.8-2.7-1.6-7.3 8.7-16.5 15.2-27.2 19 .6.8 1.2 1.6 1.9 2.4 2.3-3.2 4.2-6.5 5.3-10.3.6-1.9-2-2.7-3-1.3-2.1 2.8-4.7 5.1-7.4 7.5.9.2 1.9.5 2.8.7-.1-.4-.1-.8-.2-1.3-.2-1.4-2.4-1.6-3-.4-2.5 5-3.1 10.1-1.7 15.6 1-.4 2-.9 3.1-1.3-3.8-6.1-4.5-13-2.1-19.7.5-1.3-1.3-2.8-2.5-1.9-5.7 4.4-7.7 10.8-9.5 17.5 1-.1 1.9-.3 2.9-.4-4.3-8.1 1.2-17.5 4.1-25.1 3-7.6 5.6-17.7 14.6-20 .7-.2.5-2-.6-1.9zm35.1-23.1c1.3-3.6-1.4-8-4.3-10-.3.6-.5 1.2-.8 1.8 3.9 1.3 6.5 4.1 8.1 7.8.2.5.9.5 1.3.2 3-3.1 7.8-3.3 11.1-.6.3-.6.5-1.3.8-1.9-4.2.3-7.7 2-10.7 4.9-.9.9.1 2.2 1.2 2 .5-.1 1.6-1.1 1.8-1.1 2.1-.1 4.6 4.2 5.6 5.6 2.2 3.1 4.4 6.2 5.6 9.7.6-.3 1.3-.5 1.9-.8-1.1-1.6-1.9-2.2-3.9-2.6-1.2-.3-1.8 1.6-.5 1.9.9.6 1.7 1.2 2.6 1.8.6 1 2.3.4 1.9-.8-1.5-4.7-4.4-9-7.5-12.9-1-1.3-3.2-4.5-5.1-4.7-1.8-.2-1.7 1.4-3.1 1.6.4.7.8 1.3 1.2 2 2.5-2.5 5.4-4.1 9-4.4.8-.1 1.6-1.2.8-1.9-4.4-3.5-9.9-3-13.8 1 .5.1.9.2 1.4.4-1.3-4.7-4.5-7.7-9.1-9.1-1.1-.4-1.7 1.2-.8 1.8 3 2 3.8 5.1 4.9 8.3.1.1.3.1.4 0zm-19.6-4.6c-1.3-.9-2.6-1.7-4.1-2.4-.2.6-.3 1.2-.5 1.8 4.5 0 9-.2 13.4.7 3.6.7 6.5 2.6 9.9 3.7 1 .3 1.4-.9.9-1.5-5.1-6.3-17.1-5.3-24.2-4.8-1.1.1-1.2 1.5-.3 1.9 1.5.6 2.9 1 4.5 1.5.5 0 .8-.7.4-.9zm-17.4 6.2c-2-2.6-5-2.6-8-1.6.3.8.7 1.6 1 2.4 3.6-1.8 7.2-3.7 11-4.8 4-1.2 7.8-.5 11.9-.8.8-.1 1.2-1.1.4-1.6-7.3-4.5-18.1 1.5-24.7 5-1.5.8-.2 2.9 1.3 2.2 2.4-1 4.3-.5 6.7-.2.3 0 .6-.4.4-.6zm.1.1c-8.7 1.8-16.3 8.4-21.9 15.1-.6.7-.1 2 1 1.7 2.1-.6 4.2-1.3 6.3-1.9 1.2-.4.7-2.2-.5-1.9l-6.3 1.8c.3.6.7 1.1 1 1.7 5.9-7 13.1-11.2 20.6-16.2.2 0 0-.3-.2-.3zm-26.3 64.6c-4.2 10.7 2.2 23.8 5.3 34 .3 1.1 2 1.1 2.3 0 .5-1.6.9-3.2 1.4-4.7h-2c2 5.1 4.7 18.3-5.4 16.4-1.6-.3-2.3 2.1-.7 2.5 1.8.4 3.5.6 5.4.7-.3-.6-.7-1.2-1-1.7-.8 1-1.7 2.1-2.5 3.1-.8.6-.4 1.9.7 1.7 2.7-.7 5.4-1.3 8.1-1.9-.3-.5-.6-1-.8-1.4-1.1.7-2.2 1.3-3.2 2-1 .3-.9 2.1.3 1.9 2.3-.3 4.4-.8 6.6-1.7-.3-.5-.7-.9-1-1.4-1 .6-1.9 1.2-2.9 1.9-1.1.1-1.2 1.8 0 1.8 8.6-.4 17.8-.9 24.7-6.8.9-.8-.4-2-1.3-1.3-6.8 5.3-15.1 6-23.4 6.3v1.8c2.1-.2 3.3-.9 4.5-2.7.4-.6-.3-1.7-1-1.4-2.1.8-3.8 1.3-6.1 1.5.1.6.2 1.3.3 1.9 1.6-.7 2.7-1.3 3.9-2.6.6-.6 0-1.6-.8-1.4-2.7.6-5.4 1.2-8.2 1.8.2.6.5 1.1.7 1.7 1.6-1 2.6-1.9 3.6-3.5.5-.8-.2-1.7-1-1.7-1.6-.1-3.2-.4-4.7-.8-.2.8-.5 1.7-.7 2.5 3.9 1 7.6-.8 9.4-4.4 2.5-4.9.4-10.3-1.3-15-.4-1-1.7-1-2 0-.5 1.6-1.1 3.1-1.6 4.7h2.3c-3.1-11-6.8-21.6-6.3-33.2-.2-1.2-1.3-1.3-1.6-.6zm10.9-50.5c-4.1 1.6-8.5 4.1-10.6 8.1-1.6 3-2.9 6.7-4.3 9.8-.4.9.9 1.5 1.6.9 1.7-1.5 3.5-2.8 5.3-4.2-.5-.4-1-.7-1.4-1.1-2.3 8-7.3 14.4-10.5 22-.4.9.3 2.2 1.4 1.8 3.1-1.1 5.2-2.8 6.8-5.8-.7-.2-1.5-.4-2.2-.6.8 9.1-1.6 17.6-6.9 25-.6.9.4 2 1.4 1.8 9.1-2.4 14.6-11.5 18.3-19.5.6-1.4-1.4-2.6-2-1.2-3.4 7.4-8.5 16.2-16.8 18.4.5.6.9 1.2 1.4 1.8 5.6-7.7 8-16.7 7.2-26.2-.1-1.1-1.6-1.7-2.2-.6-1.2 2.2-3 3.8-5.4 4.6.5.6.9 1.2 1.4 1.8 3.3-7.7 8.4-14.4 10.3-22.7.2-1-.9-1.6-1.6-1-1.7 1.5-3.4 2.9-5.2 4.2l1.3 1.3c.9-1.9 2.2-3.6 3-5.5 1.1-2.7 1.7-5.2 4-7.4 1.9-1.9 4.3-3.3 6.5-4.9-.1-.2-.3-1-.8-.8z"/>
         </g>
       </g>
     </g>
     <path id="path439" fill="#b4b4b4" fill-opacity=".2" d="M490.5 880.7c2.3-6.5 3.1-16.7-.5-23.4.7-.3 1.3-.6 2-.9 1.2-.6.8-2.2-.4-2.4-9.3-1.6-18.9 1-27.7 3.9s-17.2 6.8-25 11.8c-11.6 7.5-28.8 21-23.6 36.7.5 1.4 2.5.6 2.4-.7-1-6.9 5.3-13.2 9.9-17.4.3-.3.6-.6.9-.8.1.7.2 1.5.2 2 .2 2.5.1 5.4 1.1 7.8-2.7 2.4-5.2 4.9-7.8 7.4-.6.6.1 1.5.8 1 3-2.1 6-4.2 8.9-6.4.5 0 1-.3 1.3-.7 2.9 2.4 7 3.3 10.5 4.6 1.8.7 3.6 1.3 5.3 1.8-9.4 2-19.2 2.6-28.7 3.5.3-.6-.3-1.4-1-1.1-1 .4-2.1.9-3.1 1.5h-.2c-.6.1-1 .4-1.2.8-7.2 4.3-13.9 11.5-16.7 19.1-.3.9.9 1.9 1.6 1.1 3.4-3.5 6.2-7.5 9.7-11.1 2.2-2.3 4.6-4.4 6.9-6.5 19.5 1.9 40.7 1.1 57.4-10.4 7.4-5.1 13.9-12.5 17-21.2zm-3.1-12.3c-.1 3.1-.7 6.1-1.8 9.1-4-.8-7.8-1.3-12-1.5-4-.1-7.8.1-11.7.5 8-5.9 16.1-11.6 24.2-17.3.6 3 1.4 6 1.3 9.2zm-19.2-4c3.3-1.2 6.6-2.1 10-3.1-6.5 4.2-13 8.5-19.4 12.9.5-1.6.9-3.2 1.2-4.9.1-.6.3-1.2.4-1.9 2.6-1.1 5.2-2.1 7.8-3zm-21.2 9.7c3-1.7 6-3.3 9.1-4.8-.4 2.5-.6 4.8-.7 7.3-3.2 2.3-6.4 4.7-9.5 7.1.4-2 .2-4.2.1-6.3 0-.9-.1-1.8-.2-2.7.4-.1.8-.4 1.2-.6zm-13.9 15c-.2-1.3-.2-3.4-.7-5 3.2-2.6 6.6-5 10-7.2 0 1.1-.1 2.1-.1 3 .1 2.1.1 4 1 5.8-3.3 2.6-6.5 5.3-9.6 8-.2-1.5-.5-3.1-.6-4.6zm33.4 9.6c-3.6 2-7.3 3.5-11.1 4.7-3.1-1.7-6.2-3.2-9.7-4.4-3.1-1-6.6-2.5-10-2.6l9.9-7.5c8.3 3.9 16.7 6.4 25.6 7-1.6 1-3.2 1.9-4.7 2.8zm8.3-5.8c-9-2.3-18-4-27.1-5.8 2.3-1.8 4.6-3.5 6.9-5.2l4.5-3.3c8.5.4 17 .7 25.5 1.2-.2.4-.3.7-.5 1.1-2.1 4.6-5.4 8.6-9.3 12z"/>
     <g id="g459">
       <g id="g457">
         <g id="g455">
           <path id="path453" fill="#b4b4b4" fill-opacity=".2" d="M1561.7 85.4c3.8 10.1.6 19.4-3.2 28.9-.8 1.9 1.9 3 3.2 1.9 8.8-8.1 7.4-22 1.5-31.4-.5-.8-1.8-.4-1.5.6zm-24.3 67.8c-3.3-6.2-9.3-10.6-13.4-16.2-4.4-6.1-7-13-8.3-20.4-2.6-14.7 3.2-30.1 14.1-40.2 11-10.2 30-14.4 42.1-3.7 12.7 11.3 11.5 30.2 3.4 43.7-5.1 8.5-12.5 15.4-20.6 21.1-8 5.5-16.4 9.8-23.9 16.1-1.8 1.5.1 4.5 2.3 3.9 19.2-5.5 38.4-20 48.2-37.6 8.7-15.5 9.8-36.2-2.2-50.4-12.1-14.4-33.4-14.4-48.9-5.9-16.5 9-26.7 27.2-27.3 45.8-.3 10.6 3 20.9 9 29.6 5.3 7.7 14.1 17.7 24.5 16.3.8-.2 1.5-1.1 1-2.1zm-38.3 128.2c2.3-9.5 6.9-19 11.1-27.8 4.3-9 9.7-17.7 13.3-26.9 8.8-22.7-4.5-50.9 13.5-70.5.9-1-.3-2.8-1.5-1.9-22.7 15.4-12.9 46.1-19.5 68.6-2.9 10.1-8.6 19.7-12.7 29.3-3.7 8.8-9.4 19.5-7.7 29.3.4 1.6 3.2 1.5 3.5-.1z"/>
         </g>
       </g>
     </g>
     <g id="g527">
       <g id="g525">
         <g id="g523">
           <path id="path521" fill="#b4b4b4" fill-opacity=".2" d="M714.4 955.1c1.3-1.7 2.3-3.9 1.6-6-.2-.6-.9-.5-1.1 0-.7 1.7-.9 3.5-2 5.1-.6 1 .9 1.8 1.5.9zm-5.7 2.7c.5-1.4 1-2.9 1.5-4.3.2-.6-.8-1.1-1.1-.5-.6 1.4-1.2 2.8-1.8 4.1-.5 1.1 1 1.8 1.4.7zm-8.5 3.5c.8-1 1.7-2 2.5-3s1.3-2 1.8-3.2c.3-.6-.4-1.2-.9-.7-1 .8-1.8 1.6-2.5 2.7s-1.4 2.2-2.1 3.2c-.5.8.6 1.7 1.2 1zm31.7 43.5c7.8 0 14.4-3.5 18.2-10.4.4-.8-.6-1.5-1.2-.9-4.9 4.4-10.8 8.4-17.1 10.6-.4.1-.4.7.1.7zm-12.4-9.3c10.4-1.9 20.6-6.5 26.3-15.7.4-.7-.5-1.3-1.1-.8-7.8 6.5-15.5 12.7-25.5 15.6-.6.2-.3 1 .3.9zm11-15.2c9.5 13.1 17.8 27.1 27.5 40 .4.5 1.1.1.8-.5-6.3-14.9-16.5-28.4-26.6-40.8-.8-1-2.4.3-1.7 1.3zm-7.8 1.2c9.2 9.9 16.9 21.2 25.8 31.4.5.5 1.2-.1.9-.7-6.3-12.2-16.3-22-26.5-30.9-.2-.2-.4.1-.2.2zm-7.9 2.5c9.7 11.1 20.7 21.4 31.3 31.7.5.4 1.3-.2.9-.7-8.8-11.9-19.1-23.7-31-32.5-.9-.7-1.9.8-1.2 1.5zm-8.2 2.1c-13.1-6.8-14.6-25-3.2-34.2 5.5-4.5 12.8-6.1 19.7-4.3 7.5 2 12.6 7.2 16.8 13.5.4.6 1.5.2 1.2-.5-5.9-15.5-26.6-20.6-39.5-10.6-12.9 10.2-11.3 30.7 4 37.7 1.2.3 2-1.1 1-1.6zm-.4 1.7c6.2-.5 12-2 17.3-5.4 4.6-3 10.7-7.3 12-12.9.4-1.8-1.6-3.6-3.3-2.5-4.4 2.7-7.2 7.5-11.5 10.5-4.6 3.2-9.5 6-14.8 7.8-1.3.4-1.2 2.6.3 2.5zm-2-2.1c9.6 10.3 21.1 19 32 28 5.5 4.5 10.9 9.2 16.6 13.4 3 2.3 7.2 3.7 9.9.1 3-4 0-9.6-1.4-13.6-2.4-6.8-4.9-13.5-7.3-20.3-2.3-6.5-4.8-12.8-7.3-19.2-2.2-5.7-4.1-12.9-8.3-17.5-.7-.7-1.8-.1-1.8.8-.2 5.1 2.1 10.7 3.6 15.5 1.7 5.3 3.4 10.5 5.1 15.8 3.6 11 7.5 22 11.6 32.9.2.6 2.2 2.1.2.3-1-.9-2.2-1.7-3.3-2.5-2-1.6-4.1-3.1-6.1-4.6-4.6-3.5-9.3-7-13.9-10.5-9.2-6.9-18.5-14.2-28.5-19.8-.9-.6-1.8.5-1.1 1.2z"/>
         </g>
       </g>
     </g>
     <g id="g537" transform="translate(71.868 -36.843)">
       <path id="path535" fill="#b4b4b4" fill-opacity=".2" d="M705.5 184.1c-.9-.5-1.9-.4-2.7.1-.7.4-1.2 1.1-1.2 2 0 .2.1.4.1.6.1.8.6 1.4 1.3 1.8 1.2.7 2.8.2 3.5-1 .7-1.3.3-2.9-1-3.5zm-3.7 6.9c-1.2-.7-2.8-.2-3.5 1-.7 1.2-.2 2.8 1 3.5.1 0 .1.1.2.1.3.2.7.4 1.2.4.7 0 1.4-.4 1.8-1 .1-.1.2-.3.3-.5.7-1.3.3-2.9-1-3.5zm-3.7 6.9c-.3-.1-.6-.2-.8-.3-.2-.1-.5-.1-.7-.1-1.4 0-2.8 1.3-2.7 2.7.1 1.5 1.2 2.7 2.7 2.7.7 0 1.4-.3 2-.8.3-.2.5-.5.7-.8.5-1.2.1-2.8-1.2-3.4zm69.5-51.2c-3.9-4.1-9.8-6.7-14.8-9.4-5.3-2.9-10.7-5.8-16.1-8.6-5.4-2.9-10.8-5.6-16.2-8.4-4.9-2.5-10.7-6.7-16.2-7.6-2.7-.4-5 1.4-6.4 3.5-.9 1.4-3 5.6-.8 6.7 2.1 1.1 4.1 2.2 6.2 3.3 1.8 1 2.5.9 1.6 2.9-1 2.2-2.5 4.3-3.5 6.5-4.9 10.8-11.2 34.4 2.5 41.8-4.6-2.5-10.1-1.5-14.7.6-4.9 2.2-9.2 5.4-12.7 9.5-2.5 2.9-4.6 6.2-6.7 9.4-.6.9-5.6 10-5.6 10l-9.5-5.1c-1-.5-2.2-.2-2.8.8-1 1.8-4.1 5.7-2.7 7.7.5.7 1.2 1.2 2 1.6 4.2 2.5 8.6 4.5 12.8 7 4.8 3 9.7 5.9 14.5 8.8 2.8 1.7 5.5 3.5 8.4 5.1 2.7 1.5 5.7 2.5 8.5 3.9 6.2 3.1 11.8 7.8 18.9 8.6 2.4.3 3-1.7 4-3.5.5-.9 1-1.8 1.5-2.8.5-1 .2-2.2-.8-2.8l-9.5-5.1c.3.2 7-14.4 7.6-15.8 2.3-5.7 3.5-11.2 3.1-17.4-.4-6.1-2.3-13.2-8-16.3 13.2 7.1 27.9-6.9 35.1-16.6.9-1.2 8.3-10.9 6.2-12.1 2 1.1 7.7 5.4 9.8 4.2.6-.3 1-.9 1.4-1.4.9-1.1 1.8-2.2 2.6-3.3 1.3-1.7 2.1-3.8.3-5.7zm-55.8 40.6c.6 1 1.1 2.1 1.6 3.2 2.3 5.8 2.6 12.2 1.3 18.3-1.3 6.3-4.8 11.9-8.1 17.4-3.1-3-7-5.1-10.9-7.2-2.1-1.1-24.8-14-25.6-12.6 1.5-2.7 3.1-5.4 4.8-8 .7-1.2 1.4-2.3 2.1-3.5.2-.4 1.2-1.4 1.2-1.9 3.3-4.6 7.6-8.9 12.8-11.3 2.5-1.2 5.3-1.8 8.1-1.6 2.5.2 4.8 1.2 7 2.4 1.6.9 3.1 1.5 4.4 2.9.5.7.9 1.3 1.3 1.9z"/>
     </g>
     <path id="path539" fill="#b4b4b4" fill-opacity=".2" d="M150.6 526.2c-7.5-1.4-11.2 5-12.5 11.4-1.2 6.2-2.3 12.4-3.4 18.6-4.7-3.1-9.3-6.4-15.1-7.1-7-.8-13.5 2.7-15.3 9.7-.8 3-.9 6.3-.8 9.7-.9.2-1.6 1.1-1.4 2.2.5 2.8 1.3 5.9 2.3 8.8 0 .3 0 .5.1.8 0 .6.4 1.1.8 1.4 1.4 3.1 3.2 5.9 5.7 8.1 4.6 4 11.9 5.7 17.6 3.1 7-3.2 8.4-11.1 9.6-17.9.5-2.9 1.1-5.9 1.6-8.8 3 1.5 6.2 2.7 9.7 3.5 3.2.7 7.3 1.7 10.5.7 3.4-1 4.9-4.1 5.8-7.3 3.6-13.1 1.2-33.9-15.2-36.9zm-17.7 39.9c-.8 4.7-1.4 9.5-2.7 14.1-1.2 4.1-3.8 6.7-8.3 6.4-6-.5-9.8-5.2-12.8-10.3.5-4.5-.4-9.1.2-13.7 1.3-9.8 10.9-8.4 17.4-4.3 2.3 1.5 4.6 2.9 6.9 4.3-.3 1.1-.5 2.3-.7 3.5zm27.3-8.8c-.3 1.6-.5 4.1-1.4 5.4-1.3 1.9-3.7 1.2-5.8.9-4.2-.7-8.3-2-12.2-3.8.7-4.1 1.5-8.2 2.2-12.2.7-3.8 1-7.9 2.3-11.5 1.7-4.7 5.7-3.4 9-.7 6.5 5.2 7.4 14.3 5.9 21.9z"/>
     <path id="path541" fill="#b4b4b4" fill-opacity=".2" d="M1283 425.1c-4.7-1.2-9.9-1.1-14.7-1.5-5.2-.5-10.4-1.2-15.6-2-9.2-1.4-19-4.8-28.3-3.6-1.9.3-2.8 2.7-2.4 4.3 1.2 4.6 4.3 8 7.8 11 2.5 2.1 5.6 4.2 7.7 6.8-8.6 3-17.6 7.3-23.6 13.9-.8.8-.9 1.8-.7 2.7-.2.3-.3.6-.5.8-.3.3-.6.5-.8.9-.1.2-.1.4-.1.5-3.2 5.3-6.4 10.6-9.5 15.9-1.8 3.1-3.6 6.2-5.5 9.3-1.8 3.1-4 6-4.7 9.6-.3 1.5 1.3 2.3 2.4 1.4 2.8-2.2 4.5-5.5 6.4-8.6 1.9-3 3.9-6.1 5.8-9.1 2.3-3.7 4.7-7.4 7-11.1.9 6.6 2.9 13.1 5.7 19.2 4 8.5 10.2 16.9 18.5 21.6 2.1 1.2 3.9-1.5 2.4-3.2-5.7-6.7-11.3-13.4-15.2-21.4-3.5-7.1-5.4-14.9-6.1-22.7h.1c2.6.5 5.3 1.6 7.7 2.8 4.9 2.5 9.8 5.2 14.7 7.8 5.1 2.7 10.2 5.3 15.3 7.8 3.3 1.6 9.5 6.2 13.2 3.9.3-.2.6-.6.6-1-.2-2.4-1.9-3.5-4-4.7-3-1.7-6.1-3.2-9.2-4.7-5.8-2.9-11.6-5.7-17.4-8.4-5.1-2.4-10.3-5.3-15.8-6.8-.9-.2-1.8-.4-2.9-.6 2.8-1.7 5.5-3.5 8.4-5 4.4-2.3 9-4.1 13.7-5.5 1.7-.5 3.2-2.5 2.5-4.3-1.8-4.6-5-7.8-8.7-10.8-2.2-1.8-4.7-3.6-6.5-5.8 3.2.3 6.4 1.2 9.5 1.7 4.6.8 9.2 1.6 13.8 2.3 4.5.6 8.9 1.2 13.4 1.7 4.7.5 9.9 1.4 14.6.8 3.4-.2 4.7-4.9 1-5.9z"/>
     <path id="path543" fill="#b4b4b4" fill-opacity=".2" d="M599.5 419.8c-.1-.6-.4-1.1-.7-1.4 0-.3-.1-.6-.2-.9-1.2-3.3-5.7-5.9-8.9-6.9-8.4-2.7-17.8 1-23.4 7.4-3.2 3.5-5.4 7.7-7.1 12.1-1.5 4-4 10.2-1.5 14.3 2.4 3.8 8 4.7 12.1 5 4.9.4 10-.7 14.4-2.8 5.3-2.5 9.4-6.8 12.1-11.9 2.9 11.1 5.6 22.8.1 32.7-5.5 10-20.6 19.7-31.6 12.7-1.7-1.1-4.1 1.1-2.9 2.9 4.7 6.7 12.9 8.8 20.8 7.3 8.3-1.7 15.4-7.3 19.9-14.3 11.3-18.1.1-37.9-3.1-56.2zm-16.8 19.7c-3.4 1.9-7.4 2.8-11.3 2.7-1.8-.1-4-.3-5.7-1-2.4-1.1-1.3-3.2-.7-5.4 2-7 5.8-14.2 12.6-17.5 2.9-1.4 6.1-2 9.4-1.6 1.5.2 3.2.4 4.6 1.1.7.3 1.3.8 2 1.2-.3.5-.5 1.1-.5 1.7.1 7.6-3.6 14.9-10.4 18.8z"/>
     <path id="path545" fill="#b4b4b4" fill-opacity=".2" d="M1529.8 442.3c-10.5 5.1-21.9 9.9-33.4 12.2-5.4 1-11.6 1.8-16.9-.3-4.5-1.8-7.3-5.8-8.6-10.4-.1-.5-.2-.9-.3-1.4 7.2 5.5 19.7-.1 24.6-7 6.8-9.4 6.7-25.8-5.2-31.2-6-2.8-11.9.2-15.7 5.1-4.6 5.9-8.4 13.6-10.2 20.8-3.4 13.1 1.5 29.4 16.4 32.1 18.2 3.3 35.8-9 50.6-17.7 1.4-.9.2-2.9-1.3-2.2zm-50.2-29.1c3.4-4.7 8.4-5 12-.3 2.7 3.6 3.1 8.4 2 12.7-1.2 4.7-4.3 9.1-8.7 11.5-4.1 2.3-11.1 2.9-13.9-1.8-.2-.3-.4-.6-.6-.7 1-7.7 5-15.5 9.2-21.4z"/>
     <path id="path547" fill="#b4b4b4" fill-opacity=".2" d="M1070.7 916.6c-1.4-5.6-6.1-8.5-10.9-10.8-6.3-3-12.7-6.1-19-9.1-4.4-2.1-11-4.7-10.7-10.6.3-5.8 5.8-10.9 10.4-13.8 5.7-3.6 10.7-3.6 17.1-2.2 1.6.3 2.7-1.2 2-2.6-4.5-9.3-18.7-4.7-25.2-.5-8.4 5.5-16.1 16.6-11.1 26.7 2.3 4.7 6.9 7.6 11.4 9.9 5.9 3 12 5.9 17.9 8.9 3.6 1.8 11.1 4.1 8.4 9.5-2.1 4.3-8.2 6-12.7 6.3-9.5.7-20.1-2.8-25-11.4-.9-1.6-3.6-1-3.5.9 1.4 21.7 31.9 27.5 46 14.1 4.2-3.8 6.3-9.7 4.9-15.3z"/>
     <path id="path549" fill="#b4b4b4" fill-opacity=".2" d="M1625.5 632.4c-6.9-3.6-13.4-6.7-19-12.1-1.3-1.2-2.4-2.5-3.5-3.8-1.4-6.3-4.6-12.3-8.8-17.4-2.3-2.8-6.5.2-5.8 3.3 1.4 6.5 4.2 12.5 8.2 17.8.4 3.6 0 7.2-1.4 10.6-3.2 7.9-11.8 14-20.4 11.3-3.8-1.2-7.2-3.9-8.9-7.6-2-4.4-.5-9.3 1.2-13.5 1.6-4.2 3.6-8.8 7-11.8 2.9-2.6 9.1-3.6 11.5.3.8 1.3 2.7.5 2.4-1-2-9.7-14.1-9-19.9-3.2-3.7 3.6-5.9 8.6-8 13.3-2.2 5.1-3.6 10.5-2.3 16 2.4 9.4 12.2 16.4 21.8 16 10.1-.4 18.5-7.7 22.2-16.8.8-2.1 1.4-4.1 1.7-6.2 5.8 4.9 13.5 8.9 21.1 8.6 1.7-.3 2.7-2.9.9-3.8z"/>
     <g id="g2235" stroke="#e3e3e3" transform="matrix(.11449 0 0 .11449 908.956 448.306)">
       <circle id="circle2200" cx="436.87" cy="436.88" r="428.88" fill="none" stroke-width="16"/>
       <path id="path2202" fill="#e3e3e3" stroke-width="4" d="M325.8 296.2a10.85 10.85 0 01-1.34.42c-.4.07-.81.18-1.21.22a21 21 0 01-2.36.19 26.82 26.82 0 01-4.59-.33 42.7 42.7 0 01-8.64-2.37 77.61 77.61 0 01-15.4-8.59c-4.73-3.34-9.22-6.85-13.76-10.23-4.54-3.38-9.09-6.66-13.8-9.65a117.24 117.24 0 00-30-14 105.71 105.71 0 00-16.11-3.44c-1.36-.15-2.72-.35-4.09-.46l-2-.17-1-.09a3.79 3.79 0 00.39 0 3 3 0 001.22-.31 2.7 2.7 0 00.89-.69 2.12 2.12 0 00.49-1 2.24 2.24 0 000-.58.74.74 0 000-.17v.32c.16.59.37 1.34.55 2.15a16.1 16.1 0 01.42 2.8 9.43 9.43 0 01-.51 3.72 7.83 7.83 0 01-2.73 3.59 10.13 10.13 0 01-3.37 1.53l-.76.17-.56.1-1.08.2-2.14.38-8.4 1.43c-2.77.49-5.53 1-8.22 1.57-1.35.28-2.68.59-3.94.92a22.06 22.06 0 00-3.28 1.08 1.51 1.51 0 11-.14.07 2.5 2.5 0 00.6-.58 4.24 4.24 0 00.28-.42 3.42 3.42 0 00.29-.63 3.89 3.89 0 00.21-.91 3.76 3.76 0 000-1.06 3.65 3.65 0 00-.25-.93 4.4 4.4 0 00-.33-.65 4 4 0 00-.3-.41c-.09-.11-.22-.23-.25-.27l-.19-.17h.05l.25.2.95.76a46.24 46.24 0 013.49 3.21 31.49 31.49 0 016 8 14.82 14.82 0 011.63 6.07 10.71 10.71 0 01-2.46 7.2l-.3.36-.16.18-.24.25a7.86 7.86 0 01-.84.72c-.45.35-.83.61-1.2.86-.73.47-1.41.88-2.09 1.27a82.81 82.81 0 01-4 2.14 106.5 106.5 0 01-16.68 6.62c-1.48.43-3 .81-4.58 1.13-.79.16-1.6.3-2.45.4l-1 .14-.84.13a10.06 10.06 0 00-1.4.33c-.36.1-.58.26-.38.13a2.27 2.27 0 00.64-.69 3.31 3.31 0 00.51-1.58 2.6 2.6 0 00-.09-.87c0-.12 0-.06 0 0a16.68 16.68 0 001.9 2.27l3 3.06c.54.57 1.1 1.18 1.69 1.9a13.69 13.69 0 011.88 2.92 8.29 8.29 0 01.76 2.89 6 6 0 010 1 5.88 5.88 0 01-.18 1.13 6.71 6.71 0 01-.99 2.25 7.55 7.55 0 01-2.57 2.4l-.57.31-.35.17-.65.29a28.86 28.86 0 01-10.22 2.12 55.07 55.07 0 01-9.44-.49c-3-.4-6-1-8.82-1.58-1.41-.29-2.83-.61-4-.83l-.71-.11h.37a4.66 4.66 0 001.56-.44 5.08 5.08 0 002.14-1.86 5.48 5.48 0 00.87-3.31 4.82 4.82 0 00-.22-1.15v.05l.1.27c.08.21.18.46.3.72.48 1.06 1.11 2.28 1.76 3.49l2 3.77a90.59 90.59 0 013.95 8.19 29.23 29.23 0 011.59 5.05 14 14 0 01.28 3.51 9.39 9.39 0 01-.37 2.43 8.12 8.12 0 01-1.51 2.78 7.68 7.68 0 01-1.23 1.19l-.24.19-.14.1-.28.2c-.37.26-.74.5-1.09.73-.72.45-1.41.86-2.09 1.24l-3.69 2a15.58 15.58 0 00-2.57 1.73 2.33 2.33 0 00-.42.45.91.91 0 00.08-.27v-.1.31c0 .23 0 .47.05.71a13.24 13.24 0 00.22 1.48 17.88 17.88 0 001 3.13c1.77 4.3 4.94 8.74 8.31 13s7.13 8.49 10.9 12.69l1.49 1.65a10.66 10.66 0 012 3.81 23.88 23.88 0 01.92 5.47c.21 3.24.1 6.15 0 9-.21 5.76-.48 11.3-.35 16.75a63 63 0 002 15.57 27.87 27.87 0 002.77 6.65 19.84 19.84 0 002 2.76c.37.42.75.82 1.14 1.21l1.52 1.49c4.07 4 8.16 7.93 12.22 12.09 2 2.1 4 4.22 6 6.65a29.16 29.16 0 012.89 4.19 13.46 13.46 0 011.21 3 8.37 8.37 0 01-1.9 8l-.31.34-.23.23-.44.43-.88.82c-1.18 1.06-2.44 2-3.36 2.8-.44.35-.8.78-.64.55a2.59 2.59 0 00.3-1.3 2.23 2.23 0 00-.37-1.24c-.08-.11-.07-.06.05.05a3.27 3.27 0 00.36.32 9.54 9.54 0 001.3.82 45.83 45.83 0 007.19 2.91c2.58.84 5.23 1.62 7.92 2.29 2.69.67 5.4 1.32 8.13 1.89 2.73.57 5.48 1.07 8.23 1.52 2.75.45 5.52.8 8.26 1a34.74 34.74 0 004.07.07 14.63 14.63 0 001.92-.22 3.84 3.84 0 001.49-.56l.15-.11a.91.91 0 011.26 1.28 5.18 5.18 0 01-2.13 1.61 14.05 14.05 0 01-2.22.79 34.44 34.44 0 01-4.43.82 69.91 69.91 0 01-8.78.4c-2.92 0-5.82-.16-8.72-.44-2.9-.28-5.79-.58-8.67-1.07-2.88-.49-5.76-1-8.65-1.75a48.23 48.23 0 01-8.78-3 17.21 17.21 0 01-2.37-1.35 12.33 12.33 0 01-1.29-1 8.63 8.63 0 01-1.36-1.56 5.88 5.88 0 01-.14-6.53 9.87 9.87 0 011.23-1.6c.38-.39.7-.69 1-1 1.23-1.1 2.2-1.89 3.11-2.77l.66-.65.31-.32.15-.16v-.06c.12-.17 0-.11 0 .05s0 .25-.08.06a5.41 5.41 0 00-.46-.94 21.53 21.53 0 00-2.06-2.75c-1.66-1.94-3.63-3.89-5.62-5.82-4-3.86-8.22-7.68-12.41-11.53l-1.57-1.44c-.64-.6-1.24-1.23-1.82-1.87a30.11 30.11 0 01-3-4.13 38.29 38.29 0 01-3.93-9 72.75 72.75 0 01-2.66-18.13c-.23-5.93 0-11.76.1-17.37 0-2.79.09-5.57-.08-8a14.15 14.15 0 00-.45-2.93c-.07-.27-.18-.31.11 0l-1.37-1.51c-3.86-4.25-7.71-8.54-11.41-13.14-1.85-2.3-3.66-4.69-5.37-7.25a48 48 0 01-4.6-8.43 30.41 30.41 0 01-1.56-5 24.43 24.43 0 01-.41-2.74c0-.47-.08-.94-.09-1.42v-.75a9 9 0 01.08-1.16 10.35 10.35 0 011.54-4.24 13.08 13.08 0 012.37-2.76 25.8 25.8 0 014.45-3.09l3.77-2.08c.57-.32 1.1-.64 1.59-.94l.68-.46.16-.11h.07a4 4 0 00-.47.45 2.9 2.9 0 00-.51.92 2.38 2.38 0 00-.07.31 3.7 3.7 0 00-.09-.73 17 17 0 00-1-3.07c-.93-2.29-2.17-4.72-3.47-7.17l-2-3.76c-.68-1.3-1.37-2.6-2.07-4.13-.17-.39-.35-.79-.53-1.25l-.26-.73-.07-.2a6.06 6.06 0 01-.28-1.4 5.83 5.83 0 01.92-3.57 5.57 5.57 0 012.35-2 6.42 6.42 0 011.3-.44 6.66 6.66 0 01.77-.12h.9a8.73 8.73 0 011.07.08c.56.06 1 .14 1.4.22 1.62.31 3 .62 4.34.92 2.72.6 5.36 1.12 8 1.48a43.87 43.87 0 007.57.46 18.58 18.58 0 006.42-1.21l.32-.14.13-.06h-.09a3 3 0 00-1 1 3.89 3.89 0 00-.62 2.3 2 2 0 00.2.86 6.58 6.58 0 00-.46-.65 19 19 0 00-1.14-1.28l-3-3.08c-.54-.57-1.08-1.18-1.65-1.87a17.88 17.88 0 01-1.74-2.52 10 10 0 01-.85-1.92 8.36 8.36 0 01-.42-3 7.45 7.45 0 011.14-3.6 8 8 0 012.12-2.2 11.63 11.63 0 013.48-1.64 20.54 20.54 0 012.76-.62l1.26-.18 1.09-.12c.56-.06 1.16-.15 1.76-.26 1.21-.22 2.46-.52 3.72-.86a96.37 96.37 0 0015.09-5.71c1.22-.58 2.42-1.17 3.55-1.78.56-.3 1.11-.61 1.57-.9.23-.15.44-.28.55-.37.11-.09.11-.08 0 0l-.05.06.05-.05a.73.73 0 00.2-.28.87.87 0 00.08-.39 5.4 5.4 0 00-.58-2.11 22.37 22.37 0 00-4.07-5.65 37.59 37.59 0 00-2.72-2.64l-.69-.59-.18-.14-.15-.13-.39-.33c-.11-.1-.28-.29-.44-.47a7.17 7.17 0 01-.46-.62 6.06 6.06 0 01-.45-.88 5.51 5.51 0 01-.32-1.19 5.38 5.38 0 010-1.33 5.6 5.6 0 01.27-1.16 5.2 5.2 0 01.41-.88 4.47 4.47 0 01.43-.63 6.13 6.13 0 011.38-1.3 10.22 10.22 0 011.73-1 31.58 31.58 0 014.85-1.49c1.5-.34 2.95-.63 4.4-.89 2.89-.53 5.74-1 8.58-1.38l8.46-1.19 2.08-.3 1-.16.5-.08h.28a2.5 2.5 0 00.52-.16s-.16.2-.15.26a1.07 1.07 0 000-.48 7.2 7.2 0 00-.18-1.41c-.11-.58-.27-1.21-.46-2l-.06-.31v-.16l-.07-.42a6.07 6.07 0 010-1.65 6 6 0 011.31-3 5.27 5.27 0 011.7-1.36 5 5 0 011.28-.44 5.71 5.71 0 01.71-.08h.66l1.09.13 2.19.26c1.46.16 2.91.42 4.37.63a112.79 112.79 0 0117.11 4.22 123.83 123.83 0 0131.2 15.76c4.78 3.26 9.37 6.77 13.84 10.34 4.47 3.57 8.84 7.2 13.31 10.56a74.19 74.19 0 0014.06 8.59 37.48 37.48 0 007.66 2.5 22.53 22.53 0 003.89.45 16.79 16.79 0 001.89-.07c.32 0 .6-.09.9-.13l.7-.16.27-.08a1.82 1.82 0 011.16 3.45z"/>
       <path id="path2204" fill="#e3e3e3" stroke-width="4" d="M297.61 316.55a53.47 53.47 0 01-6.16.17c-2 0-4-.19-6.05-.43a54.24 54.24 0 01-11.94-2.81 51.86 51.86 0 01-5.68-2.49c-1.77-.89-3.49-1.8-5.21-2.71l-10.31-5.49c-6.84-3.63-13.62-7.35-20.47-10.83-3.42-1.74-6.86-3.43-10.27-5-1.69-.76-3.42-1.5-5-2-.38-.13-.77-.25-1.08-.33a1.56 1.56 0 00-.49-.09h.3a2.25 2.25 0 00.42-.07l.23-.08a4.15 4.15 0 00.42-.16 3.7 3.7 0 00.43-.25 5.68 5.68 0 00.46-.37 3.94 3.94 0 00.85-1.14 3.54 3.54 0 00.35-1.2 2.62 2.62 0 000-.74V279.86l.12.31.23.61c.64 1.65 1.42 3.37 2.21 5.23.4.94.8 1.91 1.17 3a17 17 0 01.9 3.87 8.82 8.82 0 01-.22 3 6.91 6.91 0 01-3.72 4.54 6.74 6.74 0 01-.76.33l-.49.17c-.31.11-.74.27-1.15.44-1.68.66-3.43 1.44-5.17 2.2-3.47 1.53-6.93 3.15-10.31 4.85-1.69.84-3.36 1.71-5 2.61a50.15 50.15 0 00-4.49 2.74 10 10 0 00-.8.62 1 1 0 00-.18.17.86.86 0 00.07-.1 1.4 1.4 0 00.14-.22 3.16 3.16 0 00.2-.41l.1-.29a3.59 3.59 0 00.12-.47 4 4 0 000-1.25 4.28 4.28 0 00-.48-1.54 4 4 0 00-.83-1.1 3.53 3.53 0 00-.71-.53 2.47 2.47 0 00-.46-.23l.15.06c.52.2 1 .41 1.51.63a54 54 0 015.7 2.94c.94.56 1.88 1.17 2.83 1.87a18.42 18.42 0 012.93 2.68 10.09 10.09 0 011.52 2.33l.18.39.16.47a6.18 6.18 0 01.26 1 7 7 0 010 2.46 7.1 7.1 0 01-.91 2.38c-.2.3-.42.6-.65.89a7.13 7.13 0 01-.66.68 4.74 4.74 0 01-.65.54c-.21.16-.41.31-.63.46a12.18 12.18 0 01-1.25.66 18.17 18.17 0 01-1.9.71c-.58.19-1.12.34-1.65.48-1.06.27-2.07.5-3.08.71-2 .41-3.95.75-5.89 1.08l-11.43 1.91c-1.87.33-3.72.68-5.5 1.07a31.89 31.89 0 00-4.7 1.34 4.54 4.54 0 00-.41.2c.06 0 0 0 .14-.11a.46.46 0 00.12-.12l.21-.21.1-.13.14-.2a3.59 3.59 0 00.27-.49 2.9 2.9 0 00.24-.7 3.67 3.67 0 00.13-.88 4.22 4.22 0 00-.26-1.57 2.92 2.92 0 00-.14-.31l-.1-.22a3.75 3.75 0 00-.24-.36l.37.49.83 1.06c1.18 1.45 2.45 3 3.7 4.56a60.94 60.94 0 013.7 5.17 24 24 0 011.73 3.26c.13.31.26.66.38 1 .12.34.24.73.34 1.19a8.65 8.65 0 01.18 3.21 7 7 0 01-2 4.11 5.51 5.51 0 01-.43.41l-.41.32-.44.3-.34.21-.71.4-2.66 1.4c-.84.43-1.6.84-2.28 1.25a10.59 10.59 0 00-1.57 1.11l-.21.2a.28.28 0 01-.09.1s.08-.12.07-.19a1.6 1.6 0 00.05-.51v-.23a.1.1 0 010 .05 3.05 3.05 0 00.19.24c.18.21.41.47.68.74.55.54 1.19 1.13 1.88 1.73 2.78 2.41 5.94 4.84 9 7.84a25.08 25.08 0 014.47 5.61 10.82 10.82 0 011.44 4.83 10.46 10.46 0 01-.05 1.42 11.76 11.76 0 01-.39 1.58 9.06 9.06 0 01-.67 1.44l-.4.63-.36.51a26.37 26.37 0 00-2.51 4.12 34.56 34.56 0 00-1.84 4.71 26.82 26.82 0 00-1.21 9.83 20.23 20.23 0 002.86 9.08l.61 1 .75 1a13.5 13.5 0 001.59 1.89c.6.59 1.15 1.18 1.79 1.8l2.16 1.9c2.89 2.52 5.8 5 8.76 7.47 5.9 4.91 11.93 9.66 18.15 14.07 3.11 2.18 6.26 4.31 9.5 6.19a39.15 39.15 0 009.8 4.39l.25.06a2.5 2.5 0 01-1.1 4.87l-1.61-.34a10.6 10.6 0 01-1.57-.39c-1-.33-2-.6-3-1-1.92-.73-3.75-1.58-5.56-2.46-3.58-1.82-7-3.83-10.34-5.91-6.66-4.23-13.06-8.77-19.28-13.52-3.11-2.37-6.18-4.81-9.22-7.27l-2.28-1.86c-.78-.69-1.6-1.48-2.4-2.22a20.39 20.39 0 01-2.24-2.48l-1.07-1.3c-.31-.46-.61-.95-.91-1.43a28.88 28.88 0 01-4.42-12.75 35.75 35.75 0 011.16-13.14 36.38 36.38 0 015.7-12l.07-.09s-.07.07-.06.12c.01.05-.06.11-.05.17.01.06 0 .09 0 .13a5.88 5.88 0 00-.31-.65 16.86 16.86 0 00-2.87-3.35c-2.51-2.4-5.54-4.67-8.66-7.28-.79-.66-1.6-1.36-2.43-2.17a17.79 17.79 0 01-1.31-1.38c-.24-.31-.44-.52-.7-.91l-.37-.54a7.56 7.56 0 01-.39-.71 8.1 8.1 0 01-.56-1.43 7 7 0 01-.34-1.51 8.45 8.45 0 01.23-3.38 10.71 10.71 0 01.58-1.54c.24-.44.5-.89.77-1.29s.54-.69.82-1c.28-.31.55-.55.83-.83a19.82 19.82 0 013.12-2.29c1-.6 1.92-1.11 2.8-1.57l2.48-1.32.56-.31c.08-.05 0 0 0 0l-.13.09a.43.43 0 00-.12.11.84.84 0 00-.18.15 3 3 0 00-.78 1.54c-.06.35 0 .46 0 .34s0-.15-.06-.22l-.14-.34a13.37 13.37 0 00-1-1.87 47.58 47.58 0 00-3.09-4.25c-1.15-1.45-2.38-2.9-3.65-4.46l-1-1.21-.51-.67c-.14-.2-.3-.44-.43-.67a4.13 4.13 0 01-.2-.37c-.07-.16-.14-.32-.2-.48a6.15 6.15 0 01-.39-2.28 7.26 7.26 0 01.17-1.24 8.06 8.06 0 01.37-1 5.43 5.43 0 01.45-.8l.24-.36.22-.26a5.45 5.45 0 01.45-.49l.39-.36a8.7 8.7 0 01.72-.55 11.86 11.86 0 012.17-1.14 37.75 37.75 0 016.45-1.87c2-.44 4-.8 5.92-1.13l11.42-1.9c1.88-.31 3.75-.63 5.55-1 .89-.18 1.77-.38 2.59-.58a14.78 14.78 0 002-.62c.08 0 .1-.06 0 0l-.09.08a.79.79 0 00-.15.16 1.34 1.34 0 00-.22.31 2.73 2.73 0 00-.39 1 2.64 2.64 0 00.14 1.51c.09.16.05.06-.08-.08a9.42 9.42 0 00-1.36-1.23c-.6-.45-1.28-.92-2-1.36a42.64 42.64 0 00-4.59-2.45l-1.16-.51-.19-.07c-.27-.12-.53-.25-.79-.39a6.35 6.35 0 01-1-.75 5.92 5.92 0 01-1.06-1.39 5.36 5.36 0 01-.52-3.5c.05-.21.1-.43.16-.64.06-.21.11-.3.17-.45a6.47 6.47 0 01.36-.74c.11-.18.23-.38.34-.53l.29-.39c.2-.25.35-.4.53-.6.18-.2.61-.58.88-.81.55-.46 1-.81 1.51-1.15a58 58 0 015.47-3.25 168 168 0 015.35-2.71c3.58-1.73 7.16-3.34 10.8-4.89 1.82-.78 3.64-1.52 5.58-2.24.5-.19 1-.36 1.58-.56l.24-.07a.41.41 0 01-.09 0 2.81 2.81 0 00-.39.28 2.24 2.24 0 00-.64 1v.08a8.34 8.34 0 00-.41-1.79c-.23-.75-.55-1.59-.89-2.44-.68-1.72-1.46-3.55-2.18-5.53l-.27-.75-.13-.38c0-.12-.12-.41-.17-.61l-.07-.33a3.89 3.89 0 01-.06-.44 6.61 6.61 0 010-1.09 5.53 5.53 0 01.46-1.56 5 5 0 011.06-1.42 3.47 3.47 0 01.61-.48 5.66 5.66 0 01.59-.34 5.55 5.55 0 01.57-.24l.41-.12a5.93 5.93 0 01.78-.14 5.07 5.07 0 01.55 0h.48a10.31 10.31 0 012.36.42c.63.17 1.16.36 1.7.55 2.08.76 3.89 1.6 5.72 2.47 3.61 1.74 7 3.61 10.49 5.49q10.26 5.68 20.25 11.64l10 5.92 5 2.89a48.51 48.51 0 004.86 2.39 49.86 49.86 0 0010.53 3c1.82.33 3.66.58 5.51.73a50.86 50.86 0 005.46.19h.1a2.505 2.505 0 01.31 5zm104.96 248.46c.28.15.82.4 1.26.6l1.43.61c1 .39 2 .75 3 1.09a49.85 49.85 0 006.06 1.65 32.19 32.19 0 0012 .41 20.21 20.21 0 005.44-1.73 12.39 12.39 0 001.24-.67 11.5 11.5 0 001.19-.77 10.63 10.63 0 001.07-.87l.28-.23.14-.11-.08.08-.17.18a4.1 4.1 0 00-.29.4l-.11.21-.08.16a1.85 1.85 0 00-.13.37v.05a.7.7 0 000-.17 26.57 26.57 0 00.34-3c.08-1.1.15-2.23.2-3.37.1-2.27.17-4.58.21-6.85a3.26 3.26 0 016.51-.17c.17 2.35.31 4.68.42 7 0 1.18.09 2.36.11 3.57a33.35 33.35 0 01-.1 3.91c0 .19 0 .44-.1.69l-.1.48a6.94 6.94 0 01-.28.78 1.68 1.68 0 01-.1.2l-.14.26a5.48 5.48 0 01-.35.49l-.19.22-.11.12-.18.18-.37.35a16.46 16.46 0 01-1.5 1.39 19.66 19.66 0 01-1.62 1.27 18.81 18.81 0 01-1.71 1.14 29 29 0 01-7.51 3.2 41.91 41.91 0 01-15.59 1 60.62 60.62 0 01-7.5-1.32c-1.23-.3-2.46-.63-3.67-1-.61-.19-1.22-.38-1.84-.59-.62-.21-1.17-.4-2-.72l-.16-.07a5.78 5.78 0 114.38-10.69 5.18 5.18 0 01.7.27z"/>
       <path id="path2206" fill="#e3e3e3" stroke-linecap="round" stroke-linejoin="round" stroke-width="4" d="M364.49 391.2c-8.62-7.17-25.27-6.73-27.84 10-2.24 14.47 5.7 23.06 11.38 28.85 6.1 6.23 25.85 13 31.49-3.26 5.64-16.26-7.93-29.68-15.03-35.59zm6.62 20.28c-3.11 9-14 5.24-17.39 1.8-3.13-3.2-7.52-7.94-6.29-15.93 1.43-9.22 10.62-9.46 15.38-5.5 3.92 3.26 11.45 10.64 8.3 19.63z"/>
       <path id="path2208" fill="#e3e3e3" stroke-width="4" d="M635.5 409.33a27.31 27.31 0 015 7.64 50.52 50.52 0 012.78 8.08 144 144 0 013 16c.4 2.63.77 5.24 1.24 7.74a21.54 21.54 0 002 6.49c2 3.37 6.64 5.39 11.43 6.32a52.15 52.15 0 007.49.9c1.28.08 2.56.12 3.9.15h2.12c.34.15.1-.2 1.58.63 3 4.94-1.5 5.56-.5 5.28a5.29 5.29 0 01-.57.26l-.65.21-1.12.31c-2.83.67-5.41 1.06-8.06 1.52l-7.84 1.32c-2.59.46-5.17.94-7.66 1.53-1.24.29-2.47.61-3.58 1a11.18 11.18 0 00-1.45.58 3 3 0 00-.34.19l.12-.13a3.88 3.88 0 00.2-.34 2 2 0 00.17-.62 2.46 2.46 0 000-.77 2.68 2.68 0 00-.21-.57 1.68 1.68 0 00-.29-.39h.08l.18.1c.47.26 1 .53 1.58.79 1.12.52 2.32 1 3.52 1.49 2.42 1 4.91 1.87 7.4 2.8 2.49.93 5 1.86 7.55 2.89 1.27.51 2.54 1 3.85 1.7a19.81 19.81 0 012.07 1.17 7.71 7.71 0 011.27 1 3.78 3.78 0 01.4.49 4.52 4.52 0 01.44.76 3.79 3.79 0 01.3 1.33 3.56 3.56 0 01-.34 1.61 3.85 3.85 0 01-1.45 1.57c-.18.1-.37.21-.54.29l-.45.18a10.31 10.31 0 01-1.34.38c-.8.18-1.52.29-2.24.38-1.43.18-2.81.28-4.17.36-2.73.16-5.41.23-8.08.29-2.67.06-5.31.12-7.91.24-1.29.06-2.58.14-3.78.27a13.6 13.6 0 00-1.61.24c-.18 0-.4.14-.19 0a1.82 1.82 0 00.32-.22 2.48 2.48 0 00.71-1 2.73 2.73 0 00.07-1.82 2.5 2.5 0 00-.41-.79l-.2-.21.12.07c.22.13.49.27.75.4.54.27 1.11.53 1.69.8 1.17.52 2.37 1 3.59 1.55l7.38 3.12a80.86 80.86 0 017.48 3.61 22.4 22.4 0 012 1.24 10.19 10.19 0 011.06.84 6.31 6.31 0 011.23 1.46 5.78 5.78 0 01.34.66 5.18 5.18 0 01.26 1 4 4 0 01-.41 2.42 4.32 4.32 0 01-.61.86 3.92 3.92 0 01-.6.54 3 3 0 01-.54.35 3.64 3.64 0 01-.47.25 7.7 7.7 0 01-1.5.52l-.62.14-.49.1c-5.23 1.09-10.35 2-14.59 4a13.6 13.6 0 00-5.14 3.89l-.46.6a7.08 7.08 0 00-.38.66c-.12.22-.26.43-.37.66l-.29.71c-.09.26-.19.43-.3.76l-.3 1-.61 1.89c-1.64 5-3.26 10.14-5 15.21-6.83 20.27-15.19 40.36-26.83 58.76a176 176 0 01-19.84 26 162.46 162.46 0 01-24.65 21.74 169.79 169.79 0 01-28.5 16.49 207.46 207.46 0 01-31 10.91c-21.23 5.41-43.08 7.6-64.75 7.71-21.68-.11-43.52-2.3-64.76-7.71a207.46 207.46 0 01-31-10.91 170.19 170.19 0 01-28.5-16.49 162.38 162.38 0 01-24.64-21.74 175.36 175.36 0 01-19.85-26c-11.64-18.4-20-38.49-26.82-58.76-1.73-5.07-3.35-10.16-5-15.21l-.61-1.89-.31-1c-.11-.33-.2-.5-.3-.76l-.28-.71c-.12-.23-.25-.44-.37-.66a7.16 7.16 0 00-.39-.66l-.46-.6a13.64 13.64 0 00-5.13-3.89c-4.25-2-9.37-3-14.6-4l-.49-.1-.62-.14a8.18 8.18 0 01-1.5-.52l-.47-.25a3.4 3.4 0 01-.53-.35 3.94 3.94 0 01-.61-.54 4.77 4.77 0 01-.61-.86 4 4 0 01-.14-3.37 4.51 4.51 0 01.31-.42 6.56 6.56 0 011.23-1.46 11.37 11.37 0 011.06-.84 22.4 22.4 0 012-1.24 79.79 79.79 0 017.49-3.61l7.38-3.12c1.21-.51 2.42-1 3.58-1.55.59-.27 1.16-.53 1.69-.8.27-.13.53-.27.76-.4l.12-.07h.05l-.2.21a2.66 2.66 0 00-.34 2.61 2.39 2.39 0 00.72 1 2.47 2.47 0 00.31.22c.21.1 0 0-.19 0a13.1 13.1 0 00-1.6-.24c-1.2-.13-2.5-.21-3.79-.27-2.6-.12-5.25-.17-7.91-.24-2.66-.07-5.35-.13-8.07-.29-1.37-.08-2.74-.18-4.17-.36a22.34 22.34 0 01-2.24-.38 10 10 0 01-1.35-.38l-.45-.18c-.17-.08-.36-.19-.53-.29a3.72 3.72 0 01-1.45-1.57 3.32 3.32 0 01-.34-1.61 3.59 3.59 0 01.29-1.33 4.52 4.52 0 01.44-.76 4.84 4.84 0 01.4-.49 8.64 8.64 0 011.27-1 19.81 19.81 0 012.07-1.17c1.32-.65 2.59-1.19 3.86-1.7 2.53-1 5-2 7.54-2.89 2.54-.89 5-1.84 7.4-2.8 1.2-.48 2.4-1 3.52-1.49.56-.26 1.11-.53 1.58-.79l.18-.1h.08a1.56 1.56 0 00-.3.39 2.28 2.28 0 00-.2.57 2.19 2.19 0 000 .77 2 2 0 00.18.62 2.57 2.57 0 00.19.34l.12.13s-.15-.1-.34-.19a12 12 0 00-1.46-.58c-1.11-.37-2.34-.69-3.57-1-2.49-.59-5.07-1.07-7.66-1.53l-7.84-1.32c-2.65-.46-5.24-.85-8.07-1.52-.36-.09-.75-.2-1.11-.31l-.65-.21a5.22 5.22 0 01-.58-.26c1 .28-3.47-.34-.5-5.28 1.48-.83 1.24-.48 1.59-.63h2.06c1.35 0 2.62-.07 3.91-.15a52.18 52.18 0 007.48-.9c4.8-.93 9.41-3 11.43-6.32a21 21 0 002-6.49c.48-2.5.85-5.11 1.24-7.74a144 144 0 013-16 49.6 49.6 0 012.79-8.08 27.05 27.05 0 015-7.64 3.54 3.54 0 015.16 4.85l-.06.07a20.49 20.49 0 00-3.78 5.59 42.35 42.35 0 00-2.55 6.94 139.15 139.15 0 00-3.06 15.26c-.43 2.63-.84 5.28-1.39 8-.28 1.35-.6 2.73-1 4.15a23.1 23.1 0 01-.77 2.19 14.11 14.11 0 01-1.16 2.25 17.78 17.78 0 01-7.21 6.25 33.26 33.26 0 01-8.37 2.72 59.76 59.76 0 01-8.34 1c-1.37.07-2.75.11-4.07.14h-1.36c.18-.11-.23.26 1.1-.49 2.78-4.81-1.39-5.28-.29-4.95l-.12-.06.3.1c.27.09.52.15.81.23 2.34.57 5 1 7.6 1.45l7.89 1.37c2.64.47 5.29 1 8 1.62 1.35.32 2.7.67 4.11 1.15a18.38 18.38 0 012.24.92 7.62 7.62 0 011.35.85c.13.11.25.2.41.36a5 5 0 01.45.51 3.5 3.5 0 01.46.75 3.89 3.89 0 01.33 1.09 3.83 3.83 0 01-.06 1.27 3.59 3.59 0 01-.38 1 4.66 4.66 0 01-.93 1.16c-.16.15-.27.22-.4.33l-.38.26-.34.21-.26.14c-.69.38-1.34.69-2 1-1.29.59-2.56 1.11-3.83 1.6-2.52 1-5 1.91-7.53 2.82-2.53.91-5 1.82-7.36 2.8-1.19.49-2.37 1-3.44 1.54a13.76 13.76 0 00-1.39.79c-.17.11-.32.25-.28.21l.09-.11a1.62 1.62 0 00.18-.33 2.37 2.37 0 00.19-.84 2.52 2.52 0 00-.24-1.13 2 2 0 00-.76-.88h-.09c.07 0 .33.1.58.15.5.11 1.09.2 1.69.27 1.21.14 2.49.23 3.78.3 2.58.13 5.22.18 7.87.23 2.65.05 5.32.09 8 .19 1.36.06 2.73.13 4.17.27a19.33 19.33 0 012.34.15 6.46 6.46 0 011.7.6 3.86 3.86 0 01.74.49 3.55 3.55 0 011 1.38 3.42 3.42 0 01.08 2.31 3.92 3.92 0 01-1.21 1.77 4.47 4.47 0 01-.43.34 3.74 3.74 0 01-.37.24l-.3.19-1 .54c-.65.33-1.28.63-1.91.92-1.26.57-2.49 1.11-3.72 1.64l-7.3 3.14c-2.38 1.06-4.77 2.15-6.86 3.35a12.77 12.77 0 00-1.41.9 5.2 5.2 0 00-.5.39c-.13.11-.17.21-.07 0a.89.89 0 00.11-.22 2.32 2.32 0 00.13-.47 2.39 2.39 0 00-.26-1.45 2.13 2.13 0 00-.31-.46c-.1-.11-.2-.18-.23-.22l-.12-.08.38.12.84.17c5.15 1.06 10.64 1.92 16.08 4.43.68.29 1.35.7 2 1.05.65.35 1.31.83 2 1.26a18.68 18.68 0 013.48 3.35l.75 1c.24.33.43.7.64 1 .21.3.42.72.6 1.08l.47 1.13c.14.36.34.8.43 1.1l.32.94.65 1.9c1.72 5 3.41 10.06 5.2 15a295.5 295.5 0 0011.94 29.21 205.14 205.14 0 0015.44 27.22 167.79 167.79 0 0019.68 24 153.55 153.55 0 0023.83 19.6 167.72 167.72 0 0027.12 14.58 213.63 213.63 0 0029.37 9.52c2.52.57 5.06 1.07 7.59 1.62l3.79.79 3.83.6 7.67 1.21 7.74.86 3.86.43c1.29.15 2.59.19 3.89.29l7.78.5 2 .12h2l3.91.07 7.81.15 7.81-.15 3.9-.07h2l1.94-.12 7.78-.5c1.3-.1 2.6-.14 3.89-.29l3.87-.43 7.73-.86 7.67-1.21 3.84-.6 3.79-.79c2.52-.55 5.06-1 7.58-1.62a213.19 213.19 0 0029.37-9.52 167.3 167.3 0 0027.12-14.58 153.55 153.55 0 0023.83-19.6 167.79 167.79 0 0019.68-24 205.2 205.2 0 0015.45-27.22 297.88 297.88 0 0011.93-29.21c1.79-5 3.48-10 5.2-15l.65-1.9.32-.94c.1-.3.29-.74.43-1.1l.47-1.13c.19-.36.4-.72.6-1.08.2-.36.4-.72.64-1l.75-1a19.32 19.32 0 013.48-3.35c.65-.43 1.29-.88 2-1.26s1.33-.76 2-1.05c5.44-2.51 10.93-3.37 16.09-4.43l.84-.17.38-.12-.11.08a3.06 3.06 0 00-.24.22 2.58 2.58 0 00-.31.46 2.38 2.38 0 00-.25 1.45 1.49 1.49 0 00.13.47.93.93 0 00.1.22c.1.16.06.06-.07 0a4.19 4.19 0 00-.5-.39 12.77 12.77 0 00-1.41-.9c-2.09-1.2-4.48-2.29-6.86-3.35l-7.29-3.14c-1.23-.53-2.47-1.07-3.72-1.64-.63-.29-1.26-.59-1.91-.92-.33-.17-.66-.34-1-.54l-.31-.19a3.74 3.74 0 01-.37-.24c-.14-.11-.24-.17-.43-.34a3.92 3.92 0 01-1.21-1.77 3.42 3.42 0 01.08-2.31 3.55 3.55 0 011-1.38 3.85 3.85 0 01.73-.49 6.59 6.59 0 011.7-.6 19.33 19.33 0 012.33-.36c1.45-.14 2.81-.21 4.17-.27 2.72-.1 5.39-.14 8-.19 2.61-.05 5.29-.1 7.87-.23 1.29-.07 2.57-.16 3.78-.3.6-.07 1.19-.16 1.7-.27.24 0 .51-.13.57-.15h-.09a1.94 1.94 0 00-.75.88 2.53 2.53 0 00-.25 1.13 2.37 2.37 0 00.19.84 1.62 1.62 0 00.18.33l.09.11s-.11-.1-.27-.21a13 13 0 00-1.4-.79c-1.07-.54-2.24-1-3.43-1.54-2.4-1-4.88-1.88-7.37-2.8-2.49-.92-5-1.82-7.53-2.82-1.27-.49-2.54-1-3.83-1.6-.65-.3-1.3-.61-2-1l-.26-.14-.34-.21-.37-.26a5 5 0 01-.41-.33 4.66 4.66 0 01-.92-1.16 3.31 3.31 0 01-.39-1 3.58 3.58 0 010-1.27 3.7 3.7 0 01.79-1.84 3.38 3.38 0 01.45-.51 4 4 0 01.4-.36 8 8 0 011.36-.85 17.65 17.65 0 012.23-.92c1.42-.48 2.77-.83 4.11-1.15 2.69-.64 5.34-1.15 8-1.62l7.89-1.37c2.59-.45 5.26-.88 7.6-1.45.29-.08.54-.14.81-.23l.3-.1-.12.06c1.11-.33-3.07.14-.29 4.95 1.34.75.93.38 1.11.49h-1.37c-1.31 0-2.69-.07-4.07-.14a60.12 60.12 0 01-8.34-1 33.2 33.2 0 01-8.36-2.72 17.74 17.74 0 01-7.22-6.25 15 15 0 01-1.16-2.25 22.94 22.94 0 01-.76-2.19c-.43-1.42-.75-2.8-1-4.15-.56-2.72-1-5.37-1.4-8a136.84 136.84 0 00-3.06-15.26 42.35 42.35 0 00-2.55-6.94 20.27 20.27 0 00-3.78-5.59 3.557 3.557 0 015.06-5zm-43.65-80.41a240.37 240.37 0 00-33.22-25.59l-9-5.36-9.27-4.78a25.37 25.37 0 00-2.36-1.11l-2.38-1.06-4.76-2.12c-1.57-.74-3.2-1.33-4.83-1.94l-4.87-1.83a207.65 207.65 0 00-40.41-9.93 334.21 334.21 0 00-83.69 0 207.38 207.38 0 00-40.4 9.93l-4.88 1.83c-1.62.61-3.26 1.2-4.83 1.94l-4.69 2.13-2.38 1.06c-.8.34-1.59.69-2.36 1.11l-9.26 4.78-9 5.35a239.68 239.68 0 00-33.21 25.58h-.06a3.3 3.3 0 01-4.59-4.73 216.23 216.23 0 0133.07-28.23 185.69 185.69 0 0138.75-20.27 206.84 206.84 0 0142.31-11.17 316.83 316.83 0 0186.85 0 206.76 206.76 0 0142.32 11.17 185.61 185.61 0 0138.74 20.27 216.3 216.3 0 0133.08 28.23 3.3 3.3 0 01-4.59 4.74z"/>
       <path id="path2210" fill="#e3e3e3" stroke-width="4" d="M553.5 292.83l.7.16c.3 0 .59.11.9.13a17 17 0 001.89.07 22.64 22.64 0 003.9-.45 37.59 37.59 0 007.65-2.5 74.58 74.58 0 0014.07-8.59c4.47-3.36 8.83-7 13.31-10.56 4.48-3.56 9-7.08 13.84-10.34a123.6 123.6 0 0131.19-15.76 113.09 113.09 0 0117.11-4.22c1.46-.21 2.91-.47 4.37-.63l2.19-.26 1.1-.13a6.46 6.46 0 01.65 0 5.71 5.71 0 01.71.08 5 5 0 011.28.44 5.06 5.06 0 011.7 1.36 5.83 5.83 0 011.31 3 5.7 5.7 0 010 1.65l-.07.42v.16l-.07.31c-.18.78-.34 1.41-.46 2a8.07 8.07 0 00-.18 1.41 1.11 1.11 0 000 .48c0-.06-.15-.26-.16-.26a3.23 3.23 0 00.52.16h.28l.5.08 1 .16 2.07.3 8.46 1.19c2.84.41 5.7.85 8.59 1.38 1.44.26 2.9.55 4.39.89a30.93 30.93 0 014.85 1.49 9.85 9.85 0 011.73 1 6.13 6.13 0 011.38 1.3 4.47 4.47 0 01.43.63 4.52 4.52 0 01.41.88 5 5 0 01.27 1.16 5.38 5.38 0 010 1.33 5.51 5.51 0 01-.32 1.19 6.06 6.06 0 01-.45.88 4.54 4.54 0 01-.46.62 5.37 5.37 0 01-.44.47c-.12.11-.25.23-.38.33l-.16.13-.17.14-.7.59a37.59 37.59 0 00-2.72 2.64 22.63 22.63 0 00-4.07 5.65 5.34 5.34 0 00-.57 2.11.78.78 0 00.07.39.68.68 0 00.21.28v.05-.06c-.13-.12 0 0 0 0s.32.22.55.37c.47.29 1 .6 1.57.9 1.13.61 2.34 1.2 3.55 1.78a96.37 96.37 0 0015.09 5.71c1.26.34 2.51.64 3.72.86.61.11 1.2.2 1.76.26l1.09.12 1.27.18a21.25 21.25 0 012.76.62 11.74 11.74 0 013.48 1.64 8 8 0 012.11 2.2 7.34 7.34 0 011.16 3.53 8.16 8.16 0 01-.41 3 11.38 11.38 0 01-.85 1.92 18.74 18.74 0 01-1.75 2.52c-.56.69-1.11 1.3-1.64 1.87l-3 3.08c-.43.46-.83.9-1.13 1.28a4.84 4.84 0 00-.46.65 2.38 2.38 0 00.19-.86 3.88 3.88 0 00-.61-2.3 2.94 2.94 0 00-1-1h-.09l.13.06.32.14a18.67 18.67 0 006.42 1.21 43.87 43.87 0 007.57-.46c2.61-.36 5.24-.88 8-1.48 1.38-.3 2.73-.61 4.34-.92.42-.08.84-.16 1.4-.22a8.9 8.9 0 011.07-.08h.9a6.66 6.66 0 01.77.12 6.48 6.48 0 011.31.44 5.56 5.56 0 012.34 2 5.69 5.69 0 01.92 3.57 5.29 5.29 0 01-.28 1.4l-.06.2-.27.73c-.18.46-.35.86-.53 1.25-.69 1.53-1.38 2.83-2.06 4.13l-2 3.76c-1.3 2.45-2.54 4.88-3.47 7.17a18.75 18.75 0 00-1 3.07 3.7 3.7 0 00-.09.73 1.2 1.2 0 00-.07-.31 2.9 2.9 0 00-.51-.92 3.9 3.9 0 00-.46-.45c-.06 0-.09-.06 0 0h.08l.15.11.69.46c.48.3 1 .62 1.58.94l3.77 2.08a25.8 25.8 0 014.45 3.09 13.39 13.39 0 012.38 2.76 10.48 10.48 0 011.53 4.24 11.32 11.32 0 01.09 1.16v.75c0 .48 0 1-.08 1.42a27 27 0 01-.42 2.74 29.48 29.48 0 01-1.56 5 48 48 0 01-4.6 8.43c-1.71 2.56-3.52 4.95-5.37 7.25-3.7 4.6-7.55 8.89-11.4 13.14l-1.38 1.51c.3-.36.18-.32.11 0a14.15 14.15 0 00-.45 2.93c-.16 2.44-.12 5.22-.07 8 .12 5.61.32 11.44.1 17.37a73.22 73.22 0 01-2.66 18.13 38.32 38.32 0 01-3.94 9 29.31 29.31 0 01-3 4.13c-.57.64-1.18 1.27-1.81 1.87l-1.58 1.44c-4.19 3.85-8.4 7.67-12.41 11.53-2 1.93-4 3.88-5.62 5.82a21.53 21.53 0 00-2.06 2.75 4.56 4.56 0 00-.45.94c-.07.19 0 .11-.08-.06-.08-.17-.14-.22 0-.05v.06l.14.16.32.32.65.65c.91.88 1.88 1.67 3.11 2.77.31.28.64.58 1 1a9.84 9.84 0 011.24 1.6 6.16 6.16 0 01.91 3.31 6.08 6.08 0 01-1.06 3.22 8.63 8.63 0 01-1.35 1.56 13.54 13.54 0 01-1.3 1 17.74 17.74 0 01-2.36 1.35 48.32 48.32 0 01-8.79 3c-2.89.72-5.77 1.27-8.65 1.75-2.88.48-5.77.81-8.67 1.07-2.9.26-5.8.42-8.72.44a70 70 0 01-8.78-.4 34.76 34.76 0 01-4.43-.82 14.05 14.05 0 01-2.22-.79 5.18 5.18 0 01-2.13-1.61.91.91 0 01.2-1.27.9.9 0 011.06 0l.16.11a3.85 3.85 0 001.48.56 14.63 14.63 0 001.92.22 34.7 34.7 0 004.07-.07c2.74-.17 5.51-.56 8.26-1 2.75-.44 5.5-1 8.23-1.52 2.73-.52 5.44-1.23 8.13-1.89 2.69-.66 5.34-1.45 7.92-2.29a45.83 45.83 0 007.19-2.91 9.54 9.54 0 001.3-.82c.16-.13.28-.23.37-.32.09-.09.12-.16 0-.05a2.26 2.26 0 00-.36 1.24 2.63 2.63 0 00.29 1.3c.16.23-.2-.2-.64-.55-.92-.77-2.18-1.74-3.35-2.8l-.89-.82-.44-.43-.22-.23-.32-.34a8.43 8.43 0 01-1.9-8 13 13 0 011.22-3 29.15 29.15 0 012.88-4.19c2-2.43 4-4.55 6-6.65 4.05-4.16 8.14-8.11 12.22-12.09l1.52-1.49c.38-.39.76-.79 1.13-1.21a19.9 19.9 0 002-2.76 28.27 28.27 0 002.76-6.65 63 63 0 002-15.57c.13-5.45-.14-11-.35-16.75-.09-2.9-.19-5.81 0-9a23.28 23.28 0 01.91-5.47 10.71 10.71 0 012.06-3.81l1.48-1.65c3.77-4.2 7.5-8.4 10.9-12.69 3.4-4.29 6.54-8.7 8.31-13a17.88 17.88 0 001-3.13 13.31 13.31 0 00.23-1.48v-1.02.1a.57.57 0 00.09.27 3.45 3.45 0 00-.42-.45 15.74 15.74 0 00-2.58-1.73l-3.69-2c-.67-.38-1.37-.79-2.08-1.24-.36-.23-.73-.47-1.1-.73l-.27-.2-.14-.1-.25-.19a8 8 0 01-2.74-4 9.85 9.85 0 01-.43-2.4 13.54 13.54 0 01.29-3.51 28.41 28.41 0 011.58-5.05c1.22-3 2.6-5.62 4-8.19l2-3.77c.65-1.21 1.28-2.43 1.76-3.49.12-.26.23-.51.31-.72l.1-.27v-.05a4.88 4.88 0 00-.21 1.15 5.39 5.39 0 00.86 3.31 5.08 5.08 0 002.14 1.86 4.66 4.66 0 001.56.44h.37l-.7.11c-1.18.22-2.61.54-4 .83-2.84.61-5.79 1.18-8.82 1.58a55.18 55.18 0 01-9.45.49 28.9 28.9 0 01-10.22-2.12l-.65-.29-.35-.17-.56-.31a7.66 7.66 0 01-2.58-2.4 6.94 6.94 0 01-.94-2.17 5.88 5.88 0 01-.18-1.13 6 6 0 010-1 8.29 8.29 0 01.76-2.89 14.09 14.09 0 011.88-2.92c.59-.72 1.15-1.33 1.69-1.9l3-3.06a16.21 16.21 0 001.91-2.27c0-.08.07-.14 0 0a2.26 2.26 0 00-.1.87 3.44 3.44 0 00.52 1.58 2.28 2.28 0 00.63.69c.21.13 0 0-.38-.13a9.55 9.55 0 00-1.39-.33l-.85-.13-1-.14c-.84-.1-1.66-.24-2.45-.4-1.59-.32-3.1-.7-4.58-1.13a106.89 106.89 0 01-16.68-6.62c-1.34-.67-2.67-1.36-4-2.14-.68-.39-1.36-.8-2.09-1.27-.37-.25-.75-.51-1.2-.86a9.13 9.13 0 01-.83-.72l-.25-.25-.16-.18-.3-.36a10.7 10.7 0 01-2.45-7.2 14.66 14.66 0 011.62-6.07 32 32 0 016-8 48.25 48.25 0 013.49-3.21l1-.76.25-.2c-.06.06-.13.11-.18.17l-.26.27c-.11.14-.14.18-.3.41a3.57 3.57 0 00-.32.65 3.28 3.28 0 00-.25.93 3.42 3.42 0 000 1.06 3.89 3.89 0 00.21.91 3.42 3.42 0 00.29.63 4.24 4.24 0 00.28.42 2.5 2.5 0 00.6.58c.14.09 0 0-.14-.07a22.29 22.29 0 00-3.27-1.08c-1.27-.33-2.6-.64-3.94-.92-2.7-.57-5.45-1.08-8.23-1.57l-8.4-1.43-2.13-.38-1.27-.37-.55-.1-.77-.17a10.09 10.09 0 01-3.36-1.53 7.7 7.7 0 01-2.73-3.59 9.46 9.46 0 01-.52-3.72 16.1 16.1 0 01.42-2.8c.19-.81.4-1.56.55-2.15l.05-.22v-.1.17a1.85 1.85 0 000 .58 2 2 0 00.48 1 2.94 2.94 0 00.89.69 3.25 3.25 0 00.78.26 3.44 3.44 0 00.45 0 3.67 3.67 0 00.38 0l-1 .09-2.06.17c-1.37.11-2.72.31-4.09.46a105.33 105.33 0 00-16.1 3.44 117.14 117.14 0 00-30 14c-4.71 3-9.27 6.26-13.8 9.65-4.53 3.39-9 6.89-13.76 10.23a77.54 77.54 0 01-15.26 8.64 42.61 42.61 0 01-8.65 2.42 26.82 26.82 0 01-4.59.33 21.22 21.22 0 01-2.36-.19c-.39 0-.8-.15-1.2-.22a10.43 10.43 0 01-1.35-.42 1.82 1.82 0 011.15-3.45z"/>
       <path id="path2212" fill="#e3e3e3" stroke-width="4" d="M580.67 311.57a51 51 0 005.47-.19c1.84-.15 3.68-.4 5.5-.73a49.86 49.86 0 0010.53-3 46.48 46.48 0 004.86-2.39l5-2.89 10-5.92q10-6 20.26-11.64c3.43-1.88 6.88-3.75 10.49-5.49 1.82-.87 3.64-1.71 5.72-2.47.53-.19 1.07-.38 1.69-.55a10.31 10.31 0 012.37-.42h.47a4.93 4.93 0 01.55 0 5.93 5.93 0 01.78.14l.41.12c.12 0 .39.15.58.24.19.09.4.22.59.34a3.12 3.12 0 01.6.48 4.83 4.83 0 011.06 1.42 5.53 5.53 0 01.46 1.56 5.67 5.67 0 010 1.09 2.42 2.42 0 01-.06.44l-.07.33a6.18 6.18 0 01-.17.61l-.13.38-.26.75c-.72 2-1.51 3.81-2.19 5.53-.34.85-.65 1.69-.89 2.44a9 9 0 00-.41 1.79v-.08a2.08 2.08 0 00-.64-1 2 2 0 00-.39-.28.41.41 0 01-.09 0l.23.07c.61.2 1.09.37 1.58.56 1.94.72 3.76 1.46 5.58 2.24 3.64 1.55 7.22 3.16 10.8 4.89 1.79.87 3.57 1.76 5.36 2.71a59.19 59.19 0 015.46 3.25c.48.34 1 .69 1.51 1.15.27.23.57.5.88.81.31.31.33.35.53.6l.29.39a5.37 5.37 0 01.34.53 5.14 5.14 0 01.36.74 3.61 3.61 0 01.17.45c.06.21.12.43.16.64a5.36 5.36 0 01-.52 3.5 5.66 5.66 0 01-1.06 1.39 6.35 6.35 0 01-1 .75c-.25.14-.52.27-.79.39l-.18.07-1.16.51a42.8 42.8 0 00-4.6 2.45c-.72.44-1.4.91-2 1.36a8.74 8.74 0 00-1.35 1.23c-.13.14-.18.24-.09.08a2.52 2.52 0 00.15-1.51 2.92 2.92 0 00-.4-1 1.1 1.1 0 00-.22-.31.79.79 0 00-.15-.16l-.09-.08a15 15 0 002 .62c.81.2 1.69.4 2.59.58 1.79.36 3.66.68 5.54 1l11.51 1.87c2 .33 3.92.69 5.93 1.13a38.27 38.27 0 016.45 1.87 12.53 12.53 0 012.17 1.14 8.69 8.69 0 01.71.55l.4.36c.13.13.3.32.44.49l.22.26a3.22 3.22 0 01.24.36 5.43 5.43 0 01.45.8 8.06 8.06 0 01.37 1 7.26 7.26 0 01.17 1.24 5.77 5.77 0 01-.48 2.18c-.06.16-.13.32-.2.48a4.13 4.13 0 01-.2.37c-.13.23-.29.47-.43.67l-.51.67-1 1.21c-1.27 1.56-2.49 3-3.65 4.46a49.65 49.65 0 00-3.09 4.25 14.5 14.5 0 00-1 1.87l-.14.34c0 .07-.07.2-.06.22.01.02 0 0 0-.34a2.89 2.89 0 00-.78-1.54.8.8 0 00-.17-.15l-.12-.11-.14-.09s-.12-.06 0 0l.55.31 2.48 1.32c.88.46 1.82 1 2.8 1.57a19.86 19.86 0 013.13 2.29c.28.28.55.52.82.83.27.31.56.68.83 1 .27.32.52.85.76 1.29a9.65 9.65 0 01.58 1.54 8.27 8.27 0 01.23 3.38 6.45 6.45 0 01-.34 1.51 7.39 7.39 0 01-.56 1.43 7.56 7.56 0 01-.39.71l-.36.54c-.27.39-.47.6-.71.91a17.78 17.78 0 01-1.3 1.38c-.84.81-1.64 1.51-2.43 2.17-3.13 2.61-6.15 4.88-8.66 7.28a16.53 16.53 0 00-2.87 3.35 5.6 5.6 0 00-.32.65V380.8c0-.05-.06-.1-.06-.12l.06.09a36.18 36.18 0 015.7 12 35.76 35.76 0 011.22 13.15 29.13 29.13 0 01-4.42 12.75c-.31.48-.6 1-.92 1.43l-1.06 1.3a22.18 22.18 0 01-2.24 2.48c-.8.74-1.62 1.53-2.41 2.22l-2.28 1.86c-3 2.46-6.1 4.9-9.22 7.27-6.22 4.75-12.62 9.29-19.27 13.52-3.36 2.08-6.77 4.09-10.34 5.91-1.82.88-3.64 1.73-5.57 2.46-.93.41-2 .68-3 1a10.6 10.6 0 01-1.57.39l-1.61.34a2.5 2.5 0 01-1.1-4.87l.25-.06a39 39 0 009.8-4.39c3.24-1.88 6.39-4 9.51-6.19 6.21-4.41 12.24-9.16 18.14-14.07 3-2.44 5.88-5 8.77-7.47l2.16-1.9c.63-.62 1.18-1.21 1.79-1.8a14.14 14.14 0 001.58-1.89l.75-1 .61-1a20.36 20.36 0 002.87-9.08 27 27 0 00-1.21-9.83 33.35 33.35 0 00-1.85-4.71 25.63 25.63 0 00-2.51-4.12l-.36-.51-.4-.63a9 9 0 01-.66-1.44 10.44 10.44 0 01-.4-1.58 12 12 0 01-.08-1.58 10.82 10.82 0 011.44-4.83 25.66 25.66 0 014.47-5.61c3.06-3 6.23-5.43 9-7.84.69-.6 1.33-1.19 1.88-1.73.27-.27.51-.53.68-.74a3.05 3.05 0 00.19-.24v-.05.14a.46.46 0 000 .09 1.33 1.33 0 000 .51c0 .07.07.16.07.19a.28.28 0 01-.09-.1l-.21-.2a10.59 10.59 0 00-1.57-1.11c-.68-.41-1.44-.82-2.28-1.25l-2.65-1.4-.72-.4-.34-.21-.43-.3-.42-.32a5.51 5.51 0 01-.43-.41 7.07 7.07 0 01-2-4.11 8.84 8.84 0 01.19-3.21 11.31 11.31 0 01.33-1.19c.13-.34.25-.69.39-1a24 24 0 011.72-3.26 58.82 58.82 0 013.71-5.17c1.25-1.59 2.52-3.11 3.69-4.56l.83-1.06.38-.49a2.5 2.5 0 00-.24.36l-.11.22a2.92 2.92 0 00-.14.31 4 4 0 00-.25 1.57 3.66 3.66 0 00.12.88 3.43 3.43 0 00.25.7 3.63 3.63 0 00.26.49l.15.2.09.13.21.21a1.36 1.36 0 00.12.12l.14.11a3.14 3.14 0 00-.4-.2 32.05 32.05 0 00-4.71-1.34c-1.78-.39-3.63-.74-5.49-1.07l-11.44-1.91c-1.94-.33-3.89-.67-5.89-1.08-1-.21-2-.44-3.08-.71-.53-.14-1.07-.29-1.65-.48a17.28 17.28 0 01-1.89-.71 11.22 11.22 0 01-1.25-.66l-.64-.46a5.43 5.43 0 01-.65-.54 7.13 7.13 0 01-.66-.68c-.23-.29-.45-.59-.65-.89a7.1 7.1 0 01-.91-2.38 7 7 0 010-2.46 6.18 6.18 0 01.26-1l.17-.47.17-.39a10.09 10.09 0 011.52-2.33 18 18 0 012.94-2.68c1-.7 1.89-1.31 2.82-1.87a54 54 0 015.7-2.94c.5-.22 1-.43 1.51-.63l.15-.06a2.82 2.82 0 00-.46.23 3.84 3.84 0 00-.71.53 4 4 0 00-.83 1.1 4.28 4.28 0 00-.48 1.54 4.37 4.37 0 000 1.25 3.59 3.59 0 00.12.47l.1.29c.06.16.18.36.2.41a.94.94 0 00.15.22.36.36 0 00.07.1h.05l-.19-.17a9.6 9.6 0 00-.79-.62 50.39 50.39 0 00-4.5-2.74c-1.62-.9-3.29-1.77-5-2.61-3.38-1.7-6.84-3.32-10.31-4.85-1.73-.76-3.49-1.54-5.17-2.2-.4-.17-.83-.33-1.15-.44l-.48-.17a5.47 5.47 0 01-.76-.33 7 7 0 01-1.64-.91 6.93 6.93 0 01-2.13-3.48 8.53 8.53 0 01-.21-3 17.06 17.06 0 01.89-3.87c.38-1.08.77-2 1.17-3 .79-1.86 1.57-3.58 2.21-5.23l.24-.61.11-.31v.67a3.06 3.06 0 000 .74 3.57 3.57 0 00.36 1.2 3.73 3.73 0 00.84 1.14 4.27 4.27 0 00.47.37 3 3 0 00.43.25l.41.16.23.08a2.25 2.25 0 00.42.07h.3a1.64 1.64 0 00-.49.09c-.31.08-.69.2-1.07.33-1.58.53-3.3 1.27-5 2-3.41 1.54-6.85 3.23-10.27 5-6.85 3.48-13.63 7.2-20.46 10.83l-10.4 5.57c-1.73.91-3.45 1.82-5.21 2.71a53.6 53.6 0 01-5.68 2.49 54.51 54.51 0 01-11.94 2.81c-2 .24-4 .39-6.06.43a53.53 53.53 0 01-6.16-.17 2.504 2.504 0 01.3-5zM480.1 575.49c-.78.32-1.31.5-1.95.72-.64.22-1.22.4-1.83.59-1.22.37-2.44.7-3.67 1a61.11 61.11 0 01-7.51 1.32 41.93 41.93 0 01-15.59-1 28.8 28.8 0 01-7.5-3.2 17.66 17.66 0 01-1.72-1.14 19.66 19.66 0 01-1.62-1.27 17.89 17.89 0 01-1.5-1.39l-.37-.35-.18-.18-.11-.12-.2-.22a5.36 5.36 0 01-.34-.49l-.15-.26a1.68 1.68 0 01-.1-.2 5.22 5.22 0 01-.27-.78l-.11-.48c0-.25-.08-.5-.1-.69a35.69 35.69 0 01-.1-3.91c0-1.21.06-2.39.12-3.57.1-2.36.24-4.69.41-7a3.26 3.26 0 016.51.15c0 2.27.11 4.58.21 6.85.06 1.14.12 2.27.2 3.37a26.57 26.57 0 00.34 3 1.34 1.34 0 00.05.17.09.09 0 000-.05 1.85 1.85 0 00-.13-.37l-.07-.16-.12-.21a2.92 2.92 0 00-.29-.4l-.16-.18-.09-.08.14.11.28.23a17.67 17.67 0 003.57 2.3 20 20 0 005.43 1.73 32.18 32.18 0 0012-.41 49.85 49.85 0 006.06-1.65c1-.34 2-.7 3-1.09.48-.2 1-.4 1.42-.61.42-.21 1-.45 1.26-.6a5.78 5.78 0 015.54 10.14 6.11 6.11 0 01-.58.27z"/>
       <path id="path2214" fill="#e3e3e3" stroke-linecap="round" stroke-linejoin="round" stroke-width="4" d="M498.36 426.75c5.63 16.29 25.38 9.49 31.49 3.26 5.67-5.79 13.61-14.38 11.38-28.85-2.58-16.69-19.23-17.13-27.85-10-7.12 5.95-20.66 19.31-15.02 35.59zm16.7-34.9c4.76-4 14-3.72 15.38 5.5 1.23 8-3.15 12.73-6.29 15.93-3.37 3.44-14.28 7.19-17.39-1.8-3.11-8.99 4.38-16.37 8.3-19.63z"/>
       <path id="path2216" fill="#e3e3e3" stroke-linecap="round" stroke-linejoin="round" stroke-width="4" d="M438.95 459.25c-14.56 0-29 7.33-29 46s29 46 29 46h.1s29-7.34 29-46-14.41-46-29-46"/>
     </g>
   </g>
 </svg>
