<svg width="1920" height="1080" viewBox="0 0 1920 1080" fill="none" xmlns="http://www.w3.org/2000/svg">
<path d="M378.077 233.685C375.977 236.385 372.677 236.585 370.077 234.485C368.077 232.885 366.977 230.385 365.477 228.385C365.277 228.085 364.777 228.085 364.777 228.485C364.677 229.085 364.577 229.685 364.677 230.385V230.285C364.477 229.685 363.377 229.885 363.677 230.585C364.677 233.385 365.677 237.585 364.577 240.485C363.277 243.485 359.977 243.285 357.477 242.185C356.877 241.885 356.277 242.485 356.577 243.085C358.177 246.085 362.777 245.885 364.777 243.385C366.577 241.185 366.577 237.885 366.077 234.885C367.177 236.685 368.777 238.185 370.877 238.985C374.577 240.385 379.277 238.385 379.677 234.185C379.577 233.285 378.477 233.185 378.077 233.685ZM378.077 224.585C383.077 222.485 387.977 220.285 392.777 217.685C393.077 217.585 392.777 217.185 392.577 217.285C385.677 220.385 378.777 223.385 371.677 225.885C370.977 226.085 371.277 227.285 371.977 226.985C373.777 226.285 375.477 225.585 377.277 224.885L378.077 224.585ZM371.877 226.985C371.877 227.285 371.977 227.485 372.377 227.585C377.677 228.085 388.777 227.285 393.977 226.185C394.177 226.085 394.177 225.685 393.877 225.785C388.677 226.285 377.977 227.285 372.777 226.685L371.877 226.985ZM391.077 212.985C383.477 216.685 376.177 220.885 368.877 225.285C368.277 225.585 368.777 226.485 369.377 226.185C376.877 222.285 384.277 218.185 391.377 213.585C391.777 213.285 391.477 212.785 391.077 212.985ZM359.977 230.285C357.777 233.885 349.377 241.385 347.177 244.985C346.877 245.485 347.677 245.785 347.977 245.385C350.277 241.785 358.877 234.385 361.177 230.885C361.677 230.185 360.477 229.585 359.977 230.285ZM359.977 229.785C354.077 232.885 347.977 235.785 342.377 239.385C341.977 239.585 342.377 240.185 342.777 240.085C348.877 237.485 354.677 234.185 360.577 230.985C361.277 230.585 360.777 229.385 359.977 229.785ZM360.277 227.385C352.577 227.985 344.577 228.985 337.377 231.885C336.777 232.085 336.977 233.185 337.677 233.085C345.277 231.485 352.677 229.485 360.477 228.785C361.177 228.685 361.077 227.385 360.277 227.385ZM377.677 198.385C373.277 197.485 368.377 199.385 364.577 201.585C363.977 201.885 364.377 202.885 364.977 202.685C366.977 201.985 369.077 201.385 371.177 200.985C373.277 200.485 375.477 200.585 377.577 199.985C378.377 199.785 378.477 198.585 377.677 198.385ZM379.477 208.285C379.377 206.885 378.577 205.885 377.477 205.185L377.377 205.085C376.477 204.285 375.377 203.785 374.177 203.785H373.977C372.777 203.785 371.577 204.285 370.777 205.085C370.077 205.785 369.477 206.985 369.477 208.085C369.377 208.685 369.377 209.285 369.477 209.885C369.677 210.485 369.977 210.985 370.277 211.385C370.777 212.685 371.877 213.685 373.477 213.685C374.077 213.685 374.577 213.585 375.077 213.385C375.877 213.285 376.777 212.885 377.377 212.285C378.677 211.485 379.677 209.985 379.477 208.285ZM351.977 204.785C347.077 205.085 342.677 207.285 338.677 210.085C337.877 210.585 338.577 211.785 339.377 211.385C343.377 208.985 347.777 207.385 352.077 205.485C352.477 205.285 352.277 204.785 351.977 204.785ZM353.377 217.185C353.277 215.885 352.877 214.485 351.877 213.585C350.877 212.685 349.677 212.085 348.277 212.085C347.077 212.085 345.877 212.585 344.977 213.385C343.777 213.885 343.177 214.885 342.977 216.085C342.677 216.685 342.477 217.285 342.477 217.985V218.085C342.277 218.385 342.177 218.785 342.277 219.085C342.477 219.585 342.677 219.985 343.077 220.285C343.877 221.885 345.577 222.885 347.477 222.485C348.377 222.585 349.277 222.385 350.077 221.985C350.777 221.685 351.477 221.285 351.977 220.785C352.777 219.885 353.477 218.485 353.377 217.185ZM408.177 202.085C406.477 198.285 404.677 194.185 402.277 190.685C400.877 188.685 399.077 187.085 396.677 186.985C395.077 176.785 391.677 166.685 388.177 157.185C387.777 156.185 386.377 155.485 385.477 156.485C382.077 160.585 379.177 165.085 376.977 169.885C375.977 172.085 375.077 174.385 374.277 176.685C373.677 178.385 373.177 180.485 371.977 181.885C358.577 176.985 342.577 185.385 331.477 192.585C331.277 192.685 331.177 192.785 331.077 192.985C327.677 189.085 322.277 185.985 317.877 183.385C312.877 180.485 307.577 178.185 302.077 176.285C300.577 175.785 299.577 177.585 300.177 178.785L306.477 191.085C306.977 192.085 312.277 201.785 310.777 201.985C310.577 201.985 310.377 202.185 310.477 202.385C310.877 203.285 312.077 203.785 313.077 203.285C314.677 202.385 314.177 200.085 313.577 198.785C311.177 192.785 308.077 186.885 305.077 181.085C308.977 182.785 312.777 184.685 316.377 186.885C320.977 189.685 324.877 193.685 329.477 196.485C330.677 197.185 331.677 196.485 331.977 195.485C332.277 195.585 332.677 195.485 333.077 195.285C339.577 192.085 345.877 188.485 352.777 186.285C358.077 184.585 363.577 183.985 368.977 184.085C368.977 184.585 369.277 185.185 369.977 185.085C371.077 184.985 371.877 184.685 372.677 184.185H373.277C373.977 184.285 374.377 183.385 374.177 182.785C375.577 181.085 376.377 178.685 377.077 176.585C379.177 170.785 382.177 165.385 385.877 160.585C387.577 165.685 389.077 170.785 390.377 175.985C391.877 182.185 392.677 188.385 394.077 194.585C394.477 196.385 397.477 196.085 397.377 194.185C397.277 192.785 397.177 191.385 396.977 189.985C398.677 191.385 399.777 193.785 400.677 195.585C402.277 198.585 403.777 201.485 405.077 204.585C407.477 210.285 408.777 216.285 408.077 222.485C406.677 234.185 399.277 244.585 389.477 250.985C379.177 257.685 366.777 260.485 354.577 260.585C341.977 260.685 330.977 255.785 323.677 245.185C319.977 239.785 317.777 233.585 316.477 227.085C314.977 219.485 315.477 212.085 315.377 204.385C315.377 203.885 314.677 203.785 314.577 204.285C310.977 217.385 312.777 233.285 319.777 244.985C326.577 256.485 337.677 263.185 350.977 263.985C376.877 265.585 407.877 251.985 411.677 223.385C412.877 216.285 411.177 208.985 408.177 202.085Z" fill="#B4B4B4" fill-opacity="0.2"/>
<path d="M120.413 742.849C118.413 739.549 116.013 736.649 113.213 734.049C114.713 733.149 116.213 732.449 117.713 731.649C119.913 730.549 118.413 727.049 116.213 728.149C115.013 728.649 113.813 729.149 112.713 729.649C113.013 729.349 113.313 729.049 113.613 728.849C115.113 727.649 114.113 724.849 112.013 725.249C110.613 725.549 108.513 725.649 107.213 726.249L108.113 724.749C109.513 722.649 111.213 720.649 110.913 718.049C110.813 717.349 110.113 717.149 109.613 717.349C107.313 718.149 106.213 720.449 105.013 722.449C104.013 723.949 101.813 726.249 102.313 728.249C102.713 730.149 104.413 730.649 106.213 730.549C105.713 731.149 105.313 731.749 104.913 732.349C104.113 733.549 105.013 735.949 106.713 735.449C107.413 735.249 108.013 735.049 108.713 734.849C108.813 735.049 108.913 735.149 109.113 735.249C113.713 739.049 119.713 744.949 121.113 750.949C121.213 751.349 121.813 751.749 122.213 751.349C124.613 749.049 121.713 745.149 120.413 742.849ZM94.4133 739.949C94.5133 740.249 94.5134 740.549 94.6134 740.849C94.6134 741.049 94.9133 740.949 94.9133 740.849C94.9133 740.549 94.8134 740.249 94.8134 739.849C94.7134 739.649 94.3133 739.749 94.4133 739.949ZM70.6134 699.949C62.4134 697.249 54.1133 695.849 45.4133 696.649C44.8133 696.749 44.9133 697.549 45.4133 697.649C53.6133 699.149 61.9134 700.249 70.1134 701.749C71.2134 701.949 71.7134 700.249 70.6134 699.949ZM86.4133 691.849C84.6133 688.049 82.9133 684.249 81.4133 680.349C80.1133 676.949 79.2133 672.849 76.5133 670.249C76.2133 669.949 75.7134 670.049 75.7134 670.449C75.1134 673.949 76.8134 677.749 78.2134 680.949C79.9134 685.049 81.7134 689.049 83.7134 692.949C84.6134 694.749 87.3133 693.549 86.4133 691.849ZM107.813 669.349C105.213 676.049 102.913 682.849 100.813 689.749C100.413 690.949 102.213 691.749 102.713 690.549C105.113 683.649 107.213 676.749 108.913 669.749C109.113 668.949 108.013 668.749 107.813 669.349ZM142.713 756.349C139.713 752.649 136.613 748.849 133.613 745.149C132.213 743.349 129.413 745.549 130.813 747.349C131.913 748.749 133.113 750.149 134.213 751.649C131.813 753.949 129.113 755.949 126.013 757.249C122.813 758.649 119.113 758.649 116.013 760.149C114.913 758.549 113.713 757.249 112.313 756.449C113.213 756.249 113.913 755.749 114.413 755.049C114.813 754.349 114.613 753.449 113.913 753.149C113.313 752.849 113.013 752.949 112.413 753.349C112.213 753.449 112.113 753.749 112.213 753.949C111.513 753.349 110.613 753.049 109.713 752.949C109.113 752.749 108.413 752.649 107.813 752.349C106.913 752.049 106.013 751.649 105.113 751.149C102.913 750.049 100.813 748.549 98.9133 746.949C95.3133 743.849 92.4133 740.049 89.9133 736.149C84.1133 727.049 77.4133 711.549 90.5133 705.249C100.213 700.549 113.713 699.349 120.613 708.949C127.613 718.649 129.613 731.749 131.713 743.249C131.913 744.349 133.613 744.449 133.813 743.249C135.013 731.449 131.813 718.549 125.613 708.449C119.913 699.049 110.913 696.049 100.313 697.849C90.3134 699.549 80.0133 703.549 78.5133 714.949C77.1133 725.349 83.8134 736.349 90.1134 744.149C93.3134 748.049 97.2134 751.849 101.813 754.049C103.613 754.949 107.413 756.549 110.513 756.649C111.213 757.949 112.313 758.649 113.313 759.849C114.613 761.349 115.713 763.049 116.613 764.849C117.813 767.349 118.613 769.949 120.113 772.349C123.113 777.349 127.713 778.149 132.813 775.649C136.613 773.749 140.413 771.649 144.113 769.649C146.213 768.549 149.013 767.449 148.613 764.549C148.113 761.449 144.613 758.549 142.713 756.349ZM143.413 766.049C143.013 766.249 142.613 766.549 142.113 766.749C140.613 767.849 138.713 768.649 137.113 769.549C134.513 771.049 131.713 773.049 128.813 773.849C122.613 775.449 120.413 767.449 117.013 761.449C120.413 762.849 125.013 761.449 128.013 759.949C131.113 758.349 133.813 756.049 135.713 753.149C136.213 753.849 136.813 754.449 137.313 755.149C139.113 757.349 142.513 760.349 143.613 763.049C144.913 763.949 144.813 764.949 143.413 766.049Z" fill="#B4B4B4" fill-opacity="0.2"/>
<path d="M1605.71 618.819C1613.19 609.957 1621.13 600.46 1626.28 589.862C1630.24 590.578 1632.99 586.97 1635.07 583.912C1636.79 581.382 1638.51 578.751 1640.02 576.135C1641.09 574.253 1642.36 572.457 1642.71 570.326C1643.1 570.098 1643.47 569.77 1643.84 569.342C1644.78 568.372 1643.76 566.841 1642.58 567.127C1637.75 568.278 1632.25 567.072 1627.84 569.897C1624.87 571.816 1622.78 574.774 1622.22 578.123C1622.03 578.237 1621.84 578.451 1621.86 578.751C1621.79 580.56 1621.8 581.964 1622.71 583.502C1623.62 584.94 1624.71 586.165 1626.16 586.862C1626.37 586.947 1626.47 586.94 1626.67 586.926C1626.2 587.361 1625.73 587.796 1625.16 588.238C1624.97 588.452 1624.89 588.659 1624.9 588.858C1623.43 590.669 1621.95 592.48 1620.58 594.284C1620.24 593.707 1619.8 593.237 1619.37 592.767C1618.38 591.635 1617.39 590.403 1616.22 589.385C1616 589.2 1615.8 589.115 1615.6 589.129C1617.43 586.691 1619.15 584.161 1620.98 581.722C1621.34 581.195 1620.69 580.54 1620.23 581.075C1612.38 590.464 1604.87 600.231 1597.67 610.276C1590.29 620.535 1582.72 630.907 1577.12 642.24C1576.95 642.654 1577.29 643.131 1577.69 643.102L1577.6 643.209C1576.84 643.865 1577.95 645.289 1578.7 644.633C1588.67 636.894 1597.57 628.33 1605.71 618.819V618.819ZM1618.76 596.821C1617.84 597.991 1617.02 599.153 1616.2 600.215C1614.66 598.421 1613.23 596.619 1611.41 595.046C1612.42 593.67 1613.41 592.195 1614.51 590.812C1615.17 592.97 1616.76 595.562 1618.76 596.821ZM1578.53 642.339C1585.78 632.992 1591.96 622.82 1598.68 613.111C1602.4 607.729 1606.13 602.446 1609.96 597.156C1610.55 598.317 1611.33 599.464 1612.3 600.396C1613.06 601.144 1613.9 601.684 1614.73 602.126C1611.07 607.002 1607.31 611.885 1603.34 616.484C1595.46 625.475 1587.06 634.103 1578.53 642.339V642.339Z" fill="#B4B4B4" fill-opacity="0.2"/>
<path d="M89.3 157.4C84.1 150.4 84.8 140.7 88.6 133.2C92.7 125 101 121.5 108 116.2C114.5 111.4 119 105 119 96.7C119 92.5 117.9 88.4 116.2 84.4C129.8 90.6 145.8 89 158.7 80.4C167.7 74.4 175.6 66.1 186.1 62.7C190.6 61.2 196 60.6 200.5 62.5C204.8 64.3 209.3 68.9 207.6 73.8C207.1 75.2 209 76.2 209.7 74.8C213.2 67.4 207.4 59.7 200.3 57.4C190.9 54.4 180.6 58 172.6 63.2C162.1 70 153.1 80 140.2 82C129.7 83.6 118.9 80.7 110.8 73.9C108.1 71.6 104.6 74.9 106.3 77.9C110.1 84.7 114.8 93.3 112.4 101.4C109.8 110.4 99.3 114.2 92.5 119.4C80.1 128.8 75 147.5 87.3 159.3C88.4 160.4 90.3 158.7 89.3 157.4V157.4Z" fill="#B4B4B4" fill-opacity="0.2"/>
<path d="M1843.9 917.4C1849.7 923.8 1850.1 933.5 1847.1 941.4C1843.8 950 1835.9 954.3 1829.5 960.2C1823.6 965.6 1819.7 972.4 1820.5 980.7C1820.9 984.9 1822.5 988.9 1824.5 992.6C1810.3 987.8 1794.6 991 1782.6 1000.9C1774.2 1007.8 1767.2 1016.8 1757.1 1021.3C1752.7 1023.2 1747.5 1024.4 1742.8 1023C1738.4 1021.6 1733.4 1017.5 1734.6 1012.5C1734.9 1011.1 1732.9 1010.3 1732.4 1011.7C1729.7 1019.5 1736.2 1026.5 1743.5 1028C1753.2 1030.1 1763 1025.4 1770.5 1019.5C1780.3 1011.7 1788.3 1000.9 1801 997.5C1811.2 994.8 1822.3 996.6 1831 1002.6C1833.9 1004.6 1837 1001 1835.1 998.2C1830.6 991.8 1825.1 983.7 1826.6 975.5C1828.3 966.3 1838.3 961.4 1844.6 955.6C1856 945 1859.2 925.9 1845.7 915.4C1844.5 914.3 1842.8 916.2 1843.9 917.4V917.4Z" fill="#B4B4B4" fill-opacity="0.2"/>
<path d="M1767.01 788.415C1757.91 784.815 1747.51 784.015 1737.91 782.515C1732.81 781.715 1727.71 780.915 1722.61 780.015C1717.51 779.115 1712.41 777.915 1707.31 777.615C1706.71 777.615 1706.41 778.415 1707.01 778.715C1711.51 780.415 1716.51 781.215 1721.31 782.115C1726.41 783.115 1731.51 784.015 1736.61 784.815C1741.61 785.615 1746.71 786.215 1751.81 787.015C1756.81 787.815 1761.71 789.215 1766.61 790.315C1767.71 790.515 1768.01 788.815 1767.01 788.415ZM1771.71 778.815C1752.21 776.915 1733.21 770.315 1713.61 769.315L1713.51 769.215C1713.31 769.115 1713.21 769.215 1713.11 769.215C1711.61 769.115 1710.21 769.115 1708.71 769.115C1707.91 769.115 1707.71 770.215 1708.61 770.415C1719.11 772.215 1729.51 773.715 1739.91 776.015C1750.41 778.315 1760.81 780.715 1771.51 781.815C1773.31 781.915 1773.61 778.915 1771.71 778.815ZM1774.51 773.315C1769.41 770.815 1763.11 769.715 1757.71 768.315C1752.61 767.015 1747.51 765.815 1742.31 764.815C1736.91 763.815 1731.51 762.915 1726.01 762.115C1723.21 761.715 1720.31 761.415 1717.51 761.015C1715.91 760.815 1714.31 760.515 1712.81 760.015C1711.71 759.615 1711.01 759.115 1709.91 759.115C1709.61 759.115 1709.51 759.315 1709.61 759.515C1710.91 763.315 1718.11 763.715 1721.41 764.115C1727.41 764.915 1733.41 765.915 1739.31 767.115C1745.31 768.315 1751.21 769.615 1757.11 771.115C1762.61 772.515 1768.21 774.815 1773.91 775.715C1775.51 776.215 1775.81 773.915 1774.51 773.315ZM1763.61 757.015C1761.61 755.715 1759.11 755.415 1756.91 754.915C1753.91 754.215 1750.91 753.615 1747.91 753.115C1742.11 752.115 1736.21 751.215 1730.31 751.415C1730.21 751.415 1730.11 751.615 1730.21 751.715C1732.01 753.415 1734.61 753.515 1737.01 753.915C1740.01 754.315 1743.01 754.915 1746.01 755.415C1748.81 755.915 1751.61 756.515 1754.41 757.115C1757.21 757.815 1760.11 759.015 1763.11 758.915C1764.01 758.815 1764.31 757.415 1763.61 757.015ZM1763.11 744.415C1759.51 742.215 1754.51 741.915 1750.41 741.215C1745.71 740.415 1740.91 739.615 1736.11 739.515C1734.51 739.515 1734.31 741.615 1735.91 742.015C1740.41 743.115 1745.01 743.715 1749.61 744.615C1753.71 745.415 1758.31 747.315 1762.51 747.015C1763.71 746.815 1764.11 745.015 1763.11 744.415ZM1784.31 787.515C1785.61 782.815 1786.81 778.115 1787.81 773.315C1790.01 763.315 1791.41 753.015 1792.31 742.815C1792.61 739.715 1794.11 734.315 1790.71 732.315C1788.91 731.215 1786.41 730.915 1784.41 730.315C1781.71 729.515 1779.01 728.715 1776.31 728.015C1766.01 725.115 1755.71 722.315 1745.31 719.715C1733.71 716.815 1722.11 713.915 1710.31 712.015C1709.21 711.815 1708.71 713.615 1709.81 714.015C1728.71 719.515 1747.91 723.815 1766.81 729.115C1771.51 730.415 1776.21 731.715 1780.91 733.115C1783.11 733.715 1785.81 734.215 1787.91 735.215C1790.01 736.215 1788.91 739.415 1788.71 741.415C1787.81 750.715 1786.31 760.015 1784.41 769.215C1783.31 774.715 1782.01 780.115 1780.61 785.515C1780.01 787.915 1779.31 790.415 1778.61 792.815C1778.01 795.115 1777.11 797.515 1777.61 799.815C1777.71 800.415 1778.51 800.815 1779.01 800.315C1782.31 797.515 1783.21 791.515 1784.31 787.515ZM1699.61 768.615C1700.21 766.015 1700.61 763.515 1701.01 760.915C1701.81 756.115 1702.61 751.415 1703.51 746.615C1705.31 736.815 1708.11 727.015 1709.31 717.115C1709.51 715.815 1707.61 715.415 1707.11 716.615C1703.51 725.915 1701.81 736.015 1699.91 745.715C1698.91 750.615 1698.01 755.615 1697.21 760.515C1696.81 763.115 1696.41 765.615 1696.21 768.215C1696.01 770.215 1695.71 772.215 1696.61 774.115C1696.81 774.515 1697.31 774.515 1697.51 774.215C1699.01 772.715 1699.21 770.615 1699.61 768.615Z" fill="#B4B4B4" fill-opacity="0.2"/>
<path d="M147.247 286.935C146.347 286.035 145.247 285.135 143.547 284.935H143.247C141.147 284.035 138.647 284.235 136.547 285.735C136.247 285.935 135.947 286.135 135.747 286.435C133.147 285.535 130.547 284.635 128.047 283.935C126.847 283.535 125.647 283.235 124.547 282.835C118.947 281.035 113.247 279.335 107.747 277.635L105.747 277.035C105.747 276.235 105.647 275.535 105.447 275.035C103.947 271.935 99.4467 270.535 97.1467 271.135C95.6467 271.535 94.5468 272.235 93.8468 273.335C90.6468 272.335 86.9468 271.235 83.3468 270.135C81.8468 269.735 80.4468 269.235 79.0468 268.835C77.2468 268.235 75.4468 267.635 73.5468 267.135C72.6468 266.835 71.7468 266.535 70.7468 266.235C69.8468 265.935 68.8468 265.635 67.8468 265.335C67.7468 265.335 67.5468 265.235 67.2468 265.135C66.2468 264.735 64.8468 264.235 63.5468 264.035C61.7468 263.835 60.8468 264.535 60.4468 265.135C59.9468 265.835 59.8468 266.835 60.2468 267.735C61.3468 270.135 64.5468 270.935 66.9468 271.435C67.6468 271.635 68.2467 271.735 68.6467 271.835C75.5467 274.235 82.6468 276.635 90.3468 279.135C90.2468 280.235 90.4468 281.335 90.8468 282.135C91.6468 283.835 92.9468 285.035 94.4468 285.535C95.2468 285.835 95.9468 285.935 96.7468 285.935C99.3468 292.735 102.247 299.535 104.947 306.135C105.947 308.435 106.947 310.835 107.847 313.135L109.147 316.335C111.047 320.835 112.947 325.435 114.947 329.935C115.347 330.735 115.647 331.535 116.047 332.435C116.947 334.635 117.947 336.835 118.947 339.035C117.847 340.035 117.047 341.235 116.647 342.435C115.547 345.535 116.747 348.835 119.547 350.435C121.347 351.435 123.447 351.535 125.247 350.735C126.247 350.335 127.147 349.635 127.847 348.735C127.847 348.635 127.947 348.635 127.947 348.535C129.347 347.535 130.247 345.635 130.347 344.235C130.547 342.535 129.947 340.535 128.947 339.335C128.147 338.435 127.147 337.735 126.047 337.335C125.047 334.735 123.947 332.235 122.947 329.735C122.647 329.035 122.347 328.235 122.047 327.535C119.947 322.635 117.747 317.735 115.647 313.035L114.447 310.235C112.847 306.535 111.347 302.935 109.847 299.535C107.747 294.635 105.647 289.535 103.247 284.435C103.547 284.335 103.747 284.135 104.047 283.935C106.347 284.635 108.547 285.235 110.647 285.835C112.747 286.335 114.947 286.935 117.247 287.635C118.847 288.135 120.447 288.635 122.147 289.235C125.647 290.335 129.147 291.535 132.747 292.535C132.647 293.135 132.647 293.835 132.747 294.435C132.947 296.435 133.847 298.235 135.247 299.635C136.847 301.235 139.347 301.935 141.747 301.535C144.747 301.135 147.347 299.035 148.647 295.735C149.647 293.235 149.647 289.335 147.247 286.935V286.935Z" fill="#B4B4B4" fill-opacity="0.2"/>
<path d="M378.865 885.011C378.765 885.011 378.765 885.011 378.865 885.011ZM325.165 909.011C324.065 907.611 322.065 906.911 320.465 907.611C318.365 907.511 317.065 909.311 316.865 911.211C316.765 912.211 316.865 913.311 317.365 914.211C317.965 915.211 318.965 915.811 320.065 916.011C321.965 916.511 324.065 915.911 325.165 914.411C326.265 912.811 326.465 910.511 325.165 909.011ZM349.065 930.911C349.165 932.111 350.165 933.311 351.265 933.511C352.465 934.311 353.965 933.811 354.765 932.811C355.165 932.311 355.565 931.611 355.565 930.811C355.565 930.011 355.165 929.311 354.665 928.711C353.765 927.711 352.265 927.311 350.965 927.711C349.865 928.211 348.965 929.511 349.065 930.911ZM312.165 934.911C312.765 935.211 313.665 935.211 314.165 934.711C314.965 934.411 315.165 933.511 314.965 932.811C314.865 932.411 314.665 932.011 314.265 931.811C313.865 931.511 313.465 931.511 312.965 931.511C312.165 931.611 311.465 932.211 311.265 932.911C311.165 933.611 311.465 934.511 312.165 934.911ZM324.265 951.711C324.665 952.511 325.465 953.211 326.365 953.111C327.365 953.411 328.265 952.811 328.665 951.811C328.865 951.311 328.965 950.811 328.865 950.311C328.765 949.711 328.265 949.311 327.765 949.011C326.865 948.511 325.765 948.511 324.965 949.111C324.265 949.711 323.865 950.811 324.265 951.711ZM332.465 950.811C331.465 952.511 331.465 954.911 332.765 956.311C333.465 958.511 335.865 959.311 337.965 958.811C339.065 958.511 340.165 958.011 340.865 957.111C341.665 956.111 341.865 954.811 341.765 953.611C341.565 951.411 340.065 949.411 338.065 948.811C335.965 948.111 333.565 948.811 332.465 950.811ZM363.065 932.011C361.965 933.011 361.465 934.711 362.065 936.011C362.165 937.811 363.665 938.811 365.265 938.911C366.065 938.911 367.065 938.811 367.765 938.311C368.565 937.811 368.965 936.911 369.165 935.911C369.465 934.311 368.865 932.511 367.565 931.611C366.265 930.811 364.365 930.811 363.065 932.011ZM365.365 911.211C362.265 909.811 358.165 910.311 356.065 912.711C352.465 914.411 351.565 918.611 352.765 922.011C353.465 923.811 354.565 925.611 356.165 926.711C357.965 927.911 360.265 928.011 362.365 927.611C366.065 926.811 369.165 923.911 369.865 920.411C370.565 916.811 368.865 912.811 365.365 911.211ZM365.965 880.711C347.065 872.111 322.365 875.311 309.065 890.111C286.965 900.211 281.665 925.811 289.265 946.911C293.265 957.911 299.965 968.711 310.265 975.411C321.165 982.511 335.365 983.411 347.965 980.711C370.465 975.911 389.665 958.211 393.865 936.611C398.065 914.811 387.665 890.611 365.965 880.711ZM355.765 967.511C346.765 971.511 336.065 973.411 326.265 971.311C315.665 969.011 308.365 961.611 303.365 952.911C294.665 937.911 292.365 917.611 302.565 903.811C303.565 904.611 305.365 904.611 306.265 903.411C318.465 888.211 337.265 880.611 356.865 887.011C375.065 892.911 385.665 910.211 385.165 928.011C384.565 945.611 372.065 960.211 355.765 967.511Z" fill="#B4B4B4" fill-opacity="0.2"/>
<path d="M1549.26 427.972C1541.26 429.272 1534.06 428.072 1526.36 426.472C1520.86 425.372 1513.56 425.772 1509.36 429.972C1508.76 430.572 1509.26 431.572 1510.06 431.372C1513.66 430.772 1516.86 429.572 1520.56 429.672C1524.36 429.772 1528.06 431.072 1531.76 431.772C1538.16 433.072 1544.16 432.372 1550.16 430.172C1551.46 429.772 1550.66 427.772 1549.26 427.972ZM1550.56 418.272C1544.16 416.472 1536.16 416.172 1529.56 416.572C1524.96 416.872 1519.86 418.272 1517.76 422.672C1517.66 422.972 1517.96 423.272 1518.26 423.072C1528.26 416.572 1539.46 421.572 1550.46 419.772C1551.16 419.772 1551.26 418.472 1550.56 418.272ZM1551.96 408.472C1543.66 410.672 1527.56 399.372 1523.46 411.872C1523.26 412.472 1524.06 412.772 1524.36 412.372C1528.76 406.972 1536.26 410.272 1541.56 411.472C1545.66 412.372 1548.96 412.172 1552.56 409.772C1553.16 409.372 1552.56 408.372 1551.96 408.472ZM1573.56 403.972C1565.66 390.472 1549.86 384.372 1534.76 386.372C1518.36 388.472 1502.36 399.172 1493.06 412.672C1483.76 426.172 1483.16 447.172 1499.26 455.872C1499.36 455.972 1499.56 455.972 1499.66 455.972C1495.56 462.172 1491.76 468.572 1486.66 474.272C1484.96 476.272 1486.76 479.972 1489.46 478.472C1495.76 474.972 1501.96 471.372 1508.26 467.672C1511.16 465.972 1514.06 464.272 1516.86 462.372C1519.26 460.672 1521.76 459.272 1523.56 456.972C1537.66 458.072 1552.16 454.472 1563.56 445.672C1575.96 435.772 1581.96 418.272 1573.56 403.972ZM1563.16 439.772C1550.56 451.572 1530.66 454.372 1514.06 452.172C1512.36 451.972 1511.66 454.772 1513.46 455.272C1515.06 455.672 1516.76 455.972 1518.36 456.272C1517.16 456.872 1515.86 457.472 1514.66 458.072C1511.36 459.672 1508.26 461.472 1505.16 463.272L1497.96 467.472C1500.56 463.472 1502.76 459.172 1504.16 454.672C1504.66 452.972 1502.36 451.772 1501.36 453.272C1501.16 453.572 1500.96 453.772 1500.86 454.072L1500.56 453.772C1489.06 445.672 1489.86 429.372 1496.56 418.472C1503.66 406.772 1516.56 397.572 1529.66 393.872C1542.56 390.272 1556.76 392.672 1565.96 402.972C1575.96 414.172 1573.86 429.772 1563.16 439.772Z" fill="#B4B4B4" fill-opacity="0.2"/>
<path d="M392.034 404.507C390.034 401.907 387.334 400.307 384.334 399.907C385.234 395.807 385.034 391.607 383.834 387.707C383.334 386.207 382.734 384.707 381.934 383.307C381.834 383.207 381.734 383.007 381.734 382.907C378.734 377.807 373.934 374.207 368.134 372.707C356.434 369.707 344.834 376.507 341.234 388.207C338.334 386.307 334.634 384.707 330.934 384.907C329.434 385.007 327.834 385.407 326.334 386.207C324.834 387.007 323.634 388.107 322.734 389.407C321.434 391.207 320.734 393.307 320.834 395.507C319.034 395.107 317.334 395.007 315.634 395.207C313.534 395.407 311.434 396.007 309.434 397.007C308.334 397.607 307.234 398.207 306.234 399.107C300.834 403.407 297.634 410.507 298.034 417.607C298.434 425.407 302.534 432.707 308.934 436.707C313.634 439.707 319.034 440.507 324.334 439.207C326.134 440.707 328.134 442.007 330.334 442.907C335.134 444.907 340.634 445.007 345.534 443.407C350.834 441.807 355.034 439.607 357.934 434.907C358.434 434.107 358.934 433.307 359.334 432.407C358.934 433.307 362.634 435.007 363.134 435.207C369.434 437.607 376.834 435.407 382.534 432.507C388.034 429.607 392.834 425.007 394.534 418.807C394.834 417.807 395.034 416.807 395.134 415.707C395.134 415.207 395.234 414.807 395.234 414.307C395.334 410.807 394.234 407.207 392.034 404.507V404.507ZM389.834 417.807C387.934 424.207 380.434 428.707 374.334 430.407C369.634 431.707 365.034 431.007 361.434 427.607C360.334 426.607 358.934 425.407 357.534 426.007C356.134 426.507 355.734 428.407 355.134 429.707C354.434 431.307 353.634 432.907 352.434 434.307C350.634 436.407 348.334 436.807 345.834 438.007C341.434 440.107 336.434 440.207 331.834 438.307C330.634 437.807 329.434 437.107 328.434 436.407C327.434 435.707 326.434 434.807 325.634 433.907C325.534 433.907 325.434 434.007 325.234 434.007C323.634 434.607 321.934 435.007 320.334 435.107C316.934 435.307 313.534 434.307 310.534 432.207C305.434 428.607 302.334 422.407 302.534 416.007C302.634 410.707 305.134 405.807 309.034 402.807C309.434 402.507 309.834 402.207 310.234 402.007C311.434 401.207 312.734 400.707 314.134 400.407C317.134 399.707 320.234 400.007 323.334 401.507C324.234 401.907 325.234 401.707 326.034 400.807C326.734 400.007 326.834 399.007 326.334 398.107C325.134 396.107 324.934 394.407 325.934 392.907C327.334 390.807 330.934 389.507 334.034 390.107C336.834 390.607 339.134 392.407 341.334 394.107C341.934 394.607 342.734 394.707 343.534 394.407C344.334 394.107 345.034 393.307 345.134 392.407C345.934 387.107 348.934 382.307 353.334 379.507C357.434 376.807 362.334 376.007 367.134 377.307C371.934 378.607 375.834 381.707 378.034 386.007C380.434 390.707 380.634 396.407 378.634 401.507C378.334 402.307 378.434 403.307 379.034 404.007C379.634 404.707 380.534 405.107 381.434 404.907C384.434 404.307 386.334 405.607 387.434 406.907C389.534 409.107 390.334 412.707 390.234 415.707C390.234 416.407 390.034 417.107 389.834 417.807V417.807Z" fill="#B4B4B4" fill-opacity="0.2"/>
<path d="M1519.84 926.446C1520.86 926.663 1521.92 927.015 1522.94 927.232C1525.25 927.81 1527.73 928.484 1530.13 928.886C1531.6 929.119 1533.03 929.217 1534.46 929.315C1536.47 929.39 1538.57 929.512 1540.56 930.034C1540.87 930.09 1541.09 930.322 1541.03 930.633C1541.02 930.856 1540.88 931.119 1540.56 931.287C1536.85 932.447 1532.24 932.321 1527.81 931.261C1524.66 930.562 1521.7 929.513 1519.14 928.344C1518.7 928.104 1518.5 927.649 1518.65 927.162C1518.85 926.588 1519.35 926.293 1519.84 926.446ZM1596.33 914.157C1597.56 913.576 1599.36 913.195 1600.87 913.564C1600.67 912.886 1600.34 912.247 1599.91 911.783C1599.3 911.224 1598.6 910.84 1597.8 910.855C1596.99 910.869 1596.26 911.156 1595.7 911.762C1595.47 911.977 1595.11 912.008 1594.76 911.816C1594.55 911.584 1594.47 911.313 1594.66 910.962C1595.51 909.606 1597.19 909.042 1598.92 909.42C1600.57 909.749 1601.94 911.188 1602.55 913C1603.83 917.12 1601.44 921.059 1598.73 923.107C1597.26 924.126 1595.03 925.073 1593.08 924.687C1592.99 924.639 1592.99 924.639 1592.85 924.679C1592.54 924.622 1592.37 924.303 1592.38 924.079C1592.44 923.768 1592.58 923.505 1592.94 923.474C1594.88 923.053 1596.46 922.664 1598.03 921.469C1599.46 920.314 1600.55 918.744 1600.92 917.012C1601.04 916.39 1601.2 915.68 1601.17 915.097L1601.09 915.049C1600.55 914.985 1600.1 914.968 1599.66 914.951C1598.8 915.054 1597.95 915.157 1597.17 915.531C1595.81 916.151 1594.43 917.219 1593.34 918.789C1593.24 918.965 1592.97 919.044 1592.71 918.9C1592.45 918.756 1592.37 918.485 1592.46 918.309C1592.94 916.403 1594.29 914.976 1596.33 914.157ZM1492.45 841.922C1492.8 841.085 1493.14 840.247 1493.44 839.497L1493.7 839.641C1493.75 838.301 1493.94 836.92 1494.47 835.732C1495.17 833.833 1496.39 832.223 1497.91 831.116C1498.7 830.518 1499.61 830.105 1500.38 829.73C1500.7 829.563 1501.11 829.444 1501.25 829.181C1501.4 828.918 1501.45 828.607 1501.21 828.016C1501.08 827.832 1501 827.561 1500.96 827.425C1500.67 826.698 1500.3 825.923 1500.33 825.03C1500.32 824 1500.92 822.501 1502.17 822.502C1502.67 822.431 1503.19 822.719 1503.54 822.911L1503.89 823.103L1505.88 823.848C1507.12 824.297 1508.4 824.658 1509.55 825.058C1510.04 825.211 1510.43 825.315 1510.92 825.467C1510.81 824.837 1510.88 824.078 1511 823.456C1511.42 821.637 1512.72 820.298 1514.41 819.51C1518.5 817.872 1522.29 820.519 1525.35 822.646L1526.09 823.166C1529.71 825.717 1533.6 828.188 1538.03 829.471C1541.26 830.441 1544.82 830.797 1549.26 830.604C1552.45 830.409 1555.73 830.038 1558.83 829.572C1563.24 829.019 1567.92 828.387 1572.39 828.553C1576.54 828.662 1580.09 829.465 1583.22 830.834C1586.79 832.443 1589.78 835.105 1592.72 837.631L1593.9 838.614C1597.54 841.748 1601.25 844.347 1605.02 846.411L1605.11 846.459C1605.9 846.891 1606.3 846.995 1606.57 846.692C1606.85 846.39 1607.05 845.815 1607.21 845.329C1607.26 845.017 1607.36 844.842 1607.42 844.531C1607.72 843.558 1607.99 842.449 1608.69 841.58C1609.2 841.062 1609.75 840.679 1610.47 840.616C1610.96 840.545 1611.44 840.921 1611.65 841.376C1612.57 844.275 1613.36 847.213 1613.96 850.278C1614.79 849.593 1615.85 848.916 1617.11 848.694C1618.78 848.353 1620.49 849.178 1621.38 850.464C1622.4 851.934 1621.98 853.753 1620.35 855.482C1619.23 856.694 1618.07 857.77 1616.6 858.789C1618.29 861.314 1619.25 864.571 1619.58 868.969C1619.83 873.096 1619.75 877.613 1619.2 882.783C1618.21 892.503 1615.8 901.901 1612.03 910.667C1610.26 914.942 1608.01 919.065 1605.54 922.956C1605.05 924.057 1604.47 925.11 1603.81 926.114C1602.06 928.69 1599.62 930.434 1597.14 931.013C1595.06 931.473 1592.92 931.215 1591.17 930.255C1589.51 937.667 1587.45 944.751 1582.26 949.66C1579.25 952.457 1575.39 953.881 1571.36 955.208C1563.21 957.814 1554.35 958.784 1545.17 957.861C1541.91 957.561 1538.67 957.038 1535.43 956.292C1530.32 955.207 1525.05 953.58 1519.54 951.361C1512.79 948.695 1505.8 945.437 1497.55 940.924C1493.52 938.716 1489.75 936.428 1487.71 932.459C1485.38 927.763 1486.17 922.153 1487.48 916.832L1487.7 915.811C1488.82 911.064 1489.98 906.229 1488.81 901.71C1488.49 900.624 1488.08 899.49 1487.63 898.444C1486.94 896.584 1486.16 894.675 1486.01 892.656C1485.94 890.908 1486.32 889.177 1486.78 887.493C1486.84 887.182 1486.98 886.919 1487.04 886.608C1488.67 880.09 1488.84 873.115 1489.13 866.323C1489.39 858.143 1489.57 849.692 1492.45 841.922ZM1488.44 890.911C1488.63 893.29 1489.25 895.685 1490.63 898.377C1491.41 894.243 1492.15 889.975 1492.89 885.706C1492.2 884.875 1491.7 883.917 1491.29 883.006C1491.08 882.551 1490.88 882.096 1490.72 881.553C1490.19 882.518 1489.8 883.443 1489.44 884.504C1488.56 886.53 1488.26 888.756 1488.44 890.911ZM1613.91 898.698C1616.44 889.707 1617.58 880.531 1617.43 871.44C1617.32 867.051 1616.86 862.469 1614.12 859.369C1613.81 859.089 1613.78 858.73 1613.8 858.283C1613.85 857.972 1614.05 857.621 1614.37 857.453C1615.65 856.561 1616.85 855.621 1617.87 854.585L1618.1 854.37C1619.08 853.422 1619.87 852.601 1619.5 851.826C1619.29 851.371 1618.85 851.131 1618.36 850.979C1618.05 850.922 1617.69 850.954 1617.42 851.033C1616.25 851.303 1615.14 852.291 1614.16 853.239C1613.88 853.542 1613.34 853.701 1612.85 853.549C1612.46 853.444 1612.2 853.077 1612.17 852.718C1611.57 849.652 1610.92 846.675 1610.04 843.689C1609.85 844.039 1609.75 844.438 1609.69 844.749C1609.64 844.837 1609.63 845.061 1609.54 845.236C1609.22 846.433 1608.82 847.805 1607.63 848.522C1606.02 849.581 1604.14 848.437 1602.87 847.629L1602.26 847.293C1600.46 846.197 1598.58 845.053 1596.79 843.734C1594.92 842.367 1593.23 840.872 1591.54 839.377C1589.98 838.066 1588.38 836.62 1586.77 835.396C1583.67 833.133 1580.28 831.62 1576.64 830.993C1570.9 830.019 1565.01 830.785 1559.29 831.647C1557.81 831.861 1556.19 832.114 1554.62 832.279C1551.56 832.658 1547.52 832.956 1543.55 832.719C1539.48 832.434 1535.54 831.303 1531.9 829.423C1529.57 828.262 1527.34 826.703 1525.69 825.567C1525.21 825.192 1524.68 824.904 1524.2 824.528C1522.72 823.488 1521.2 822.313 1519.47 821.712C1517.8 821.023 1515.56 820.94 1514.13 822.319C1513.57 822.925 1513.22 823.762 1513.24 824.569C1513.22 825.015 1513.42 825.694 1513.94 826.206C1514.33 826.533 1514.44 827.164 1514.15 827.69C1513.91 828.129 1513.41 828.424 1512.92 828.271C1509.51 827.429 1506.1 826.362 1502.79 825.121C1502.77 825.568 1503.11 826.207 1503.23 826.39L1503.27 826.526C1503.69 827.437 1504.05 828.435 1503.79 829.544C1503.42 831.052 1502.14 831.72 1500.96 832.213C1500.5 832.42 1500.1 832.539 1499.73 832.794C1497.07 834.53 1495.68 838.104 1496.29 841.169C1497.14 844.826 1500.45 847.097 1503.47 849.088L1503.94 849.464C1507.61 851.927 1511.51 854.175 1515.86 856.44L1516.39 856.728C1515.88 855.77 1515.48 854.636 1514.98 853.454L1514.91 853.182C1514.46 851.913 1513.73 849.917 1514.49 848.736C1514.68 848.386 1515.14 847.955 1516 847.853C1516.99 847.71 1517.91 848.103 1518.75 848.447C1518.93 848.543 1519.24 848.599 1519.41 848.695C1520.56 849.096 1521.8 849.545 1522.95 849.945C1525.6 850.938 1528.37 852.115 1530.91 853.731C1531.17 853.875 1531.34 854.195 1531.28 854.506C1531.22 854.817 1531.03 855.168 1530.76 855.247C1530.49 855.327 1530.27 855.318 1530 855.174C1528.99 854.734 1528.06 854.342 1527.05 853.901C1525.6 853.221 1524.01 852.58 1522.43 851.94C1521.1 851.443 1519.78 850.946 1518.4 850.537L1518.01 850.433C1517.61 850.329 1517.12 850.177 1516.72 850.072L1516.63 850.024C1516.55 849.976 1516.46 849.928 1516.32 849.968C1516.36 850.104 1516.44 850.375 1516.39 850.463L1516.43 850.599C1517.11 852.906 1517.93 854.95 1519.11 856.74C1519.54 857.427 1520.05 858.161 1520.6 858.809C1527.38 861.835 1534.55 864.159 1542.05 865.869C1545.51 866.624 1549.24 867.3 1553.42 867.992C1552.07 867.136 1550.77 865.969 1549.65 864.675C1548.41 863.197 1547.39 861.727 1546.69 860.09L1546.56 859.906C1546.02 858.812 1544.95 856.4 1546.55 855.341C1547.29 854.831 1548.26 855.136 1548.93 855.384C1549.01 855.432 1549.19 855.528 1549.32 855.488L1555.87 857.477L1556.05 857.573C1556.8 857.869 1557.2 857.973 1557.51 858.03C1557.38 857.846 1557.34 857.71 1557.25 857.662C1557.21 857.526 1557.13 857.478 1557.09 857.343L1555.58 854.467C1555.54 854.332 1555.45 854.284 1555.42 854.148C1555.16 853.781 1554.87 853.277 1554.93 852.743C1554.87 852.024 1555.2 851.634 1555.56 851.379C1556.53 850.654 1558.12 851.071 1559.1 851.376C1559.27 851.472 1559.41 851.432 1559.5 851.48L1561.23 851.858C1563.05 852.283 1564.87 852.708 1566.82 853.094C1568.02 853.407 1569.13 853.672 1570.32 853.985C1570.55 853.993 1570.72 854.089 1571.03 854.146C1571.97 854.314 1572.99 854.531 1573.59 855.314L1573.71 855.498L1573.71 855.721L1573.65 856.033L1573.47 856.16C1572.69 856.534 1571.84 856.413 1571.22 856.301C1571.13 856.253 1570.91 856.244 1570.82 856.196C1569.8 855.979 1568.73 855.85 1567.71 855.633C1565.76 855.248 1563.8 854.862 1561.9 854.388L1558.03 853.529C1558.2 853.849 1558.37 854.168 1558.62 854.535C1558.79 854.855 1558.87 855.126 1559.08 855.358C1559.21 855.542 1559.34 855.726 1559.42 855.997C1559.75 856.636 1560.18 857.323 1560.37 858.002C1560.48 858.856 1560.19 859.382 1559.91 859.685C1559.21 860.33 1558.14 860.425 1557.2 860.256C1555.87 859.983 1554.63 859.534 1553.35 859.173C1552.77 858.973 1552.11 858.724 1551.49 858.612L1548.75 857.794L1548.66 857.746L1548.7 857.882C1548.74 858.018 1548.83 858.066 1548.78 858.153C1549.35 859.607 1550.11 860.932 1551.09 862.267C1553.09 864.847 1555.92 866.966 1559.36 868.391C1559.54 868.487 1559.71 868.583 1559.79 868.855C1563.09 869.29 1566.38 869.726 1569.64 870.026L1571.02 870.211C1573.47 870.526 1575.92 870.84 1578.33 871.019L1579.4 871.148C1579.45 871.061 1579.58 871.021 1579.67 871.069C1580.03 871.038 1580.43 871.142 1580.59 871.461C1581.02 872.148 1581.26 872.963 1581.49 873.777L1581.73 874.591C1582.01 875.541 1582.38 876.54 1582.74 877.538C1583.56 879.582 1584.48 881.451 1585.44 883.232C1586.49 885.061 1587.64 886.714 1588.92 888.328C1589.6 889.159 1590.38 890.038 1590.94 890.685C1591.49 891.333 1592.48 892.443 1593.51 892.437C1593.96 892.453 1594.26 892.733 1594.38 893.14C1594.5 893.548 1594.26 893.986 1593.85 894.105C1593.13 894.392 1592.45 894.367 1591.74 894.206C1591.63 896.082 1591.45 898.492 1591.41 900.862C1591.41 902.115 1591.53 903.551 1592.21 904.606C1592.81 905.389 1593.68 906.092 1594.63 905.814C1595.44 905.576 1596.09 905.018 1596.78 904.373C1597.48 903.727 1598.17 903.082 1599.12 902.804C1601.98 901.746 1604.15 904.87 1604.87 905.836C1606.11 907.538 1606.92 909.806 1607.41 912.241C1607.63 913.502 1607.72 914.803 1607.67 916.144C1610.08 910.281 1612.31 904.546 1613.91 898.698ZM1493.15 878.779C1493.97 869.77 1495.87 860.89 1498.83 852.362L1499.85 852.579L1490.14 921.137C1489.54 925.366 1489.21 929.516 1491.01 932.671C1492.36 935.003 1494.77 936.435 1497.4 937.875C1507.75 943.54 1521.59 950.542 1536.33 953.595C1544.64 955.291 1552.63 955.677 1560.23 954.706C1564.28 954.184 1568.3 953.304 1571.97 952.008C1575.59 950.8 1579.36 949.329 1582.02 946.34C1582.26 946.125 1582.4 945.861 1582.58 945.734C1582.73 945.471 1582.96 945.256 1583.06 945.08C1583.9 943.948 1584.57 942.72 1585.21 941.356C1587.24 937.225 1588.22 932.517 1589.19 928.034C1589.3 927.635 1589.62 927.244 1590.03 927.125C1590.17 927.085 1590.44 927.006 1590.61 927.102C1590.84 927.11 1591.01 927.206 1591.14 927.39C1592.57 928.741 1594.7 929.222 1596.82 928.675C1598.81 928.167 1600.65 926.669 1602.08 924.484C1604.5 920.68 1605.4 915.702 1604.44 911.415C1603.94 909.203 1603.03 907.334 1601.74 905.944C1601 905.201 1600.36 904.505 1599.54 904.744C1599 904.903 1598.4 905.373 1597.89 905.891L1597.66 906.106C1596.13 907.437 1594.29 908.711 1592.09 907.734C1590.07 906.854 1588.81 904.569 1588.7 901.433C1588.59 898.52 1588.97 895.535 1589.29 892.862C1588.51 892.206 1587.86 891.511 1587.18 890.68C1585.68 888.835 1584.32 886.949 1583.14 884.937C1581.92 882.788 1580.93 880.648 1580.07 878.468C1579.58 877.062 1579.26 875.977 1578.95 874.891L1578.87 874.619C1578.79 874.348 1578.67 873.941 1578.64 873.581C1578.01 873.469 1577.34 873.444 1576.72 873.331C1576.27 873.315 1575.88 873.211 1575.43 873.194L1567.41 872.225C1557.03 870.99 1546.34 869.698 1535.88 866.938C1531.4 865.743 1526.98 864.237 1522.71 862.467C1522.57 862.507 1522.43 862.546 1522.26 862.45C1521.42 862.106 1520.54 861.849 1519.75 861.194C1515.7 859.432 1511.76 857.272 1507.94 855.072C1505.62 853.688 1503.61 852.361 1501.56 850.897C1499.73 849.666 1497.94 848.346 1496.35 846.676C1494.93 845.102 1494.1 843.505 1493.62 841.876C1491.29 854.052 1491 866.661 1493.15 878.779ZM1507.89 877.043C1509.61 876.615 1511.26 876.721 1513.22 876.883C1514.74 877.029 1516.43 877.271 1518.3 877.608C1520.03 877.986 1521.76 878.363 1523.39 878.916C1524.45 879.269 1525.25 879.478 1526 879.774L1526.27 879.918C1526.84 880.118 1527.59 880.415 1527.92 881.054C1527.96 881.189 1528 881.325 1527.91 881.5C1527.86 881.588 1527.76 881.764 1527.63 881.803C1526.99 882.138 1526.33 881.889 1525.75 881.689C1525.66 881.641 1525.58 881.593 1525.44 881.633L1525.13 881.576C1524.42 881.416 1523.67 881.12 1522.96 880.959C1521.28 880.494 1519.55 880.116 1517.81 879.739C1516.35 879.505 1514.7 879.176 1512.74 879.013C1512.29 878.997 1511.89 878.893 1511.45 878.876C1510.38 878.747 1509.26 878.705 1508.24 878.488C1508.02 878.48 1507.84 878.384 1507.62 878.376C1507.3 878.32 1507.23 878.048 1507.23 877.825C1507.47 877.386 1507.62 877.123 1507.89 877.043ZM1548.89 886.485C1548.71 886.389 1548.64 886.118 1548.56 885.847C1548.56 885.623 1548.71 885.36 1548.98 885.28C1549.62 884.946 1550.38 885.019 1551 885.132L1551.22 885.14C1552.29 885.269 1553.1 885.254 1553.86 885.327C1555.82 885.489 1557.46 885.819 1559.02 886.1L1563.95 887.089L1564.57 887.201C1566.08 887.571 1567.72 887.9 1569.03 888.844C1569.29 888.988 1569.41 889.395 1569.36 889.706C1569.3 890.017 1568.93 890.272 1568.62 890.216C1567.32 890.302 1566.04 889.941 1564.75 889.58C1564.44 889.524 1564.04 889.419 1563.73 889.363C1562 888.986 1560.36 888.656 1558.71 888.327C1557.16 888.045 1555.51 887.716 1553.91 887.522L1552.75 887.345C1552.3 887.328 1551.91 887.224 1551.37 887.159C1551.28 887.111 1551.06 887.103 1550.92 887.143L1549.99 886.974C1549.5 886.822 1549.24 886.677 1548.89 886.485ZM1512.5 886.747L1512.9 886.627C1513.18 886.548 1513.36 886.421 1513.63 886.341L1513.9 886.262C1514.35 886.278 1514.84 886.207 1515.29 886.224L1515.47 886.32C1515.95 886.472 1516.3 886.664 1516.65 886.856L1517.09 887.096C1517.52 887.56 1517.87 887.975 1518.34 888.574L1518.42 888.622C1519.86 891.003 1519.81 894.626 1519.15 896.883C1518.47 899.365 1517.16 900.927 1515.4 901.443C1514.72 901.642 1514.05 901.617 1513.51 901.553C1512.01 901.183 1510.75 899.929 1510.18 898.475C1508.7 894.93 1509.12 889.799 1512.66 887.066L1512.5 886.747ZM1553.82 893.515L1554.23 893.396C1554.5 893.317 1554.68 893.189 1554.95 893.11L1555.23 893.031C1555.67 893.047 1556.17 892.976 1556.61 892.993L1556.79 893.089C1557.28 893.241 1557.63 893.433 1557.98 893.625L1558.42 893.865C1558.85 894.328 1559.28 894.792 1559.61 895.431L1559.7 895.479C1561.04 898.035 1561.03 901.794 1560.27 904.227C1559.5 906.883 1558.14 908.533 1556.46 909.098C1555.79 909.296 1555.12 909.271 1554.58 909.207C1553.07 908.838 1551.87 907.495 1551.26 905.906C1549.87 902.185 1550.34 896.743 1553.95 893.699L1553.82 893.515Z" fill="#B4B4B4" fill-opacity="0.2"/>
<path d="M352.081 783.163C354.881 787.963 361.681 790.863 366.881 792.163C373.381 793.863 380.281 793.863 386.681 791.863C397.281 788.563 409.381 778.363 410.281 766.563C410.381 765.863 409.381 765.763 409.081 766.263C406.081 771.063 403.981 775.663 399.881 779.763C395.781 783.763 390.581 786.963 385.081 788.563C379.481 790.163 373.481 790.363 367.781 789.063C362.181 787.763 357.781 784.563 352.581 782.663C352.181 782.563 351.881 782.963 352.081 783.163ZM343.981 767.463C340.381 771.863 337.281 778.263 337.981 784.163C338.581 789.263 342.381 790.863 346.881 791.563C354.981 792.863 361.381 797.863 369.181 799.763C375.781 801.363 382.781 801.263 389.281 799.263C395.381 797.363 400.881 793.963 405.381 789.363C410.581 783.963 413.281 777.063 417.081 770.763C420.181 765.663 422.381 760.663 418.781 755.063C415.881 750.563 410.181 747.963 404.881 748.363C403.681 748.463 403.181 750.463 404.581 750.663C410.581 751.663 417.781 753.763 417.981 761.263C418.081 766.263 413.081 771.563 410.681 775.763C405.081 785.563 398.081 793.563 386.781 796.563C381.281 797.963 375.481 798.063 369.981 796.763C365.081 795.563 360.781 792.963 356.181 791.063C351.881 789.363 346.081 789.663 342.681 786.663C339.681 784.063 340.481 780.663 341.581 777.163C342.481 774.163 343.881 771.263 345.381 768.563C345.981 767.763 344.681 766.663 343.981 767.463ZM398.481 757.463C398.081 760.063 398.881 762.563 399.881 764.963C400.581 766.963 401.281 769.463 403.381 770.263C403.681 770.363 403.981 770.163 404.081 769.863C404.381 767.863 403.081 766.163 402.281 764.363C401.281 761.963 400.681 759.363 399.181 757.263C398.981 757.163 398.581 757.063 398.481 757.463ZM400.281 764.463C401.081 765.763 402.581 765.663 403.881 765.763C405.781 765.863 407.681 765.663 409.581 765.463C411.281 765.263 411.381 762.663 409.581 762.763C407.781 762.863 406.081 762.963 404.281 762.963C402.981 762.963 401.481 762.563 400.481 763.663C400.181 763.863 400.181 764.163 400.281 764.463ZM357.881 776.863C356.781 777.463 355.881 778.563 354.881 779.463C353.881 780.363 352.781 781.263 351.781 782.063C350.581 782.963 352.181 785.063 353.381 784.163C354.581 783.363 355.681 782.463 356.681 781.563C357.681 780.663 358.881 779.763 359.481 778.463C360.081 777.463 358.981 776.263 357.881 776.863ZM356.381 770.163C356.981 772.663 357.681 775.163 358.181 777.763C358.581 779.963 358.281 782.863 359.681 784.663C360.081 785.263 361.081 785.363 361.481 784.663C362.781 782.463 361.681 779.363 360.981 776.963C360.181 774.363 358.881 771.863 357.081 769.763C356.781 769.463 356.281 769.863 356.381 770.163ZM372.381 757.163C375.881 757.563 379.781 755.663 382.681 753.863C384.981 752.463 388.781 750.163 388.981 747.263C388.981 746.963 388.681 746.863 388.481 746.863C387.181 747.163 386.781 747.763 385.781 748.663C384.381 749.963 382.881 751.163 381.281 752.263C378.481 754.063 375.181 754.963 372.381 756.663C372.081 756.763 372.181 757.063 372.381 757.163ZM378.081 739.263C378.681 739.663 379.281 740.163 379.781 740.763C380.281 741.263 381.381 742.163 380.281 742.763C379.381 743.263 378.181 743.063 377.581 743.963C377.481 744.063 377.581 744.163 377.581 744.263C378.681 745.263 381.381 744.063 381.781 742.763C382.281 741.063 379.481 739.463 378.281 738.763C378.081 738.563 377.781 739.063 378.081 739.263ZM385.481 716.063C382.181 719.063 386.881 727.263 391.081 724.363C392.881 723.063 393.681 720.463 393.181 718.363C392.881 716.863 391.481 714.163 389.581 714.663C389.081 714.863 388.881 715.463 389.281 715.863C389.981 716.663 390.481 717.163 390.681 718.163C390.981 719.363 390.981 720.963 390.181 721.963C388.881 723.563 387.481 720.963 387.081 719.863C386.681 718.763 387.081 717.763 387.081 716.663C387.081 715.863 386.081 715.563 385.481 716.063ZM386.381 716.263C385.681 717.263 385.481 718.563 385.681 719.663C385.881 720.763 386.481 721.863 387.281 722.763C387.781 723.363 388.581 724.063 389.481 723.863C390.281 723.763 390.781 723.163 391.181 722.563C392.081 721.063 392.281 719.363 391.781 717.863C391.481 716.963 390.881 715.463 389.781 715.363L386.381 716.263ZM382.981 726.463C385.681 726.863 388.181 726.263 390.781 725.463C392.681 724.863 395.781 724.363 396.481 722.263C396.581 721.963 396.381 721.563 395.981 721.463C394.081 720.863 391.881 722.663 390.081 723.263C387.681 724.063 385.281 724.563 382.881 725.563C382.681 725.763 382.481 726.363 382.981 726.463ZM352.981 735.663C355.481 736.463 358.181 736.063 360.781 735.563C362.881 735.163 366.081 734.763 367.181 732.663C367.381 732.263 367.181 731.763 366.781 731.663C364.781 731.163 362.581 732.663 360.681 733.263C358.181 733.963 355.581 734.063 353.081 734.763C352.481 734.963 352.581 735.563 352.981 735.663ZM380.281 719.163C382.781 718.563 385.181 717.463 387.681 716.763C389.681 716.263 392.281 716.363 393.681 714.963C393.981 714.663 393.881 714.163 393.581 713.963C391.581 712.763 388.681 714.063 386.681 714.763C384.281 715.563 381.781 716.563 379.881 718.463C379.581 718.763 379.881 719.263 380.281 719.163ZM356.281 724.963C356.581 724.863 356.881 724.763 357.181 724.763C356.881 724.663 356.481 724.763 356.281 724.963C353.381 728.163 357.781 737.763 362.181 734.463C364.181 732.963 364.681 729.763 363.981 727.463C363.581 725.863 362.281 723.163 360.281 723.563C359.681 723.663 359.681 724.363 359.981 724.763C361.481 726.563 362.881 729.963 361.181 732.163C359.881 733.863 358.681 730.963 358.181 729.863C357.581 728.363 357.881 727.163 357.781 725.663C357.881 724.863 356.881 724.363 356.281 724.963ZM357.181 725.163C356.481 726.363 356.381 727.763 356.681 729.063C356.981 730.363 357.581 731.563 358.381 732.663C358.881 733.363 359.681 734.163 360.581 734.063C361.381 733.963 361.881 733.263 362.281 732.663C363.181 731.063 363.281 729.063 362.681 727.263C362.281 726.163 361.681 724.463 360.481 724.263L357.181 725.163ZM351.181 728.163C353.681 727.463 355.981 726.263 358.381 725.563C360.281 725.063 363.081 725.263 364.481 723.763C364.781 723.463 364.681 722.963 364.381 722.763C362.481 721.463 359.381 722.863 357.381 723.563C354.881 724.463 352.481 725.463 350.681 727.463C350.381 727.763 350.681 728.263 351.181 728.163ZM394.281 706.663C391.481 704.663 387.381 705.363 384.381 706.563C381.781 707.563 377.781 709.763 377.281 712.863C377.181 713.563 377.781 714.063 378.381 713.763C380.981 712.363 382.481 709.863 385.381 708.763C388.281 707.663 391.081 708.063 393.981 707.663C394.481 707.563 394.681 706.963 394.281 706.663ZM363.381 716.963C360.581 714.963 356.481 715.663 353.481 716.863C350.881 717.863 346.881 720.063 346.381 723.163C346.281 723.863 346.881 724.363 347.481 724.063C350.081 722.663 351.581 720.163 354.481 719.063C357.381 717.963 360.181 718.363 363.081 717.963C363.681 717.763 363.781 717.263 363.381 716.963ZM391.981 672.063C395.281 686.563 400.281 700.663 404.481 714.863C406.181 720.463 406.881 726.763 409.381 732.163C411.381 736.463 413.781 737.663 418.381 737.163C418.181 736.563 417.881 735.963 417.681 735.463C416.581 736.463 416.381 738.063 415.281 739.063C414.581 739.663 415.281 741.163 416.281 740.763L420.781 738.963L419.581 737.463C417.981 739.263 417.381 741.563 415.581 743.263C412.681 746.063 407.581 748.663 403.381 747.863C401.781 747.563 401.081 749.963 402.681 750.363C406.581 751.263 410.481 749.763 413.781 747.763C415.581 746.663 417.381 745.163 418.581 743.363C419.481 742.063 419.781 740.063 420.881 738.863C421.481 738.263 420.881 736.863 419.981 737.263C418.581 737.763 417.081 738.363 415.681 738.963C415.981 739.563 416.381 740.063 416.681 740.663C417.781 739.663 417.981 738.063 419.081 737.163C419.681 736.563 419.281 735.363 418.381 735.463C410.981 736.263 409.781 727.763 408.281 722.263C406.681 716.663 405.381 710.963 403.781 705.363C400.681 694.263 397.781 682.763 393.381 671.963C392.981 670.863 391.781 671.163 391.981 672.063ZM325.181 740.263C325.881 740.663 326.581 740.963 327.281 741.363C327.781 741.663 328.381 742.263 329.081 742.263C329.181 742.263 329.381 742.163 329.281 742.063C329.181 741.263 328.381 740.863 327.781 740.463C326.981 740.063 326.181 739.763 325.281 739.763C325.081 739.763 324.981 740.163 325.181 740.263ZM322.581 736.763C324.381 736.863 325.881 737.863 327.181 739.063C327.781 739.663 328.781 741.063 327.481 741.563C326.881 741.863 325.481 741.363 324.981 740.963C324.681 740.763 324.281 740.963 324.381 741.263C324.781 742.963 325.781 744.263 327.681 743.763C329.281 743.363 330.281 741.863 329.981 740.163C329.681 738.363 327.981 737.163 326.581 736.263C325.281 735.463 323.481 734.663 322.181 735.963C322.081 736.363 322.281 736.763 322.581 736.763ZM331.381 745.563C326.281 746.563 321.981 744.163 320.581 738.963C319.881 736.263 319.681 732.063 324.181 733.163C326.281 733.763 328.281 735.363 329.781 736.963C330.581 737.763 332.181 736.963 331.781 735.863C331.181 734.263 330.981 732.463 329.881 731.063C329.581 730.563 328.681 730.563 328.481 731.263C328.081 733.163 328.781 734.763 329.481 736.563C330.181 736.163 330.781 735.763 331.481 735.463C329.181 733.063 325.381 730.263 321.781 730.463C318.281 730.663 317.481 734.463 317.681 737.263C318.181 743.863 325.081 751.863 332.081 747.463C333.081 746.763 332.481 745.363 331.381 745.563ZM394.481 692.463C396.481 705.363 402.481 717.263 404.881 729.963C407.281 742.663 399.581 755.063 391.881 764.663C382.281 776.563 368.081 770.863 355.581 767.663C349.381 766.063 341.381 765.363 337.481 759.663C334.881 755.763 333.781 751.063 330.881 747.263C329.981 746.063 327.881 747.163 328.781 748.463C332.081 753.163 332.881 759.363 336.781 763.563C340.981 767.963 348.181 768.663 353.781 770.063C365.281 772.863 380.081 778.863 390.181 769.563C394.781 765.363 397.981 759.263 401.081 753.963C404.081 748.763 406.681 743.063 406.981 736.963C407.381 729.363 404.381 721.863 402.381 714.763C400.181 707.163 398.381 699.363 395.181 692.163C394.981 691.663 394.381 692.063 394.481 692.463ZM371.981 687.263C369.081 685.263 366.281 688.363 364.681 690.563C362.581 693.363 358.781 698.963 360.081 702.563C360.281 703.063 360.781 703.163 361.281 702.863C363.481 701.163 364.081 697.463 365.481 695.063C366.981 692.263 368.581 688.963 371.881 688.363C372.381 688.263 372.381 687.463 371.981 687.263ZM351.181 692.863C347.081 690.363 344.781 696.363 343.281 699.063C341.681 701.863 339.981 704.663 338.481 707.563C337.381 709.563 335.981 711.463 336.481 713.763C336.581 714.263 337.081 714.363 337.481 714.163C340.481 712.763 341.781 708.163 343.181 705.363C345.081 701.563 346.981 694.963 351.181 693.363C351.281 693.263 351.381 692.963 351.181 692.863ZM338.181 678.263C328.281 679.263 324.981 688.663 321.781 696.663C318.181 705.963 311.681 716.963 316.881 726.863C317.481 728.063 319.381 727.763 319.781 726.463C321.281 720.763 323.081 714.763 327.981 710.963C327.181 710.363 326.381 709.663 325.481 709.063C322.881 716.663 323.781 724.563 327.981 731.363C328.981 732.963 331.481 731.963 331.081 730.063C329.881 725.563 330.281 721.263 332.381 717.063C331.381 716.963 330.381 716.763 329.381 716.663C329.481 717.063 329.481 717.463 329.581 717.963C329.781 719.263 331.481 719.463 332.381 718.663C335.181 716.163 337.881 713.563 340.281 710.563C339.281 710.163 338.281 709.763 337.281 709.263C336.281 712.863 334.481 715.863 332.281 718.863C331.481 719.963 332.781 721.763 334.181 721.263C345.381 717.163 355.081 710.463 362.781 701.363C361.881 700.863 360.981 700.363 360.081 699.763C359.681 701.063 359.181 702.363 358.781 703.663C358.381 704.763 359.581 705.963 360.781 705.663C365.981 703.963 370.481 701.263 374.481 697.563C373.581 697.063 372.681 696.563 371.881 696.063C371.181 698.263 370.481 700.363 369.781 702.563C369.281 703.963 370.981 704.963 372.081 704.363C380.181 700.363 386.281 692.263 388.281 683.563H385.281C386.281 688.763 387.481 693.763 389.981 698.363C390.581 699.363 392.081 699.363 392.681 698.363C393.881 696.263 395.181 694.063 396.381 691.963C397.381 690.263 394.681 688.663 393.681 690.363C392.381 692.463 391.181 694.663 389.881 696.763H392.581C390.281 692.363 389.181 687.563 388.281 682.663C387.981 681.163 385.581 681.263 385.281 682.663C383.481 690.663 377.881 697.863 370.481 701.563C371.281 702.163 371.981 702.763 372.781 703.363C373.481 701.163 374.181 699.063 374.981 696.863C375.481 695.263 373.381 694.263 372.381 695.363C368.781 698.763 364.781 701.163 360.081 702.663L362.081 704.663C362.481 703.363 362.981 702.063 363.381 700.763C363.881 699.263 361.681 697.963 360.681 699.163C353.381 707.863 344.181 714.363 333.481 718.163C334.081 718.963 334.681 719.763 335.381 720.563C337.681 717.363 339.581 714.063 340.681 710.263C341.281 708.363 338.681 707.563 337.681 708.963C335.581 711.763 332.981 714.063 330.281 716.463C331.181 716.663 332.181 716.963 333.081 717.163C332.981 716.763 332.981 716.363 332.881 715.863C332.681 714.463 330.481 714.263 329.881 715.463C327.381 720.463 326.781 725.563 328.181 731.063C329.181 730.663 330.181 730.163 331.281 729.763C327.481 723.663 326.781 716.763 329.181 710.063C329.681 708.763 327.881 707.263 326.681 708.163C320.981 712.563 318.981 718.963 317.181 725.663C318.181 725.563 319.081 725.363 320.081 725.263C315.781 717.163 321.281 707.763 324.181 700.163C327.181 692.563 329.781 682.463 338.781 680.163C339.481 679.963 339.281 678.163 338.181 678.263ZM373.281 655.163C374.581 651.563 371.881 647.163 368.981 645.163C368.681 645.763 368.481 646.363 368.181 646.963C372.081 648.263 374.681 651.063 376.281 654.763C376.481 655.263 377.181 655.263 377.581 654.963C380.581 651.863 385.381 651.663 388.681 654.363C388.981 653.763 389.181 653.063 389.481 652.463C385.281 652.763 381.781 654.463 378.781 657.363C377.881 658.263 378.881 659.563 379.981 659.363C380.481 659.263 381.581 658.263 381.781 658.263C383.881 658.163 386.381 662.463 387.381 663.863C389.581 666.963 391.781 670.063 392.981 673.563C393.581 673.263 394.281 673.063 394.881 672.763C393.781 671.163 392.981 670.563 390.981 670.163C389.781 669.863 389.181 671.763 390.481 672.063C391.381 672.663 392.181 673.263 393.081 673.863C393.681 674.863 395.381 674.263 394.981 673.063C393.481 668.363 390.581 664.063 387.481 660.163C386.481 658.863 384.281 655.663 382.381 655.463C380.581 655.263 380.681 656.863 379.281 657.063C379.681 657.763 380.081 658.363 380.481 659.063C382.981 656.563 385.881 654.963 389.481 654.663C390.281 654.563 391.081 653.463 390.281 652.763C385.881 649.263 380.381 649.763 376.481 653.763C376.981 653.863 377.381 653.963 377.881 654.163C376.581 649.463 373.381 646.463 368.781 645.063C367.681 644.663 367.081 646.263 367.981 646.863C370.981 648.863 371.781 651.963 372.881 655.163C372.981 655.263 373.181 655.263 373.281 655.163ZM353.681 650.563C352.381 649.663 351.081 648.863 349.581 648.163C349.381 648.763 349.281 649.363 349.081 649.963C353.581 649.963 358.081 649.763 362.481 650.663C366.081 651.363 368.981 653.263 372.381 654.363C373.381 654.663 373.781 653.463 373.281 652.863C368.181 646.563 356.181 647.563 349.081 648.063C347.981 648.163 347.881 649.563 348.781 649.963C350.281 650.563 351.681 650.963 353.281 651.463C353.781 651.463 354.081 650.763 353.681 650.563ZM336.281 656.763C334.281 654.163 331.281 654.163 328.281 655.163C328.581 655.963 328.981 656.763 329.281 657.563C332.881 655.763 336.481 653.863 340.281 652.763C344.281 651.563 348.081 652.263 352.181 651.963C352.981 651.863 353.381 650.863 352.581 650.363C345.281 645.863 334.481 651.863 327.881 655.363C326.381 656.163 327.681 658.263 329.181 657.563C331.581 656.563 333.481 657.063 335.881 657.363C336.181 657.363 336.481 656.963 336.281 656.763ZM336.381 656.863C327.681 658.663 320.081 665.263 314.481 671.963C313.881 672.663 314.381 673.963 315.481 673.663C317.581 673.063 319.681 672.363 321.781 671.763C322.981 671.363 322.481 669.563 321.281 669.863L314.981 671.663C315.281 672.263 315.681 672.763 315.981 673.363C321.881 666.363 329.081 662.163 336.581 657.163C336.781 657.163 336.581 656.863 336.381 656.863ZM310.081 721.463C305.881 732.163 312.281 745.263 315.381 755.463C315.681 756.563 317.381 756.563 317.681 755.463C318.181 753.863 318.581 752.263 319.081 750.763H317.081C319.081 755.863 321.781 769.063 311.681 767.163C310.081 766.863 309.381 769.263 310.981 769.663C312.781 770.063 314.481 770.263 316.381 770.363C316.081 769.763 315.681 769.163 315.381 768.663C314.581 769.663 313.681 770.763 312.881 771.763C312.081 772.363 312.481 773.663 313.581 773.463C316.281 772.763 318.981 772.163 321.681 771.563C321.381 771.063 321.081 770.563 320.881 770.163C319.781 770.863 318.681 771.463 317.681 772.163C316.681 772.463 316.781 774.263 317.981 774.063C320.281 773.763 322.381 773.263 324.581 772.363C324.281 771.863 323.881 771.463 323.581 770.963C322.581 771.563 321.681 772.163 320.681 772.863C319.581 772.963 319.481 774.663 320.681 774.663C329.281 774.263 338.481 773.763 345.381 767.863C346.281 767.063 344.981 765.863 344.081 766.563C337.281 771.863 328.981 772.563 320.681 772.863V774.663C322.781 774.463 323.981 773.763 325.181 771.963C325.581 771.363 324.881 770.263 324.181 770.563C322.081 771.363 320.381 771.863 318.081 772.063C318.181 772.663 318.281 773.363 318.381 773.963C319.981 773.263 321.081 772.663 322.281 771.363C322.881 770.763 322.281 769.763 321.481 769.963C318.781 770.563 316.081 771.163 313.281 771.763C313.481 772.363 313.781 772.863 313.981 773.463C315.581 772.463 316.581 771.563 317.581 769.963C318.081 769.163 317.381 768.263 316.581 768.263C314.981 768.163 313.381 767.863 311.881 767.463C311.681 768.263 311.381 769.163 311.181 769.963C315.081 770.963 318.781 769.163 320.581 765.563C323.081 760.663 320.981 755.263 319.281 750.563C318.881 749.563 317.581 749.563 317.281 750.563C316.781 752.163 316.181 753.663 315.681 755.263H317.981C314.881 744.263 311.181 733.663 311.681 722.063C311.481 720.863 310.381 720.763 310.081 721.463ZM320.981 670.963C316.881 672.563 312.481 675.063 310.381 679.063C308.781 682.063 307.481 685.763 306.081 688.863C305.681 689.763 306.981 690.363 307.681 689.763C309.381 688.263 311.181 686.963 312.981 685.563C312.481 685.163 311.981 684.863 311.581 684.463C309.281 692.463 304.281 698.863 301.081 706.463C300.681 707.363 301.381 708.663 302.481 708.263C305.581 707.163 307.681 705.463 309.281 702.463C308.581 702.263 307.781 702.063 307.081 701.863C307.881 710.963 305.481 719.463 300.181 726.863C299.581 727.763 300.581 728.863 301.581 728.663C310.681 726.263 316.181 717.163 319.881 709.163C320.481 707.763 318.481 706.563 317.881 707.963C314.481 715.363 309.381 724.163 301.081 726.363C301.581 726.963 301.981 727.563 302.481 728.163C308.081 720.463 310.481 711.463 309.681 701.963C309.581 700.863 308.081 700.263 307.481 701.363C306.281 703.563 304.481 705.163 302.081 705.963C302.581 706.563 302.981 707.163 303.481 707.763C306.781 700.063 311.881 693.363 313.781 685.063C313.981 684.063 312.881 683.463 312.181 684.063C310.481 685.563 308.781 686.963 306.981 688.263L308.281 689.563C309.181 687.663 310.481 685.963 311.281 684.063C312.381 681.363 312.981 678.863 315.281 676.663C317.181 674.763 319.581 673.363 321.781 671.763C321.681 671.563 321.481 670.763 320.981 670.963Z" fill="#B4B4B4" fill-opacity="0.2"/>
<path d="M1760.65 335.188C1762.95 328.688 1763.75 318.488 1760.15 311.788C1760.85 311.488 1761.45 311.188 1762.15 310.888C1763.35 310.288 1762.95 308.688 1761.75 308.488C1752.45 306.888 1742.85 309.488 1734.05 312.388C1725.25 315.288 1716.85 319.188 1709.05 324.188C1697.45 331.688 1680.25 345.188 1685.45 360.888C1685.95 362.288 1687.95 361.488 1687.85 360.188C1686.85 353.288 1693.15 346.988 1697.75 342.788C1698.05 342.488 1698.35 342.188 1698.65 341.988C1698.75 342.688 1698.85 343.488 1698.85 343.988C1699.05 346.488 1698.95 349.388 1699.95 351.788C1697.25 354.188 1694.75 356.688 1692.15 359.188C1691.55 359.788 1692.25 360.688 1692.95 360.188C1695.95 358.088 1698.95 355.988 1701.85 353.788C1702.35 353.788 1702.85 353.488 1703.15 353.088C1706.05 355.488 1710.15 356.388 1713.65 357.688C1715.45 358.388 1717.25 358.988 1718.95 359.488C1709.55 361.488 1699.75 362.088 1690.25 362.988C1690.55 362.388 1689.95 361.588 1689.25 361.888C1688.25 362.288 1687.15 362.788 1686.15 363.388H1685.95C1685.35 363.488 1684.95 363.788 1684.75 364.188C1677.55 368.488 1670.85 375.688 1668.05 383.288C1667.75 384.188 1668.95 385.188 1669.65 384.388C1673.05 380.888 1675.85 376.888 1679.35 373.288C1681.55 370.988 1683.95 368.888 1686.25 366.788C1705.75 368.688 1726.95 367.888 1743.65 356.388C1751.05 351.288 1757.55 343.888 1760.65 335.188V335.188ZM1757.55 322.888C1757.45 325.988 1756.85 328.988 1755.75 331.988C1751.75 331.188 1747.95 330.688 1743.75 330.488C1739.75 330.388 1735.95 330.588 1732.05 330.988C1740.05 325.088 1748.15 319.388 1756.25 313.688C1756.85 316.688 1757.65 319.688 1757.55 322.888V322.888ZM1738.35 318.888C1741.65 317.688 1744.95 316.788 1748.35 315.788C1741.85 319.988 1735.35 324.288 1728.95 328.688C1729.45 327.088 1729.85 325.488 1730.15 323.788C1730.25 323.188 1730.45 322.588 1730.55 321.888C1733.15 320.788 1735.75 319.788 1738.35 318.888ZM1717.15 328.588C1720.15 326.888 1723.15 325.288 1726.25 323.788C1725.85 326.288 1725.65 328.588 1725.55 331.088C1722.35 333.388 1719.15 335.788 1716.05 338.188C1716.45 336.188 1716.25 333.988 1716.15 331.888C1716.15 330.988 1716.05 330.088 1715.95 329.188C1716.35 329.088 1716.75 328.788 1717.15 328.588V328.588ZM1703.25 343.588C1703.05 342.288 1703.05 340.188 1702.55 338.588C1705.75 335.988 1709.15 333.588 1712.55 331.388C1712.55 332.488 1712.45 333.488 1712.45 334.388C1712.55 336.488 1712.55 338.388 1713.45 340.188C1710.15 342.788 1706.95 345.488 1703.85 348.188C1703.65 346.688 1703.35 345.088 1703.25 343.588V343.588ZM1736.65 353.188C1733.05 355.188 1729.35 356.688 1725.55 357.888C1722.45 356.188 1719.35 354.688 1715.85 353.488C1712.75 352.488 1709.25 350.988 1705.85 350.888L1715.75 343.388C1724.05 347.288 1732.45 349.788 1741.35 350.388C1739.75 351.388 1738.15 352.288 1736.65 353.188ZM1744.95 347.388C1735.95 345.088 1726.95 343.388 1717.85 341.588C1720.15 339.788 1722.45 338.088 1724.75 336.388L1729.25 333.088C1737.75 333.488 1746.25 333.788 1754.75 334.288C1754.55 334.688 1754.45 334.988 1754.25 335.388C1752.15 339.988 1748.85 343.988 1744.95 347.388V347.388Z" fill="#B4B4B4" fill-opacity="0.2"/>
<path d="M1643.41 71.5816C1647.21 81.6816 1644.01 90.9816 1640.21 100.482C1639.41 102.382 1642.11 103.482 1643.41 102.382C1652.21 94.2816 1650.81 80.3816 1644.91 70.9816C1644.41 70.1816 1643.11 70.5816 1643.41 71.5816ZM1619.11 139.382C1615.81 133.182 1609.81 128.782 1605.71 123.182C1601.31 117.082 1598.71 110.182 1597.41 102.782C1594.81 88.0816 1600.61 72.6816 1611.51 62.5816C1622.51 52.3816 1641.51 48.1816 1653.61 58.8816C1666.31 70.1816 1665.11 89.0816 1657.01 102.582C1651.91 111.082 1644.51 117.982 1636.41 123.682C1628.41 129.182 1620.01 133.482 1612.51 139.782C1610.71 141.282 1612.61 144.282 1614.81 143.682C1634.01 138.182 1653.21 123.682 1663.01 106.082C1671.71 90.5816 1672.81 69.8816 1660.81 55.6816C1648.71 41.2816 1627.41 41.2816 1611.91 49.7816C1595.41 58.7816 1585.21 76.9816 1584.61 95.5816C1584.31 106.182 1587.61 116.482 1593.61 125.182C1598.91 132.882 1607.71 142.882 1618.11 141.482C1618.91 141.282 1619.61 140.382 1619.11 139.382ZM1580.81 267.582C1583.11 258.082 1587.71 248.582 1591.91 239.782C1596.21 230.782 1601.61 222.082 1605.21 212.882C1614.01 190.182 1600.71 161.982 1618.71 142.382C1619.61 141.382 1618.41 139.582 1617.21 140.482C1594.51 155.882 1604.31 186.582 1597.71 209.082C1594.81 219.182 1589.11 228.782 1585.01 238.382C1581.31 247.182 1575.61 257.882 1577.31 267.682C1577.71 269.282 1580.51 269.182 1580.81 267.582Z" fill="#B4B4B4" fill-opacity="0.2"/>
<path d="M1840.62 95.4297C1842.58 96.2801 1844.96 96.7184 1846.82 95.5314C1847.36 95.1923 1847.09 94.5373 1846.56 94.4641C1844.74 94.1959 1842.94 94.4371 1841.13 93.7566C1840.01 93.4162 1839.6 95.0651 1840.62 95.4297ZM1836.62 90.5517C1838.1 90.6983 1839.67 90.8208 1841.15 90.9675C1841.78 91.0165 1842.03 89.9252 1841.37 89.7792C1839.87 89.5355 1838.36 89.2918 1836.96 89.0239C1835.77 88.8048 1835.45 90.4295 1836.62 90.5517ZM1831.17 83.1502C1832.33 83.6847 1833.52 84.3162 1834.68 84.8506C1835.85 85.3851 1836.94 85.6284 1838.22 85.8235C1838.88 85.9695 1839.29 85.1452 1838.68 84.7809C1837.67 84.004 1836.7 83.4212 1835.46 83.0079C1834.22 82.5947 1832.99 82.1814 1831.85 81.744C1830.95 81.4523 1830.34 82.7373 1831.17 83.1502ZM1796.62 124.428C1798.51 131.996 1803.5 137.554 1811.11 139.573C1811.99 139.768 1812.42 138.628 1811.7 138.191C1806.24 134.5 1800.93 129.742 1797.28 124.161C1797.08 123.797 1796.5 123.943 1796.62 124.428ZM1802.65 110.147C1807.01 119.779 1813.94 128.564 1824.24 131.87C1825.02 132.089 1825.38 131.071 1824.75 130.61C1816.56 124.613 1808.68 118.64 1803.45 109.638C1803.11 109.104 1802.41 109.589 1802.65 110.147ZM1820.06 117.145C1809.64 129.531 1798.06 140.97 1787.89 153.501C1787.5 154.01 1788.06 154.593 1788.57 154.156C1801.51 144.441 1812.14 131.279 1821.73 118.48C1822.51 117.462 1820.86 116.224 1820.06 117.145ZM1817.01 109.867C1809.62 121.188 1800.52 131.391 1792.78 142.494C1792.41 143.1 1793.16 143.634 1793.67 143.198C1803.99 134.135 1811.08 122.062 1817.25 110.013C1817.39 109.77 1817.05 109.649 1817.01 109.867ZM1812.67 102.806C1804.24 114.902 1796.91 128.066 1789.48 140.842C1789.21 141.424 1789.99 142.055 1790.38 141.546C1799.79 130.13 1808.75 117.282 1814.42 103.607C1814.88 102.565 1813.18 101.957 1812.67 102.806ZM1808.65 95.3568C1812.08 81.0013 1829.38 75.1452 1841.06 83.9824C1846.76 88.2311 1850.07 94.9276 1850 102.058C1849.87 109.819 1846.06 116.025 1840.96 121.624C1840.47 122.157 1841.13 123.128 1841.73 122.667C1855.35 113.195 1855.29 91.8756 1842.47 81.7763C1829.45 71.7254 1809.95 78.2348 1806.85 94.7733C1806.85 96.0103 1808.41 96.448 1808.65 95.3568ZM1806.9 95.3797C1808.89 101.275 1811.75 106.54 1816.33 110.861C1820.35 114.599 1826 119.478 1831.74 119.385C1833.59 119.338 1834.85 116.962 1833.37 115.579C1829.69 111.962 1824.35 110.406 1820.4 106.959C1816.19 103.269 1812.28 99.1917 1809.26 94.4842C1808.55 93.3195 1806.44 93.9484 1806.9 95.3797ZM1808.46 92.9313C1800.78 104.737 1795.12 117.999 1789.03 130.752C1785.99 137.177 1782.73 143.553 1780.04 150.1C1778.53 153.567 1778.19 157.981 1782.33 159.73C1786.94 161.674 1791.65 157.409 1795.19 155.083C1801.21 151.11 1807.11 147.064 1813.12 143.091C1818.88 139.288 1824.38 135.339 1829.99 131.365C1834.99 127.852 1841.52 124.268 1844.96 119.08C1845.47 118.232 1844.62 117.309 1843.75 117.527C1838.75 118.566 1833.88 122.152 1829.58 124.768C1824.85 127.699 1820.22 130.606 1815.48 133.537C1805.68 139.69 1795.95 146.134 1786.37 152.748C1785.83 153.087 1784.86 155.39 1786.12 153.015C1786.75 151.827 1787.24 150.469 1787.75 149.208C1788.82 146.881 1789.77 144.48 1790.74 142.177C1793.02 136.867 1795.28 131.46 1797.57 126.15C1802.04 115.555 1806.87 104.766 1809.89 93.7085C1810.25 92.6901 1808.97 92.0828 1808.46 92.9313Z" fill="#B4B4B4" fill-opacity="0.2"/>
<path d="M111.661 987.147C110.841 987.77 110.531 988.726 110.667 989.66C110.752 990.462 111.192 991.201 112.017 991.562C112.2 991.643 112.423 991.632 112.606 991.712C113.379 991.942 114.129 991.725 114.777 991.245C115.9 990.427 116.085 988.761 115.268 987.638C114.358 986.475 112.733 986.198 111.661 987.147ZM116.492 993.308C115.369 994.126 115.184 995.792 116.002 996.915C116.819 998.038 118.485 998.223 119.609 997.406C119.649 997.314 119.74 997.354 119.78 997.263C120.084 997.068 120.428 996.782 120.629 996.324C120.91 995.683 120.825 994.882 120.437 994.274C120.385 994.143 120.242 993.971 120.099 993.799C119.19 992.635 117.564 992.359 116.492 993.308ZM121.324 999.469C121.112 999.703 120.9 999.938 120.728 1000.08C120.556 1000.22 120.435 1000.5 120.355 1000.68C119.792 1001.96 120.42 1003.77 121.742 1004.24C123.156 1004.75 124.697 1004.23 125.3 1002.85C125.581 1002.21 125.588 1001.45 125.371 1000.7C125.308 1000.34 125.114 1000.04 124.92 999.736C124.022 998.796 122.396 998.52 121.324 999.469ZM102.367 915.253C97.0455 917.177 92.2938 921.535 87.8122 925.028C83.0269 928.716 78.2014 932.496 73.4675 936.315C68.6421 940.095 63.9997 943.955 59.2658 947.775C55.0076 951.257 48.8309 954.88 45.7967 959.555C44.3455 961.867 45.0695 964.696 46.43 966.822C47.3503 968.209 50.3524 971.82 52.2438 970.247C54.0949 968.766 55.9059 967.377 57.757 965.896C59.396 964.649 59.5857 963.968 61.0555 965.596C62.6682 967.396 63.9885 969.613 65.6012 971.413C73.5219 980.239 92.6012 995.492 104.883 985.92C100.745 989.128 99.4505 994.566 99.525 999.622C99.5706 1004.99 100.773 1010.22 103.121 1015.07C104.772 1018.52 106.95 1021.77 109.036 1024.98C109.619 1025.89 115.943 1034.13 115.943 1034.13L107.456 1040.78C106.596 1041.49 106.389 1042.71 107.063 1043.66C108.31 1045.3 110.635 1049.71 113.029 1049.23C113.871 1049.05 114.61 1048.61 115.298 1048.04C119.275 1045.2 122.874 1041.97 126.851 1039.13C131.527 1035.94 136.152 1032.62 140.736 1029.39C143.418 1027.51 146.151 1025.76 148.782 1023.75C151.24 1021.88 153.362 1019.53 155.769 1017.53C161.099 1013.1 167.653 1009.86 171.239 1003.68C172.478 1001.6 170.887 1000.25 169.641 998.612C169.018 997.792 168.394 996.973 167.68 996.113C166.965 995.254 165.745 995.046 164.794 995.721L156.307 1002.37C156.61 1002.18 145.933 990.174 144.892 989.062C140.597 984.666 136.043 981.357 130.205 979.232C124.458 977.147 117.193 976.033 112.064 980.007C123.87 970.773 116.957 951.686 110.967 941.195C110.23 939.889 104.321 929.215 102.379 930.656C104.19 929.266 110.418 925.775 110.163 923.37C110.129 922.7 109.74 922.092 109.443 921.525C108.798 920.259 108.152 918.993 107.466 917.818C106.432 915.945 104.83 914.368 102.367 915.253ZM117.123 982.664C118.279 982.517 119.488 982.501 120.696 982.485C126.931 982.709 132.912 985.006 137.976 988.648C143.222 992.37 146.944 997.825 150.654 1003.06C146.661 1004.69 143.171 1007.42 139.681 1010.15C137.83 1011.63 116.896 1027.23 117.856 1028.52C115.987 1026.07 114.157 1023.52 112.459 1020.91C111.642 1019.79 110.916 1018.71 110.098 1017.58C109.812 1017.24 109.298 1015.92 108.841 1015.72C105.954 1010.85 103.745 1005.19 103.636 999.461C103.542 996.689 104.118 993.884 105.426 991.4C106.614 989.192 108.454 987.487 110.437 985.955C111.904 984.851 113.056 983.719 114.86 983.091C115.702 982.914 116.412 982.789 117.123 982.664Z" fill="#B4B4B4" fill-opacity="0.2"/>
<path d="M144.482 476.106C122.254 484.241 100.047 493.88 96.416 495.939C87.8217 500.826 85.5053 510.822 87.7027 519.918C88.6494 523.83 90.2237 527.566 91.6871 531.289C96.2482 542.929 100.058 554.843 104.572 566.5L106.835 572.272C110.434 581.124 114.735 594.242 125.7 596.152C130.356 596.956 135.067 596.303 139.538 594.993C142.19 594.239 144.769 593.14 147.369 592.245C152.28 590.502 157.178 588.721 162.074 586.938C163.049 591.116 164.362 595.139 166.094 599.096C165.944 598.831 159.266 601.531 158.703 601.736C155.509 602.9 152.203 603.466 148.885 604.144C146.353 604.641 141.838 604.956 140.243 607.293C138.19 610.276 141.157 614.037 142.231 616.838C142.351 617.166 142.548 617.414 142.727 617.615C143.031 618.302 143.399 619.019 143.749 619.69C144.036 620.33 144.583 620.663 145.173 620.82C145.92 620.389 146.765 620.08 147.658 619.755C149.225 619.237 150.86 618.907 152.543 618.56L152.966 618.406C153.012 618.389 153.042 618.325 153.089 618.308C154.481 617.747 155.92 617.17 157.312 616.609C160.37 615.655 163.282 614.593 166.125 613.344C168.82 613.001 171.698 611.845 174.213 610.716C178.393 609.193 182.51 607.639 186.69 606.116C186.925 606.03 187.13 606.009 187.365 605.923L187.458 605.889C189.47 605.422 191.396 604.72 193.317 603.86C194.15 603.663 194.935 603.483 195.734 603.192C198.928 602.028 202.152 600.8 205.311 599.543L205.405 599.508C206.281 599.136 207.22 598.794 208.095 598.422C208.189 598.387 208.3 598.4 208.394 598.366L208.911 598.178C213.633 596.244 218.39 594.404 223.249 592.846C223.566 592.837 223.847 592.734 224.159 592.567L224.488 592.448C224.488 592.448 224.471 592.401 224.518 592.384C225.137 591.892 225.542 591.106 225.293 590.132C224.6 587.352 223.748 584.577 223.242 581.728C222.101 575.386 216.649 578.969 213.947 580.752C212.923 581.445 210.557 582.254 208.187 583.49C203.256 585.872 197.12 588.162 196.919 587.756C195.239 583.986 193.909 580.088 193.001 576.036C201.663 572.941 210.1 569.78 216.035 567.062C226.889 562.096 231.092 551.146 229.161 539.133C228.024 531.779 224.201 524.499 221.497 517.663C218.01 508.825 214.523 499.986 210.989 491.164C206.77 480.464 203.484 466.923 190.618 464.322C183.722 462.919 164.093 468.927 144.482 476.106ZM137.417 488.741C144.942 485.989 152.489 483.285 160.04 480.573C168.512 477.539 177.057 474.851 185.974 473.623C188.856 473.211 191.773 473.478 193.983 475.6C196.355 477.874 197.37 481.389 198.606 484.344C200.146 487.986 201.669 491.581 203.162 495.24C206.535 504.493 210.85 513.562 214.692 522.644C216.587 527.114 218.436 531.602 220.613 535.97C220.709 536.165 220.844 536.567 221.002 537.052C203.478 542.706 186.009 548.633 168.681 554.948C167.695 555.308 166.726 555.714 165.739 556.074L165.738 556.076C149.404 562.063 133.033 567.949 116.659 573.825C116.399 573.226 116.157 572.701 116.027 572.381C111.243 560.131 106.413 547.898 101.629 535.647C98.6167 527.966 95.6606 521.168 95.0526 512.93C94.8758 510.547 95.5938 505.071 100.064 503.175C112.396 498.049 124.876 493.327 137.417 488.741ZM218.127 518.613C218.406 519.302 218.684 519.991 218.957 520.682C218.613 520.014 218.322 519.327 218.127 518.613ZM113.968 579.151L115.174 578.72C115.97 578.462 116.774 578.204 117.338 578.022C117.425 577.993 117.502 577.94 117.559 577.868C134.929 571.669 152.272 565.393 169.585 559.035C169.744 558.977 169.887 558.907 170.015 558.826C187.649 552.407 205.443 546.323 223.33 540.603C223.812 540.468 224.326 540.328 224.809 540.127L224.981 540.071C225.014 540.061 225.04 540.045 225.073 540.034C225.627 544.021 225.29 548.148 223.87 551.916C221.777 557.414 217.44 561.282 212.526 564.297C208.795 566.614 144.501 588.609 139.906 590.017C135.516 591.404 131.523 591.689 127.034 591.196C122.903 590.52 119.899 588.263 117.343 585.044C116.059 583.256 114.956 581.255 113.968 579.151Z" fill="#B4B4B4" fill-opacity="0.2"/>
<path d="M170.887 564.36C165.909 566.175 168.716 573.878 173.695 572.063C178.627 570.266 175.819 562.563 170.887 564.36Z" fill="#B4B4B4" fill-opacity="0.2"/>
<path d="M1851.04 490.001L1804.99 490.528C1797.57 490.602 1790.1 490.482 1782.73 491.161C1776.16 491.735 1768.48 492.805 1763.36 497.343C1762.52 498.079 1763.29 499.43 1764.23 499.493C1764.74 499.464 1765.15 499.46 1765.69 499.527C1765.25 499.847 1764.92 500.141 1764.85 500.675C1764.59 501.672 1764.82 502.543 1765.22 503.267C1765.37 504.26 1765.5 505.156 1765.97 506.17C1766.49 507.378 1767.11 508.56 1767.75 509.839C1769.21 512.663 1770.55 515.415 1772.01 518.238C1774.83 523.498 1777.67 528.854 1780.49 534.114C1783.3 539.373 1786.14 544.73 1788.96 549.99C1790.2 552.354 1791.61 555.397 1793.26 558.169C1791.76 560.319 1790.49 562.611 1789.89 565.043C1789.52 566.793 1791.22 567.795 1792.72 567.198C1794.65 566.281 1796.36 564.906 1797.92 563.362L1798.78 563.863C1800.19 564.529 1801.52 563.667 1801.74 562.161C1801.83 561.311 1801.73 560.511 1801.6 559.615C1804 556.923 1806.34 554.038 1808.62 551.275C1813.65 545.21 1818.59 539.17 1823.62 533.105C1833.6 521.001 1843.54 508.799 1853.49 496.598C1855.59 493.982 1854.44 489.943 1851.04 490.001ZM1817.82 527.899L1798.58 551.204C1797.59 549.395 1796.53 547.708 1795.54 545.898C1792.63 540.664 1789.72 535.429 1786.78 530.098C1783.84 524.767 1780.95 519.629 1778.01 514.298C1776.63 511.765 1775.15 509.257 1773.69 506.846L1771.47 503.084C1770.44 501.493 1769.24 500.875 1768.16 499.503C1768.01 499.334 1767.89 499.263 1767.75 499.095C1770.27 498.851 1772.81 498.293 1775.33 498.049C1778.94 497.626 1782.62 497.492 1786.21 497.384C1793.22 497.315 1800.16 497.368 1807.19 497.395C1819.17 497.374 1831.15 497.352 1843.23 497.306C1834.65 507.602 1826.24 517.751 1817.82 527.899Z" fill="#B4B4B4" fill-opacity="0.2"/>
</svg>
