<svg xmlns="http://www.w3.org/2000/svg" xmlns:xl="http://www.w3.org/1999/xlink" viewBox="52 133 400 501" width="400pt" height="501pt">
  <defs>
    <marker id="FilledArrow_Marker" color="green" markerHeight="6" markerUnits="strokeWidth" markerWidth="7" orient="auto" overflow="visible" viewBox="-1 -3 7 6">
      <path fill="currentColor" stroke="currentColor" d="M4.8 0L0-1.8v3.6z"/>
    </marker>
    <marker id="FilledArrow_Marker_2" color="#004080" markerHeight="6" markerUnits="strokeWidth" markerWidth="7" orient="auto" overflow="visible" viewBox="-1 -3 7 6">
      <path fill="currentColor" stroke="currentColor" d="M4.8 0L0-1.8v3.6z"/>
    </marker>
    <filter id="Shadow" filterUnits="userSpaceOnUse">
      <feGaussianBlur in="SourceAlpha" result="blur" stdDeviation="3.488"/>
      <feOffset dy="4" in="blur" result="offset"/>
      <feFlood flood-color="#000" flood-opacity=".75" result="flood"/>
      <feComposite in="flood" in2="offset" operator="in"/>
    </filter>
  </defs>
  <g fill="none">
    <use filter="url(#Shadow)" xl:href="#id88_Graphic"/>
    <use filter="url(#Shadow)" xl:href="#id126_Graphic"/>
    <use filter="url(#Shadow)" xl:href="#id32_Graphic"/>
    <use filter="url(#Shadow)" xl:href="#id99_Graphic"/>
    <use filter="url(#Shadow)" xl:href="#id10_Graphic"/>
    <use filter="url(#Shadow)" xl:href="#id11_Graphic"/>
    <use filter="url(#Shadow)" xl:href="#id12_Graphic"/>
    <use filter="url(#Shadow)" xl:href="#id123_Graphic"/>
    <use filter="url(#Shadow)" xl:href="#id130_Graphic"/>
    <use filter="url(#Shadow)" xl:href="#id139_Graphic"/>
    <use filter="url(#Shadow)" xl:href="#id137_Graphic"/>
    <use filter="url(#Shadow)" xl:href="#id135_Graphic"/>
    <use filter="url(#Shadow)" xl:href="#id132_Graphic"/>
    <path id="id88_Graphic" fill="#fff" d="M72 576h162v36H72z"/>
    <path id="id126_Graphic" fill="#fff" d="M270 576h162v36H270z"/>
    <g id="id32_Graphic">
      <path fill="#fff" d="M288 216h144v288H288z"/>
      <path stroke="#000" stroke-linecap="round" stroke-linejoin="round" d="M288 216h144v288H288z"/>
      <text fill="#000" transform="translate(293 221)">
        <tspan x="23.428" y="14" font-family="Helvetica" font-size="14" font-weight="500" textLength="87.145">Closed tickets</tspan><tspan x="40.984" y="35" font-family="Helvetica" font-size="12" font-style="italic" font-weight="500" textLength="52.031">resolution</tspan>
      </text>
    </g>
    <g id="id99_Graphic">
      <path fill="#fff" d="M72 216h144v288H72z"/>
      <path stroke="#000" stroke-linecap="round" stroke-linejoin="round" d="M72 216h144v288H72z"/>
      <text fill="#000" transform="translate(77 221)">
        <tspan x="28.093" y="14" font-family="Helvetica" font-size="14" font-weight="500" textLength="77.813">Open tickets</tspan><tspan x="37.316" y="35" font-family="Helvetica" font-size="12" font-style="italic" font-weight="500" textLength="59.367">triage state</tspan>
      </text>
    </g>
    <g id="id10_Graphic">
      <path fill="#0080ff" fill-opacity=".3" d="M95 450h98a5 5 0 015 5v26a5 5 0 01-5 5H95a5 5 0 01-5-5v-26a5 5 0 015-5z"/>
      <path stroke="#000" stroke-linecap="round" stroke-linejoin="round" d="M95 450h98a5 5 0 015 5v26a5 5 0 01-5 5H95a5 5 0 01-5-5s0 0 0 0v-26a5 5 0 015-5s0 0 0 0z"/>
      <text fill="#000" transform="translate(95 454)">
        <tspan x="22.987" y="11" font-family="Helvetica" font-size="12" font-weight="500" textLength="55.359">Ready for </tspan><tspan x="27.323" y="25" font-family="Helvetica" font-size="12" font-weight="500" textLength="43.354">Checkin</tspan>
      </text>
    </g>
    <g id="id11_Graphic">
      <path fill="#0080ff" fill-opacity=".3" d="M95 360h98a5 5 0 015 5v26a5 5 0 01-5 5H95a5 5 0 01-5-5v-26a5 5 0 015-5z"/>
      <path stroke="#000" stroke-linecap="round" stroke-linejoin="round" d="M95 360h98a5 5 0 015 5v26a5 5 0 01-5 5H95a5 5 0 01-5-5s0 0 0 0v-26a5 5 0 015-5s0 0 0 0z"/>
      <text fill="#000" transform="translate(95 371)">
        <tspan x="23.983" y="11" font-family="Helvetica" font-size="12" font-weight="500" textLength="50.033">Accepted</tspan>
      </text>
    </g>
    <g id="id12_Graphic">
      <path fill="#0080ff" fill-opacity=".3" d="M95 270h98a5 5 0 015 5v26a5 5 0 01-5 5H95a5 5 0 01-5-5v-26a5 5 0 015-5z"/>
      <path stroke="#000" stroke-linecap="round" stroke-linejoin="round" d="M95 270h98a5 5 0 015 5v26a5 5 0 01-5 5H95a5 5 0 01-5-5s0 0 0 0v-26a5 5 0 015-5s0 0 0 0z"/>
      <text fill="#000" transform="translate(95 281)">
        <tspan x="17.318" y="11" font-family="Helvetica" font-size="12" font-weight="500" textLength="63.363">Unreviewed</tspan>
      </text>
    </g>
    <g id="id123_Graphic">
      <path fill="red" fill-opacity=".3" d="M315 279h90v18h-90z"/>
      <path stroke="#000" stroke-linecap="round" stroke-linejoin="round" d="M315 279h90v18h-90z"/>
      <text fill="#000" transform="translate(320 281)">
        <tspan x="15.982" y="11" font-family="Helvetica" font-size="12" font-weight="500" textLength="48.035">duplicate</tspan>
      </text>
    </g>
    <g id="id130_Graphic">
      <path fill="green" fill-opacity=".3" d="M315 459h90v18h-90z"/>
      <path stroke="#000" stroke-linecap="round" stroke-linejoin="round" d="M315 459h90v18h-90z"/>
      <text fill="#000" transform="translate(320 461)">
        <tspan x="27.326" y="11" font-family="Helvetica" font-size="12" font-weight="500" textLength="6">fi</tspan><tspan x="33.326" y="11" font-family="Helvetica" font-size="12" font-weight="500" textLength="19.348">xed</tspan>
      </text>
    </g>
    <g id="id139_Graphic">
      <path fill="red" fill-opacity=".3" d="M315 351h90v18h-90z"/>
      <path stroke="#000" stroke-linecap="round" stroke-linejoin="round" d="M315 351h90v18h-90z"/>
      <text fill="#000" transform="translate(320 353)">
        <tspan x="22.99" y="11" font-family="Helvetica" font-size="12" font-weight="500" textLength="34.02">invalid</tspan>
      </text>
    </g>
    <g id="id137_Graphic">
      <path fill="red" fill-opacity=".3" d="M315 387h90v18h-90z"/>
      <path stroke="#000" stroke-linecap="round" stroke-linejoin="round" d="M315 387h90v18h-90z"/>
      <text fill="#000" transform="translate(320 389)">
        <tspan x="13.979" y="11" font-family="Helvetica" font-size="12" font-weight="500" textLength="52.043">needsinfo</tspan>
      </text>
    </g>
    <g id="id135_Graphic">
      <path fill="red" fill-opacity=".3" d="M315 423h90v18h-90z"/>
      <path stroke="#000" stroke-linecap="round" stroke-linejoin="round" d="M315 423h90v18h-90z"/>
      <text fill="#000" transform="translate(320 425)">
        <tspan x="8.995" y="11" font-family="Helvetica" font-size="12" font-weight="500" textLength="62.01">worksforme</tspan>
      </text>
    </g>
    <g id="id132_Graphic">
      <path fill="red" fill-opacity=".3" d="M315 315h90v18h-90z"/>
      <path stroke="#000" stroke-linecap="round" stroke-linejoin="round" d="M315 315h90v18h-90z"/>
      <text fill="#000" transform="translate(320 317)">
        <tspan x="21.326" y="11" font-family="Helvetica" font-size="12" font-weight="500" textLength="31.348">wontfi</tspan><tspan x="52.674" y="11" font-family="Helvetica" font-size="12" font-weight="500" textLength="6">x</tspan>
      </text>
    </g>
    <path stroke="#000" stroke-linecap="round" stroke-linejoin="round" d="M72 243h144M288 243h144"/>
    <path fill="green" fill-opacity=".3" d="M351 594h81v18h-81z"/>
    <text fill="#000" transform="translate(356 596)">
      <tspan x="7.817" y="11" font-family="Helvetica" font-size="12" font-weight="500" textLength="55.365">completed</tspan>
    </text>
    <path fill="red" fill-opacity=".3" d="M351 576h81v18h-81z"/>
    <text fill="#000" transform="translate(356 578)">
      <tspan x="14.148" y="11" font-family="Helvetica" font-size="12" font-weight="500" textLength="42.703">stopped</tspan>
    </text>
    <path fill="#0080ff" fill-opacity=".3" d="M270 594h81v18h-81z"/>
    <text fill="#000" transform="translate(275 596)">
      <tspan x="5.819" y="11" font-family="Helvetica" font-size="12" font-weight="500" textLength="59.361">in progress</tspan>
    </text>
    <path stroke="green" stroke-linecap="round" stroke-linejoin="round" stroke-width="2" marker-end="url(#FilledArrow_Marker)" d="M183.6 585h24.9"/>
    <text fill="green" transform="translate(72 578)">
      <tspan x="17.174" y="11" font-family="Helvetica" font-size="12" font-weight="bold" textLength="7.33">T</tspan><tspan x="24.293" y="11" font-family="Helvetica" font-size="12" font-weight="bold" textLength="78.041">icket triagers</tspan>
    </text>
    <path stroke="#004080" stroke-linecap="round" stroke-linejoin="round" stroke-width="2" marker-end="url(#FilledArrow_Marker_2)" d="M183.6 603h24.9"/>
    <text fill="#004080" transform="translate(72 596)">
      <tspan x="32.32" y="11" font-family="Helvetica" font-size="12" font-weight="bold" textLength="66.68">Committers</tspan>
    </text>
    <path fill="#fff" d="M270 576h81v18h-81z"/>
    <text fill="#000" transform="translate(275 578)">
      <tspan x="19.492" y="11" font-family="Helvetica" font-size="12" font-style="italic" font-weight="500" textLength="32.016">status</tspan>
    </text>
    <path stroke="green" stroke-linecap="round" stroke-linejoin="round" stroke-width="2" marker-end="url(#FilledArrow_Marker)" d="M252 288h50.1M252 288l54.505 62.292M252 288l56.5 96.857M252 288l57.829 132.182"/>
    <path stroke="#004080" stroke-linecap="round" stroke-linejoin="round" stroke-width="2" marker-end="url(#FilledArrow_Marker_2)" d="M198 468h104.1"/>
    <path stroke="green" stroke-linecap="round" stroke-linejoin="round" stroke-width="2" marker-end="url(#FilledArrow_Marker)" d="M144 306v41.1"/>
    <path stroke="green" stroke-linecap="round" stroke-linejoin="round" stroke-width="2" d="M198 288h54"/>
    <path stroke="green" stroke-linecap="round" stroke-linejoin="round" stroke-width="2" marker-end="url(#FilledArrow_Marker)" d="M144 396v41.1"/>
    <path fill="#fff" d="M189 144h243v54H189z"/>
    <path stroke="#999" stroke-dasharray="4 4" stroke-linecap="round" stroke-linejoin="round" d="M432 198H189v-54h243z"/>
    <text fill="#666" transform="translate(193 150)">
      <tspan x="19.789" y="11" font-family="Helvetica" font-size="12" font-style="italic" font-weight="500" textLength="198.756">The ticket was already reported, was </tspan><tspan x=".802" y="25" font-family="Helvetica" font-size="12" font-style="italic" font-weight="500" textLength="236.73">already rejected, isn&apos;t a bug, doesn&apos;t contain </tspan><tspan x="1.279" y="39" font-family="Helvetica" font-size="12" font-style="italic" font-weight="500" textLength="232.441">enough information, or can&apos;t be reproduced.</tspan>
    </text>
    <path stroke="#999" stroke-dasharray="4 4" stroke-linecap="round" stroke-linejoin="round" d="M252 278.5V198M258.364 281.636a9 9 0 11-12.728 12.728 9 9 0 0112.728-12.728"/>
    <path fill="#fff" d="M72 144h99v54H72z"/>
    <path stroke="#999" stroke-dasharray="4 4" stroke-linecap="round" stroke-linejoin="round" d="M171 198H72v-54h99z"/>
    <text fill="#666" transform="translate(76 150)">
      <tspan x="8.486" y="11" font-family="Helvetica" font-size="12" font-style="italic" font-weight="500" textLength="77.361">The ticket is a </tspan><tspan x="4.464" y="25" font-family="Helvetica" font-size="12" font-style="italic" font-weight="500" textLength="85.406">bug and should </tspan><tspan x="22.818" y="39" font-family="Helvetica" font-size="12" font-style="italic" font-weight="500" textLength="22.682">be fi</tspan><tspan x="45.5" y="39" font-family="Helvetica" font-size="12" font-style="italic" font-weight="500" textLength="22.682">xed.</tspan>
    </text>
    <path stroke="#999" stroke-dasharray="4 4" stroke-linecap="round" stroke-linejoin="round" d="M150.364 317.636a9 9 0 11-12.728 12.728 9 9 0 0112.728-12.728"/>
    <path stroke="#999" stroke-dasharray="4 4" stroke-linecap="round" stroke-linejoin="round" d="M134.5 324H81V198"/>
    <path fill="#fff" d="M72 522h342v36H72z"/>
    <path stroke="#999" stroke-dasharray="4 4" stroke-linecap="round" stroke-linejoin="round" d="M414 558H72v-36h342z"/>
    <text fill="#666" transform="translate(76 526)">
      <tspan x="7.241" y="11" font-family="Helvetica" font-size="12" font-style="italic" font-weight="500" textLength="322.852">The ticket has a patch which applies cleanly and includes all </tspan><tspan x="5.905" y="25" font-family="Helvetica" font-size="12" font-style="italic" font-weight="500" textLength="127.424">needed tests and docs. </tspan><tspan x="132.673" y="25" font-family="Helvetica" font-size="12" font-style="italic" font-weight="500" textLength="8.004">A</tspan><tspan x="140.021" y="25" font-family="Helvetica" font-size="12" font-style="italic" font-weight="500" textLength="188.074"> core developer can commit it as is.</tspan>
    </text>
    <path stroke="#999" stroke-dasharray="4 4" stroke-linecap="round" stroke-linejoin="round" d="M150.364 407.636a9 9 0 11-12.728 12.728 9 9 0 0112.728-12.728"/>
    <path stroke="#999" stroke-dasharray="4 4" stroke-linecap="round" stroke-linejoin="round" d="M134.5 414H81v108"/>
    <path stroke="green" stroke-linecap="round" stroke-linejoin="round" stroke-width="2" marker-end="url(#FilledArrow_Marker)" d="M252 288l51.8 29.6"/>
  </g>
</svg>
