<svg xmlns="http://www.w3.org/2000/svg" viewBox="0 0 979.101 353.706">
   <g fill="#354f69">
     <path d="M142.453 62.773h49.6l86.08 229.12h-47.68l-19.2-54.72h-87.68l-19.2 54.72h-47.68zm54.72 134.72l-20.16-57.6-8.32-27.52h-2.56l-8.32 27.52-20.48 57.6zm129.919-86.72q-11.2 0-19.2-8t-8-19.2q0-11.2 8-18.88 8-8 19.2-8t18.88 8q8 7.68 8 18.88t-8 19.2q-7.68 8-18.88 8zm-21.12 17.92h41.92v163.2h-41.92z"/>
     <path fill="#2b435d" d="M461.492 297.013q-22.08 0-40-11.2t-28.48-30.72q-10.24-19.84-10.24-44.8 0-24.96 10.24-44.48 10.56-19.84 28.48-31.04t40-11.2q17.28 0 31.04 7.68 13.76 7.68 20.8 18.88h1.6l-1.6-23.04v-64.32h35.2v229.12h-33.6v-21.12h-1.6q-7.04 10.88-20.8 18.56-13.76 7.68-31.04 7.68zm5.12-32.32q12.8 0 23.68-6.72 11.2-6.72 17.92-19.2 6.72-12.48 6.72-28.48t-6.72-28.16q-6.72-12.48-17.92-19.2-10.88-6.72-23.68-6.72-12.8 0-24 6.72t-17.92 19.2q-6.72 12.16-6.72 28.16t6.72 28.48q6.72 12.48 17.92 19.2 11.2 6.72 24 6.72z"/>
     <path fill="#273244" d="M674.812 297.013q-23.36 0-41.92-11.2-18.56-11.2-29.12-30.72-10.24-19.84-10.24-44.48 0-23.68 9.6-43.52 9.92-19.84 27.84-31.68t41.6-11.84q24 0 41.6 10.88 17.6 10.56 26.88 29.44 9.6 18.88 9.6 43.2 0 4.8-.96 8.32h-128.96q.96 18.56 8.96 31.36t20.16 19.2q12.48 6.4 25.92 6.4 31.36 0 48.32-29.44l23.04 11.2q-10.56 19.84-28.8 31.36-17.92 11.52-43.52 11.52zm47.04-104q-.64-10.24-5.76-20.48t-16.32-17.28q-10.88-7.04-27.52-7.04-19.2 0-32.64 12.48-13.12 12.16-17.28 32.32zm60.479-64.32h25.92v24h1.28q6.72-12.16 21.44-20.48 14.72-8.64 31.36-8.64 29.44 0 44.8 17.28 15.68 16.96 15.68 46.4v104.64h-27.2v-100.48q0-22.72-10.88-32.96-10.88-10.24-29.76-10.24-13.12 0-23.68 7.36-10.24 7.36-16 19.52-5.76 11.84-5.76 24.96v91.84h-27.2z"/>
   </g>
 </svg>
