<svg xmlns="http://www.w3.org/2000/svg" id="Layer_1" x="0" y="0" version="1.1" viewBox="0 0 800 400" xml:space="preserve">
  <style>
    .st1{enable-background:new}.st2{fill:#e6f0ff}.st3{fill:#d7e7ff}.st4{opacity:.5;fill:#e6f0ff;enable-background:new}
  </style>
  <radialGradient id="SVGID_1_" cx="400" cy="202" r="316.228" gradientTransform="matrix(1 0 0 -1 0 402)" gradientUnits="userSpaceOnUse">
    <stop offset="0" stop-color="#14345a"/>
    <stop offset="1" stop-color="#001c49"/>
  </radialGradient>
  <path fill="url(#SVGID_1_)" d="M0 0h800v400H0z"/>
  <g class="st1">
    <path d="M121.7 124.8c1.9-.5 4.2-.8 6.9-.8 4.2 0 7.6.5 10.2 1.4 5.3 1.8 8.9 5.2 10.8 10.3.4 1.1.6 2.3.6 3.6 0 1.8-.5 3.2-1.5 4.4-1 1.1-2.2 1.7-3.7 1.7-2.4-.3-4.7-1.8-6.9-4.5-.9-1.1-2-2.1-3.1-2.7-1.1-.7-2.7-1-4.5-1-5.5 0-8.8 1-9.8 3.1-.2.4-.3.8-.3 1.1 0 3.6 6 8.3 18.1 13.9 3.1 1.5 6.4 3.8 9.9 7.1s5.8 6.1 7 8.4c1.3 2.5 1.9 5 1.9 7.5 0 3.5-1.2 7-3.5 10.3-2.3 3.3-5.6 6-9.8 8.1-1.9.9-3.9 1.6-5.9 2-2.1.4-4.7.6-8 .6H129c-3.6-.1-6.4-.3-8.3-.6-3.1-.4-5.7-1.2-7.8-2.3-2.7-1.4-5.2-3.1-7.3-5.4-2.2-2.2-3.3-4.1-3.3-5.5 0-1.6.8-2.9 2.3-4 1.5-1.1 3.1-1.6 4.9-1.6 1.9 0 3.4.7 4.5 2 3.1 3.5 8 5.3 14.7 5.3 7.7 0 12.7-2.1 14.8-6.3.4-.8.6-1.8.6-2.8 0-3.9-6.4-9.3-19.1-16.3-4.9-2.7-8.3-4.9-10.3-6.6-2.3-1.9-4-4.2-5.2-6.9-1-2.3-1.6-4.6-1.6-7v-.5c0-3.4 1.2-6.6 3.6-9.5 2.7-3.2 6.1-5.4 10.2-6.5z" class="st2"/>
  </g>
  <g class="st1">
    <path d="M200.2 124.9c1.6-.3 3.2-.5 5-.5 3.3 0 6.6.5 9.8 1.5 3.2 1 5.4 2.2 6.8 3.7.7.7 1.2 2.5 1.3 5.2.2 2.8.2 9.1.2 19.1.1 10.6.2 17.3.4 20 .2 2.7.8 5.3 1.8 7.8 1.3 3.8 2.7 6.7 4.4 8.9 1.6 2.4 2.4 4.4 2.5 5.9 0 1.9-.6 3.4-1.7 4.6-1.1 1.2-2.5 1.8-4.1 1.8-2.1 0-4-.9-5.6-2.8-1.3-1.5-2.8-3.9-4.5-7.3-1.8-3.4-2.7-5.7-2.7-6.9 0-.1-.1-.2-.2-.2-.7 0-2.3 1.3-4.8 3.9-5.7 5.7-12.1 9-19.1 9.7-.7.1-1.8.2-3.1.2-8.9 0-15.5-4.1-19.8-12.3-1.7-3.4-2.6-7.1-2.7-10.9v-2.7c0-5.2.7-9.8 2-13.9 2.9-8.4 7.7-16 14.3-22.7 6.7-6.7 13.3-10.7 19.8-12.1zm9.7 13.5c-.8-.5-1.9-.8-3.3-.8-2.6 0-5.6.9-8.9 2.7-3.3 1.8-6.4 4.2-9.2 7.1-3.2 3.5-5.8 7.6-7.8 12.2-2.6 5.4-3.9 10.3-3.9 14.7 0 6.3 2.5 10.1 7.5 11.4 1.1.3 2.2.5 3.3.6 4.2 0 8.1-2 12-6 3.8-4 6.6-9.3 8.5-15.9 1.9-6.4 2.8-13.3 2.8-20.8-.1-2.9-.4-4.7-1-5.2z" class="st2"/>
  </g>
  <g class="st1">
    <path d="M262.7 126.8c.8-.2 2.2-.3 4.2-.3 4.5 0 8.5.9 12.2 2.8.2.1.6.3 1.1.5 3.3 1.5 5.3 2.8 5.9 3.9.7 1.4 1.1 5.4 1.3 12.2v2.3c.2 8.8 1 20.7 2.5 35.8.9 10.1 1.4 17.3 1.4 21.7 0 5.8-.5 9.8-1.6 12-1 2.1-2.8 4.5-5.2 7-5.5 5.5-13.5 8.3-23.9 8.3-7.1 0-13.7-1.5-19.8-4.4-4.5-2.1-6.7-4.3-6.7-6.7 0-.9.3-2.1.8-3.4.9-2.3 2.4-3.4 4.4-3.4 1.4 0 3.6.7 6.7 2.2 2.7 1.3 6.9 2.2 12.5 3 .8.1 1.7.2 2.7.2h.2c6.5 0 11.6-3.4 15.3-10.3.7-1.4 1.1-3.7 1.1-7 0-2.1-.2-4.5-.5-7.3l-.6-7.8-3.1 2.7c-4.9 4.2-9.7 6.3-14.4 6.3-.2 0-.5 0-1 .1s-.8.1-1 .1c-6 0-11.1-2.4-15.2-7.3s-6.1-11.1-6.1-18.8c0-12.1 2.6-22 7.8-29.8 4.9-8 11.3-12.7 19-14.6zm10.9 14.4c-.3-.9-1.7-1.4-4.1-1.4-2.6 0-5.2.5-7.7 1.6-8.2 3.5-12.3 12.3-12.3 26.4 0 7.2 2.1 11.8 6.4 13.9 1.4.6 2.7.9 4.1.9 5.6 0 9.7-3.8 12.2-11.4.7-2.3 1.2-7 1.3-14.1.2-7.1.2-12 .2-14.5.1-.9 0-1.3-.1-1.4z" class="st2"/>
  </g>
  <g class="st1">
    <path d="M303.9 139c5.2-10.2 12.5-15.3 21.9-15.3 3.8 0 8 .9 12.8 2.7 9.8 3.8 14.7 9.3 14.7 16.7 0 2.5-.6 4.9-1.9 7.3-2 4.2-6.3 8-13 11.5s-13.6 5.5-20.7 6c-4.2.3-6.3.8-6.3 1.6.1 1.3.9 3.2 2.3 5.7 1.4 2.6 2.8 4.5 4.3 5.9 4.4 4.3 9.7 6.4 15.9 6.4 3.8 0 8.2-.6 13.4-1.7 4.8-.8 8.1-1.3 10-1.3 3.1 0 5 1.2 5.6 3.6v1.7c0 3-1 5.1-3.1 6.1-1.3.6-5.1 1.4-11.6 2.3-5.6.8-10.5 1.3-14.7 1.4-6.3 0-11.4-.9-15.3-2.8-2.9-1.4-6-3.7-9.4-7-3.3-3.3-5.7-6.6-7.2-9.7-1.7-3.2-2.7-8.1-3.1-14.7v-2.3-2.2c0-7.9 1.8-15.1 5.4-21.9zm32.5-.1c-1.9-1-4.3-1.7-7.2-2.1h-1.3c-6.3 0-10.9 3.8-14.1 11.3-1 2.9-1.6 4.7-1.6 5.3 0 1.1.9 1.7 2.8 1.7 1 0 2-.1 2.8-.2 5.6-.6 10.6-2.2 14.8-4.8 4.3-2.6 6.4-5.1 6.4-7.6.2-1.4-.8-2.6-2.6-3.6z" class="st2"/>
  </g>
  <g class="st1">
    <path d="M450.6 124.8c1.9-.5 4.2-.8 6.9-.8 4.2 0 7.6.5 10.2 1.4 5.3 1.8 8.9 5.2 10.8 10.3.4 1.1.6 2.3.6 3.6 0 1.8-.5 3.2-1.5 4.4-1 1.1-2.2 1.7-3.7 1.7-2.4-.3-4.7-1.8-6.9-4.5-.9-1.1-2-2.1-3.1-2.7-1.1-.7-2.7-1-4.5-1-5.5 0-8.8 1-9.8 3.1-.2.4-.3.8-.3 1.1 0 3.6 6 8.3 18.1 13.9 3.1 1.5 6.4 3.8 9.9 7.1s5.8 6.1 7 8.4c1.3 2.5 1.9 5 1.9 7.5 0 3.5-1.2 7-3.5 10.3-2.3 3.3-5.6 6-9.8 8.1-1.9.9-3.9 1.6-5.9 2-2.1.4-4.7.6-8 .6h-1.1c-3.6-.1-6.4-.3-8.3-.6-3.1-.4-5.7-1.2-7.8-2.3-2.7-1.4-5.2-3.1-7.3-5.4-2.2-2.2-3.3-4.1-3.3-5.5 0-1.6.8-2.9 2.3-4 1.5-1.1 3.1-1.6 4.9-1.6 1.9 0 3.4.7 4.5 2 3.1 3.5 8 5.3 14.7 5.3 7.7 0 12.7-2.1 14.8-6.3.4-.8.6-1.8.6-2.8 0-3.9-6.4-9.3-19.1-16.3-4.9-2.7-8.3-4.9-10.3-6.6-2.3-1.9-4-4.2-5.2-6.9-1-2.3-1.6-4.6-1.6-7v-.5c0-3.4 1.2-6.6 3.6-9.5 2.7-3.2 6.1-5.4 10.2-6.5z" class="st2"/>
  </g>
  <g class="st1">
    <path d="M529.1 124.9c1.6-.3 3.2-.5 5-.5 3.3 0 6.6.5 9.8 1.5 3.2 1 5.4 2.2 6.8 3.7.7.7 1.2 2.5 1.3 5.2.2 2.8.2 9.1.2 19.1.1 10.6.2 17.3.4 20 .2 2.7.8 5.3 1.8 7.8 1.3 3.8 2.7 6.7 4.4 8.9 1.6 2.4 2.4 4.4 2.5 5.9 0 1.9-.6 3.4-1.7 4.6-1.1 1.2-2.5 1.8-4.1 1.8-2.1 0-4-.9-5.6-2.8-1.3-1.5-2.8-3.9-4.5-7.3-1.8-3.4-2.7-5.7-2.7-6.9 0-.1-.1-.2-.2-.2-.7 0-2.3 1.3-4.8 3.9-5.7 5.7-12.1 9-19.1 9.7-.7.1-1.8.2-3.1.2-8.9 0-15.5-4.1-19.8-12.3-1.7-3.4-2.6-7.1-2.7-10.9v-2.7c0-5.2.7-9.8 2-13.9 2.9-8.4 7.7-16 14.3-22.7 6.7-6.7 13.3-10.7 19.8-12.1zm9.7 13.5c-.8-.5-1.9-.8-3.3-.8-2.6 0-5.6.9-8.9 2.7-3.3 1.8-6.4 4.2-9.2 7.1-3.2 3.5-5.8 7.6-7.8 12.2-2.6 5.4-3.9 10.3-3.9 14.7 0 6.3 2.5 10.1 7.5 11.4 1.1.3 2.2.5 3.3.6 4.2 0 8.1-2 12-6 3.8-4 6.6-9.3 8.5-15.9 1.9-6.4 2.8-13.3 2.8-20.8 0-2.9-.3-4.7-1-5.2z" class="st2"/>
  </g>
  <g class="st1">
    <path d="M565.2 125.9c1-1.1 2.5-1.7 4.4-1.7.1.1.2.2.3.2 1.8 0 3.3.5 4.7 1.6 1 .8 1.8 3.8 2.2 8.8.4 4.8.8 7.2 1.3 7.2.4 0 1.1-1 2.2-3.1 1.3-2.5 3-4.9 5.3-7.3 2.7-2.7 5-4.5 6.9-5.5 2.2-1 5-1.6 8.4-1.6 8.1 0 15.1 3.3 20.9 10 3.8 4 6.5 8.8 8.1 14.4 2.1 6.5 3.3 14 3.8 22.5.4 6.5.6 10.6.6 12.5 0 7.5-.9 12-2.8 13.4-1 .8-2.3 1.3-3.8 1.3-1.9 0-3.4-.6-4.7-1.9-.7-.7-1.2-1.8-1.3-3.4-.2-1.5-.2-4.8-.2-9.8 0-6.5-.4-12.8-1.3-19.1-1-7.7-3.3-14.2-6.9-19.4-3.5-5.2-7.4-7.8-11.6-7.8-2.1 0-4.1.7-5.9 2.2-7.5 6.3-11.6 20.1-12.2 41.6-.2 8.4-.6 13.6-1.3 15.5-.6 1.9-2.2 2.9-4.7 2.9-3.3 0-5.5-1.4-6.4-4.1-1.1-3.3-2-10.1-2.7-20.3-.4-5-1.1-11.8-2.2-20.3-1.5-11-2.2-17.3-2.2-18.8-.2-3.3-.3-5.2-.3-5.6.1-2.1.5-3.6 1.4-4.4z" class="st2"/>
  </g>
  <g class="st1">
    <path d="M659.3 124.8c1.9-.5 4.2-.8 6.9-.8 4.2 0 7.6.5 10.2 1.4 5.3 1.8 8.9 5.2 10.8 10.3.4 1.1.6 2.3.6 3.6 0 1.8-.5 3.2-1.5 4.4-1 1.1-2.2 1.7-3.7 1.7-2.4-.3-4.7-1.8-6.9-4.5-.9-1.1-2-2.1-3.1-2.7-1.1-.7-2.7-1-4.5-1-5.5 0-8.8 1-9.8 3.1-.2.4-.3.8-.3 1.1 0 3.6 6 8.3 18.1 13.9 3.1 1.5 6.4 3.8 9.9 7.1s5.8 6.1 7 8.4c1.3 2.5 1.9 5 1.9 7.5 0 3.5-1.2 7-3.5 10.3-2.3 3.3-5.6 6-9.8 8.1-1.9.9-3.9 1.6-5.9 2-2.1.4-4.7.6-8 .6h-1.1c-3.6-.1-6.4-.3-8.3-.6-3.1-.4-5.7-1.2-7.8-2.3-2.7-1.4-5.2-3.1-7.3-5.4-2.2-2.2-3.3-4.1-3.3-5.5 0-1.6.8-2.9 2.3-4 1.5-1.1 3.1-1.6 4.9-1.6 1.9 0 3.4.7 4.5 2 3.1 3.5 8 5.3 14.7 5.3 7.7 0 12.7-2.1 14.8-6.3.4-.8.6-1.8.6-2.8 0-3.9-6.4-9.3-19.1-16.3-4.9-2.7-8.3-4.9-10.3-6.6-2.3-1.9-4-4.2-5.2-6.9-1-2.3-1.6-4.6-1.6-7v-.5c0-3.4 1.2-6.6 3.6-9.5 2.7-3.2 6.1-5.4 10.2-6.5z" class="st2"/>
  </g>
  <g class="st1">
    <path d="M108.7 292c.3-.1.6-.1 1-.1.7 0 1.3.1 2 .3.6.2 1.1.4 1.4.7.1.1.2.5.3 1v3.8c0 2.1 0 3.5.1 4 0 .5.2 1.1.4 1.6.3.8.5 1.3.9 1.8.3.5.5.9.5 1.2 0 .4-.1.7-.3.9-.2.2-.5.4-.8.4-.4 0-.8-.2-1.1-.6-.3-.3-.6-.8-.9-1.5-.4-.7-.5-1.1-.5-1.4-.1 0-.5.3-1 .8-1.1 1.1-2.4 1.8-3.8 1.9h-.6c-1.8 0-3.1-.8-4-2.5-.3-.7-.5-1.4-.5-2.2v-.5c0-1 .1-2 .4-2.8.6-1.7 1.5-3.2 2.9-4.5 1-1.2 2.3-2 3.6-2.3zm2 2.7c-.2-.1-.4-.2-.7-.2-.5 0-1.1.2-1.8.5-.7.4-1.3.8-1.8 1.4-.6.7-1.2 1.5-1.6 2.4-.5 1.1-.8 2.1-.8 2.9 0 1.3.5 2 1.5 2.3.2.1.4.1.7.1.8 0 1.6-.4 2.4-1.2.8-.8 1.3-1.9 1.7-3.2.4-1.3.6-2.7.6-4.2-.1-.4-.1-.7-.2-.8z" class="st3"/>
  </g>
  <g class="st1">
    <path d="M132.8 292c.4-.1.8-.2 1.4-.2.8 0 1.5.1 2 .3 1.1.4 1.8 1 2.2 2.1.1.2.1.5.1.7 0 .4-.1.6-.3.9-.2.2-.4.3-.7.3-.5-.1-.9-.4-1.4-.9-.2-.2-.4-.4-.6-.5-.2-.1-.5-.2-.9-.2-1.1 0-1.8.2-2 .6 0 .1-.1.2-.1.2 0 .7 1.2 1.7 3.6 2.8.6.3 1.3.8 2 1.4.7.7 1.2 1.2 1.4 1.7.3.5.4 1 .4 1.5 0 .7-.2 1.4-.7 2.1-.5.7-1.1 1.2-2 1.6-.4.2-.8.3-1.2.4-.4.1-.9.1-1.6.1h-.2c-.7 0-1.3-.1-1.7-.1-.6-.1-1.1-.2-1.6-.5s-1-.6-1.5-1.1c-.4-.4-.7-.8-.7-1.1 0-.3.2-.6.5-.8.3-.2.6-.3 1-.3s.7.1.9.4c.6.7 1.6 1.1 2.9 1.1 1.5 0 2.5-.4 3-1.3.1-.2.1-.4.1-.6 0-.8-1.3-1.9-3.8-3.3-1-.5-1.7-1-2.1-1.3-.5-.4-.8-.8-1-1.4-.2-.5-.3-.9-.3-1.4v-.1c0-.7.2-1.3.7-1.9.7-.6 1.4-1 2.2-1.2z" class="st3"/>
  </g>
  <g class="st1">
    <path d="M148.8 292c.3-.1.6-.1 1-.1.7 0 1.3.1 2 .3.6.2 1.1.4 1.4.7.1.1.2.5.3 1v3.8c0 2.1 0 3.5.1 4 0 .5.2 1.1.4 1.6.3.8.5 1.3.9 1.8.3.5.5.9.5 1.2 0 .4-.1.7-.3.9-.2.2-.5.4-.8.4-.4 0-.8-.2-1.1-.6-.3-.3-.6-.8-.9-1.5-.4-.7-.5-1.1-.5-1.4-.1 0-.5.3-1 .8-1.1 1.1-2.4 1.8-3.8 1.9h-.6c-1.8 0-3.1-.8-4-2.5-.3-.7-.5-1.4-.5-2.2v-.5c0-1 .1-2 .4-2.8.6-1.7 1.5-3.2 2.9-4.5 1-1.2 2.3-2 3.6-2.3zm2 2.7c-.2-.1-.4-.2-.7-.2-.5 0-1.1.2-1.8.5-.7.4-1.3.8-1.8 1.4-.6.7-1.2 1.5-1.6 2.4-.5 1.1-.8 2.1-.8 2.9 0 1.3.5 2 1.5 2.3.2.1.4.1.7.1.8 0 1.6-.4 2.4-1.2.8-.8 1.3-1.9 1.7-3.2.4-1.3.6-2.7.6-4.2-.1-.4-.1-.7-.2-.8z" class="st3"/>
  </g>
  <g class="st1">
    <path d="M156.3 292.2c.2-.2.5-.3.9-.3h.1c.4 0 .7.1.9.3.2.2.4.8.4 1.8.1 1 .2 1.4.3 1.4.1 0 .2-.2.4-.6.3-.5.6-1 1.1-1.5.5-.5 1-.9 1.4-1.1.4-.2 1-.3 1.7-.3 1.6 0 3 .7 4.2 2 .8.8 1.3 1.8 1.6 2.9.4 1.3.7 2.8.8 4.5.1 1.3.1 2.1.1 2.5 0 1.5-.2 2.4-.6 2.7-.2.2-.5.3-.8.3-.4 0-.7-.1-.9-.4-.1-.1-.2-.4-.3-.7v-2c0-1.3-.1-2.6-.3-3.8-.2-1.5-.7-2.8-1.4-3.9-.7-1-1.5-1.6-2.3-1.6-.4 0-.8.1-1.2.4-1.5 1.3-2.3 4-2.4 8.3 0 1.7-.1 2.7-.3 3.1-.1.4-.4.6-.9.6-.7 0-1.1-.3-1.3-.8-.2-.7-.4-2-.5-4.1-.1-1-.2-2.4-.4-4.1-.3-2.2-.4-3.5-.4-3.8 0-.7-.1-1-.1-1.1 0-.3 0-.5.2-.7z" class="st3"/>
  </g>
  <g class="st1">
    <path d="M175.4 292c.4-.1.8-.2 1.4-.2.8 0 1.5.1 2 .3 1.1.4 1.8 1 2.2 2.1.1.2.1.5.1.7 0 .4-.1.6-.3.9-.2.2-.4.3-.7.3-.5-.1-.9-.4-1.4-.9-.2-.2-.4-.4-.6-.5-.2-.1-.5-.2-.9-.2-1.1 0-1.8.2-2 .6 0 .1-.1.2-.1.2 0 .7 1.2 1.7 3.6 2.8.6.3 1.3.8 2 1.4.7.7 1.2 1.2 1.4 1.7.3.5.4 1 .4 1.5 0 .7-.2 1.4-.7 2.1-.5.7-1.1 1.2-2 1.6-.4.2-.8.3-1.2.4-.4.1-.9.1-1.6.1h-.2c-.7 0-1.3-.1-1.7-.1-.6-.1-1.1-.2-1.6-.5s-1-.6-1.5-1.1c-.4-.4-.7-.8-.7-1.1 0-.3.2-.6.5-.8.3-.2.6-.3 1-.3s.7.1.9.4c.6.7 1.6 1.1 2.9 1.1 1.5 0 2.5-.4 3-1.3.1-.2.1-.4.1-.6 0-.8-1.3-1.9-3.8-3.3-1-.5-1.7-1-2.1-1.3-.5-.4-.8-.8-1-1.4-.2-.5-.3-.9-.3-1.4v-.1c0-.7.2-1.3.7-1.9.7-.6 1.4-1 2.2-1.2z" class="st3"/>
  </g>
  <g class="st1">
    <path d="M183.7 297.7c-.1-.2-.1-.4-.1-.6 0-.3.1-.6.2-.8.1-.2.3-.4.4-.5.3-.1 1.1-.2 2.3-.3 1.1-.1 2.1-.1 3-.1 2.7 0 4.2.1 4.7.2.8.3 1.2.7 1.2 1.3 0 .3 0 .5-.1.7-.1.5-.5.8-1 .8s-.8 0-1-.1c-.3-.1-1.1-.1-2.5-.1h-1.2c-1.4.1-2.7.1-4 .1h-.7c-.5 0-.7 0-.8-.1-.2-.1-.3-.2-.4-.5z" class="st3"/>
  </g>
  <g class="st1">
    <path d="M200 292c.4-.1.8-.2 1.4-.2.8 0 1.5.1 2 .3 1.1.4 1.8 1 2.2 2.1.1.2.1.5.1.7 0 .4-.1.6-.3.9-.2.2-.4.3-.7.3-.5-.1-.9-.4-1.4-.9-.2-.2-.4-.4-.6-.5-.2-.1-.5-.2-.9-.2-1.1 0-1.8.2-2 .6 0 .1-.1.2-.1.2 0 .7 1.2 1.7 3.6 2.8.6.3 1.3.8 2 1.4.7.7 1.2 1.2 1.4 1.7.3.5.4 1 .4 1.5 0 .7-.2 1.4-.7 2.1-.5.7-1.1 1.2-2 1.6-.4.2-.8.3-1.2.4-.4.1-.9.1-1.6.1h-.2c-.7 0-1.3-.1-1.7-.1-.6-.1-1.1-.2-1.6-.5s-1-.6-1.5-1.1c-.4-.4-.7-.8-.7-1.1 0-.3.2-.6.5-.8.3-.2.6-.3 1-.3s.7.1.9.4c.6.7 1.6 1.1 2.9 1.1 1.5 0 2.5-.4 3-1.3.1-.2.1-.4.1-.6 0-.8-1.3-1.9-3.8-3.3-1-.5-1.7-1-2.1-1.3-.5-.4-.8-.8-1-1.4-.2-.5-.3-.9-.3-1.4v-.1c0-.7.2-1.3.7-1.9.7-.6 1.4-1 2.2-1.2z" class="st3"/>
  </g>
  <g class="st1">
    <path d="M209.7 294.8c1-2 2.5-3.1 4.4-3.1.8 0 1.6.2 2.6.5 2 .8 2.9 1.9 2.9 3.3 0 .5-.1 1-.4 1.5-.4.8-1.3 1.6-2.6 2.3-1.3.7-2.7 1.1-4.1 1.2-.8.1-1.3.2-1.3.3 0 .3.2.6.5 1.1.3.5.6.9.9 1.2.9.9 1.9 1.3 3.2 1.3.8 0 1.6-.1 2.7-.3 1-.2 1.6-.3 2-.3.6 0 1 .2 1.1.7v.3c0 .6-.2 1-.6 1.2-.3.1-1 .3-2.3.5-1.1.2-2.1.3-2.9.3-1.3 0-2.3-.2-3.1-.6-.6-.3-1.2-.7-1.9-1.4s-1.1-1.3-1.4-1.9c-.3-.6-.5-1.6-.6-2.9v-.5-.4c-.2-1.5.2-2.9.9-4.3zm6.5 0c-.4-.2-.9-.3-1.4-.4h-.3c-1.3 0-2.2.8-2.8 2.3-.2.6-.3.9-.3 1.1 0 .2.2.3.6.3h.6c1.1-.1 2.1-.4 3-1 .9-.5 1.3-1 1.3-1.5-.2-.4-.4-.6-.7-.8z" class="st3"/>
  </g>
  <g class="st1">
    <path d="M223.1 292.1c.2-.2.5-.3.9-.3s.7.1.9.3c.2.2.3.6.3 1v.7l1-.4c.7-.3 1.3-.6 2-.7.5-.1 1.1-.2 1.9-.2 1.3 0 2.1.1 2.6.3.4.2.7.6.7 1.1 0 .5-.2.9-.6 1.2-.2.1-.4.1-.6.1-.1 0-.4 0-.9-.1-.3-.1-.7-.1-1.2-.1-1.5 0-2.8.5-3.6 1.5-.4.5-.7.9-.8 1.3-.1.4-.2 1.1-.2 2 0 .3 0 1 .1 2.3v2.1c0 1.1 0 1.7-.1 1.8-.2.2-.4.3-.7.4-.2.1-.4.1-.5.1-.6 0-1-.4-1.3-1.2-.2-.5-.3-1.4-.3-2.6 0-.2 0-1.6.1-4.3 0-2.7.1-4.4.1-5.1 0-.6 0-1.1.2-1.2z" class="st3"/>
  </g>
  <g class="st1">
    <path d="M235.5 287.1c.3-.3.7-.4 1.4-.4.3 0 .6.1.8.2.4.3.6.8.6 1.4s-.2 1.2-.6 1.4c-.2.1-.4.2-.8.2-.8 0-1.2-.1-1.4-.3-.2-.2-.3-.6-.3-1.2-.1-.6 0-1 .3-1.3zm-.1 5.8c.2-.3.5-.4 1-.4.6 0 1 .3 1.1.9.1.6.2 2.7.2 6.2v5.3c0 .6-.1 1.1-.3 1.3-.3.3-.6.5-.9.5h-.1c-.4 0-.7-.2-.9-.5-.2-.2-.3-.7-.3-1.3v-5.4c-.1-4.1 0-6.3.2-6.6z" class="st3"/>
  </g>
  <g class="st1">
    <path d="M243.3 310l-.3-2.6v-.3c0-1-.1-1.9-.3-2.9-.1-.4-.1-.5-.1-.5H241.4h-.1c-.7 0-1.2-.1-1.5-.3-.4-.2-.5-.6-.5-1.1 0-.6.2-1 .5-1.2.6-.2 1.1-.3 1.6-.3h1v-1.4c0-1.4.3-2.8 1-4.1.3-.6.8-1.3 1.5-1.9.6-.6 1.3-1 2-1.2.8-.2 1.6-.4 2.4-.4h.2c.8 0 1.4.2 1.8.4.3.2.4.5.4.9 0 .2-.1.5-.2.8 0 .3-.2.5-.6.6-.2.1-.6.1-1.1.1-1.2 0-2.1.3-2.8.8-.7.5-1.2 1.5-1.4 2.9-.1.7-.2 1.3-.2 1.6v.9l1.6.1h.9c.6 0 1.5-.1 2.6-.3h.6c.3 0 .6.1.9.3.3.2.4.6.4 1.2s-.1.9-.3.9c-1.2.3-1.9.4-2 .4-.7.1-1.5.2-2.6.2h-2.1l.1.4c0 .7.1 1.5.2 2.5.1.8.2 1.6.3 2.3.3 1.5.4 2.5.4 2.8 0 .3-.1.6-.2.8-.3.5-.8.7-1.3.7-.6 0-.9-.2-1.1-.7l-.5-2.4z" class="st3"/>
  </g>
  <g class="st1">
    <path d="M255.8 301.2c.3-.4.7-.5 1-.6.4 0 .8.3 1.3.8.4.5.7 1 .9 1.6.1.5.3 1.4.3 2.5l.1 1.4-.1.4-.2.5-.4.5c-.6.8-1.4 1.6-2.3 2.3-.6.4-1.3.8-2 1.1h-.1c-.3 0-.6-.2-.9-.7-.2-.3-.3-.5-.4-.7v-.3l.1-.3.8-.8c.3-.3 1-.9 1.9-1.7.2-.1.4-.4.5-.6.1-.2.2-.3.2-.3.1-.1.1-.3.1-.7 0-.1 0-.5-.1-1-.1-.4-.3-.9-.6-1.4-.3-.5-.5-.9-.5-1.2 0-.2.1-.6.4-.8z" class="st3"/>
  </g>
  <g class="st1">
    <path d="M275.9 282.7c.2-.2.5-.4.9-.4.5 0 .9.2 1 .6.1.4.2 1.7.3 3.7.1 2.8.2 4.6.2 5.5l.1 1.8.7-.7c.8-.7 1.6-1.1 2.5-1.1h.1c2.2 0 3.8 1.1 4.9 3.3.6 1.1.8 2.4.8 3.9 0 .2 0 .9-.1 2.2-.1.9-.1 1.8-.1 2.6v1.4c0 .3-.1.6-.4.8-.3.3-.6.4-.9.4-.6 0-1-.1-1.2-.3-.3-.2-.5-.8-.5-1.6s.1-1.6.2-2.7.2-2.2.2-3.2v-.6c-.1-1-.4-1.8-.9-2.4-.5-.6-1.1-1-1.7-1-.5 0-.9.2-1.3.7-.5.5-.8 1.3-1.1 2.3-.4 1.7-.7 3.8-1 6.4-.1 1-.3 1.7-.5 1.8-.3.2-.6.3-.8.3-.3 0-.6-.1-.8-.3-.2-.2-.3-.6-.3-1.4-.1-.8-.1-2.8-.1-6.1-.1-5.4-.2-9.2-.2-11.6 0-2-.1-3-.1-3.2-.2-.4-.1-1 .1-1.1z" class="st3"/>
  </g>
  <g class="st1">
    <path d="M296.8 292c.3-.1.6-.1 1-.1.7 0 1.3.1 2 .3.6.2 1.1.4 1.4.7.1.1.2.5.3 1v3.8c0 2.1 0 3.5.1 4 0 .5.2 1.1.4 1.6.3.8.5 1.3.9 1.8.3.5.5.9.5 1.2 0 .4-.1.7-.3.9-.2.2-.5.4-.8.4-.4 0-.8-.2-1.1-.6-.3-.3-.6-.8-.9-1.5-.4-.7-.5-1.1-.5-1.4-.1 0-.5.3-1 .8-1.1 1.1-2.4 1.8-3.8 1.9h-.6c-1.8 0-3.1-.8-4-2.5-.3-.7-.5-1.4-.5-2.2v-.5c0-1 .1-2 .4-2.8.6-1.7 1.5-3.2 2.9-4.5 1-1.2 2.3-2 3.6-2.3zm2 2.7c-.2-.1-.4-.2-.7-.2-.5 0-1.1.2-1.8.5-.7.4-1.3.8-1.8 1.4-.6.7-1.2 1.5-1.6 2.4-.5 1.1-.8 2.1-.8 2.9 0 1.3.5 2 1.5 2.3.2.1.4.1.7.1.8 0 1.6-.4 2.4-1.2.8-.8 1.3-1.9 1.7-3.2.4-1.3.6-2.7.6-4.2 0-.4-.1-.7-.2-.8z" class="st3"/>
  </g>
  <g class="st1">
    <path d="M304.3 292.2c.2-.2.5-.3.9-.3h.1c.4 0 .7.1.9.3.2.2.4.8.4 1.8.1 1 .2 1.4.3 1.4.1 0 .2-.2.4-.6.3-.5.6-1 1.1-1.5.5-.5 1-.9 1.4-1.1.4-.2 1-.3 1.7-.3 1.6 0 3 .7 4.2 2 .8.8 1.3 1.8 1.6 2.9.4 1.3.7 2.8.8 4.5.1 1.3.1 2.1.1 2.5 0 1.5-.2 2.4-.6 2.7-.2.2-.5.3-.8.3-.4 0-.7-.1-.9-.4-.1-.1-.2-.4-.3-.7v-2c0-1.3-.1-2.6-.3-3.8-.2-1.5-.7-2.8-1.4-3.9-.7-1-1.5-1.6-2.3-1.6-.4 0-.8.1-1.2.4-1.5 1.3-2.3 4-2.4 8.3 0 1.7-.1 2.7-.3 3.1-.1.4-.4.6-.9.6-.7 0-1.1-.3-1.3-.8-.2-.7-.4-2-.5-4.1-.1-1-.2-2.4-.4-4.1-.3-2.2-.4-3.5-.4-3.8 0-.7-.1-1-.1-1.1 0-.3 0-.5.2-.7z" class="st3"/>
  </g>
  <g class="st1">
    <path d="M330.3 283.4c.2-.1.4-.1.5-.1.2 0 .5.1.7.3.7.6 1 2.8 1 6.5 0 5.9.6 10.6 1.7 14 .3.9.4 1.5.5 1.9 0 .1 0 .2-.1.3-.2.3-.5.5-1.1.5-.3 0-.5 0-.7-.1-.5-.2-1-1.2-1.5-3l-.2-.9-.4.7c-.3.5-.7 1-1.3 1.6-1.1 1.2-2.4 1.8-3.9 1.8-1.4 0-2.6-.5-3.6-1.6-.9-.9-1.4-2.1-1.6-3.5 0-.2-.1-.6-.1-1.1 0-1.7.5-3.3 1.4-4.8.9-1.5 2.1-2.5 3.4-3 .6-.2 1.2-.3 1.9-.3.9 0 1.7.2 2.3.5.5.3.8.3.8.3 0-.1-.1-1-.2-2.7-.2-2-.3-3.5-.3-4.7v-.5c0-.8.1-1.3.2-1.6.1-.2.3-.4.6-.5zm-2.1 12.1c-.5-.2-1-.3-1.4-.3-1.4 0-2.6 1-3.4 2.9-.4.8-.5 1.6-.5 2.5 0 1 .2 1.8.7 2.5s1 1.2 1.7 1.3h.2c.9 0 1.8-.7 2.8-2.1s1.5-2.9 1.7-4.5c0-.5.1-.7.1-.8 0-.3-.1-.5-.4-.8-.6-.2-1-.4-1.5-.7z" class="st3"/>
  </g>
  <g class="st1">
    <path d="M336.3 292.2c.2-.2.5-.3.9-.3.3 0 .6.1.8.3.2.1.3.3.3.5s.2.8.3 1.9c.1.8.3 1.7.7 2.9.2.8.4 1.8.6 3l.2 1.5.3-.9c.6-1.7 1.2-2.8 1.8-3.2.3-.3.7-.4 1.3-.4.6 0 1 .2 1.4.7.3.4.7 1.3 1.1 2.5.4 1.3.6 2 .7 2 .2 0 .5-1.3.8-4 .3-2.4.6-4.1 1-5.1s.9-1.5 1.4-1.5h.3c.3.1.5.2.8.4.2.2.3.5.3.8v.2c0 .1-.2.7-.6 1.8-.3 1-.6 2.3-.8 4.1-.4 3-.9 5-1.5 6.3-.2.4-.4.7-.6.9-.2.2-.4.3-.6.4-.2 0-.3.1-.4.1-1.2 0-2.1-1.3-2.8-4-.3-1.2-.5-1.8-.5-1.8-.1 0-.2.4-.5 1.1s-.6 1.5-1 2.4-.8 1.5-1 1.8c-.3.3-.5.4-.8.4-.6 0-1-.4-1.4-1.2-.4-.8-.7-2.1-1-3.9-.5-2.7-1-4.9-1.6-6.7-.1-.4-.2-.8-.2-1.3-.1-1 .1-1.5.3-1.7z" class="st3"/>
  </g>
  <g class="st1">
    <path d="M354 292.1c.2-.2.5-.3.9-.3s.7.1.9.3c.2.2.3.6.3 1v.7l1-.4c.7-.3 1.3-.6 2-.7.5-.1 1.1-.2 1.9-.2 1.3 0 2.1.1 2.6.3.4.2.7.6.7 1.1 0 .5-.2.9-.6 1.2-.2.1-.4.1-.6.1-.1 0-.4 0-.9-.1-.3-.1-.7-.1-1.2-.1-1.5 0-2.8.5-3.6 1.5-.4.5-.7.9-.8 1.3-.1.4-.2 1.1-.2 2 0 .3 0 1 .1 2.3v2.1c0 1.1 0 1.7-.1 1.8-.2.2-.4.3-.7.4-.2.1-.4.1-.5.1-.6 0-1-.4-1.3-1.2-.2-.5-.3-1.4-.3-2.6 0-.2 0-1.6.1-4.3 0-2.7.1-4.4.1-5.1 0-.6 0-1.1.2-1.2z" class="st3"/>
  </g>
  <g class="st1">
    <path d="M366.4 287.1c.3-.3.7-.4 1.4-.4.3 0 .6.1.8.2.4.3.6.8.6 1.4s-.2 1.2-.6 1.4c-.2.1-.4.2-.8.2-.8 0-1.2-.1-1.4-.3-.2-.2-.3-.6-.3-1.2-.1-.6 0-1 .3-1.3zm-.1 5.8c.2-.3.5-.4 1-.4.6 0 1 .3 1.1.9.1.6.2 2.7.2 6.2v5.3c0 .6-.1 1.1-.3 1.3-.3.3-.6.5-.9.5h-.1c-.4 0-.7-.2-.9-.5-.2-.2-.3-.7-.3-1.3v-5.4c-.1-4.1 0-6.3.2-6.6z" class="st3"/>
  </g>
  <g class="st1">
    <path d="M374.8 283.6c.2-.2.5-.3.8-.3.5 0 .8.1 1 .4.2.2.3.6.3 1.1 0 .3-.1 1.3-.2 2.9-.1 1.9-.2 3.1-.2 3.6 0 .1.9.2 2.6.4 1.4.1 2.2.2 2.6.4.4.2.5.5.5.9s-.1.7-.3.9-.5.4-1 .4c-.1 0-.6 0-1.6-.1-1.7-.1-2.6-.1-2.7-.2h-.1c-.1 0-.2.1-.3.3-.1.4-.2.8-.2 1.2v.2c.1 1.1.1 1.8.1 2 0 1.9.2 3.3.5 4.3.2.6.4 1.2.8 1.6.3.4.7.6 1.1.6.3 0 .8-.1 1.5-.4.6-.2 1.1-.3 1.3-.3.3 0 .6.1.9.4.2.2.3.5.3.8 0 .4-.2.8-.5 1-.3.3-.9.6-1.7.8-.8.3-1.5.4-2.1.4h-.1c-.9 0-1.5-.2-2-.6-.5-.4-1-1-1.4-1.9-.4-.8-.6-1.7-.8-2.6-.2-1.2-.3-2.6-.3-4.3l-.1-3.6-1.5.1c-.5 0-.9.1-1.2.1-.8 0-1.3-.2-1.4-.7-.1-.4-.1-.6-.1-.7 0-.4.2-.6.5-.8s1-.3 2-.4c1.3-.1 1.9-.2 2.1-.4.1-.1.2-1.2.3-3.3.1-2 .3-3.3.3-3.7s.1-.3.3-.5z" class="st3"/>
  </g>
  <g class="st1">
    <path d="M388.3 283.6c.2-.2.5-.3.8-.3.5 0 .8.1 1 .4.2.2.3.6.3 1.1 0 .3-.1 1.3-.2 2.9-.1 1.9-.2 3.1-.2 3.6 0 .1.9.2 2.6.4 1.4.1 2.2.2 2.6.4.4.2.5.5.5.9s-.1.7-.3.9-.5.4-1 .4c-.1 0-.6 0-1.6-.1-1.7-.1-2.6-.1-2.7-.2h-.1c-.1 0-.2.1-.3.3-.1.4-.2.8-.2 1.2v.2c.1 1.1.1 1.8.1 2 0 1.9.2 3.3.5 4.3.2.6.4 1.2.8 1.6.3.4.7.6 1.1.6.3 0 .8-.1 1.5-.4.6-.2 1.1-.3 1.3-.3.3 0 .6.1.9.4.2.2.3.5.3.8 0 .4-.2.8-.5 1-.3.3-.9.6-1.7.8-.8.3-1.5.4-2.1.4h-.1c-.9 0-1.5-.2-2-.6-.5-.4-1-1-1.4-1.9-.4-.8-.6-1.7-.8-2.6-.2-1.2-.3-2.6-.3-4.3l-.1-3.6-1.5.1c-.5 0-.9.1-1.2.1-.8 0-1.3-.2-1.4-.7-.1-.4-.1-.6-.1-.7 0-.4.2-.6.5-.8s1-.3 2-.4c1.3-.1 1.9-.2 2.1-.4.1-.1.2-1.2.3-3.3.1-2 .3-3.3.3-3.7s.1-.3.3-.5z" class="st3"/>
  </g>
  <g class="st1">
    <path d="M398.3 294.8c1-2 2.5-3.1 4.4-3.1.8 0 1.6.2 2.6.5 2 .8 2.9 1.9 2.9 3.3 0 .5-.1 1-.4 1.5-.4.8-1.3 1.6-2.6 2.3-1.3.7-2.7 1.1-4.1 1.2-.8.1-1.2.2-1.2.3 0 .3.2.6.5 1.1.3.5.6.9.9 1.2.9.9 1.9 1.3 3.2 1.3.8 0 1.6-.1 2.7-.3 1-.2 1.6-.3 2-.3.6 0 1 .2 1.1.7v.3c0 .6-.2 1-.6 1.2-.3.1-1 .3-2.3.5-1.1.2-2.1.3-2.9.3-1.3 0-2.3-.2-3.1-.6-.6-.3-1.2-.7-1.9-1.4s-1.1-1.3-1.4-1.9c-.3-.6-.5-1.6-.6-2.9v-.5-.4c-.3-1.5.1-2.9.8-4.3zm6.5 0c-.4-.2-.9-.3-1.4-.4h-.3c-1.3 0-2.2.8-2.8 2.3-.2.6-.3.9-.3 1.1 0 .2.2.3.6.3h.6c1.1-.1 2.1-.4 3-1 .9-.5 1.3-1 1.3-1.5-.2-.4-.3-.6-.7-.8z" class="st3"/>
  </g>
  <g class="st1">
    <path d="M410.6 292.2c.2-.2.5-.3.9-.3h.1c.4 0 .7.1.9.3.2.2.4.8.4 1.8.1 1 .2 1.4.3 1.4.1 0 .2-.2.4-.6.3-.5.6-1 1.1-1.5.5-.5 1-.9 1.4-1.1.4-.2 1-.3 1.7-.3 1.6 0 3 .7 4.2 2 .8.8 1.3 1.8 1.6 2.9.4 1.3.7 2.8.8 4.5.1 1.3.1 2.1.1 2.5 0 1.5-.2 2.4-.6 2.7-.2.2-.5.3-.8.3-.4 0-.7-.1-.9-.4-.1-.1-.2-.4-.3-.7v-2c0-1.3-.1-2.6-.3-3.8-.2-1.5-.7-2.8-1.4-3.9-.7-1-1.5-1.6-2.3-1.6-.4 0-.8.1-1.2.4-1.5 1.3-2.3 4-2.4 8.3 0 1.7-.1 2.7-.3 3.1-.1.4-.4.6-.9.6-.7 0-1.1-.3-1.3-.8-.2-.7-.4-2-.5-4.1-.1-1-.2-2.4-.4-4.1-.3-2.2-.4-3.5-.4-3.8 0-.7-.1-1-.1-1.1 0-.3.1-.5.2-.7z" class="st3"/>
  </g>
  <g class="st1">
    <path d="M443.5 310l-.3-2.6v-.3c0-1-.1-1.9-.3-2.9-.1-.4-.1-.5-.1-.5H441.6h-.1c-.7 0-1.2-.1-1.5-.3-.4-.2-.5-.6-.5-1.1 0-.6.2-1 .5-1.2.6-.2 1.1-.3 1.6-.3h1v-1.4c0-1.4.3-2.8 1-4.1.3-.6.8-1.3 1.5-1.9.6-.6 1.3-1 2-1.2.8-.2 1.6-.4 2.4-.4h.2c.8 0 1.4.2 1.8.4.3.2.4.5.4.9 0 .2-.1.5-.2.8 0 .3-.2.5-.6.6-.2.1-.6.1-1.1.1-1.2 0-2.1.3-2.8.8-.7.5-1.2 1.5-1.4 2.9-.1.7-.2 1.3-.2 1.6v.9l1.6.1h.9c.6 0 1.5-.1 2.6-.3h.6c.3 0 .6.1.9.3.3.2.4.6.4 1.2s-.1.9-.3.9c-1.2.3-1.9.4-2 .4-.7.1-1.5.2-2.6.2h-2.1l.1.4c0 .7.1 1.5.2 2.5.1.8.2 1.6.3 2.3.3 1.5.4 2.5.4 2.8 0 .3-.1.6-.2.8-.3.5-.8.7-1.3.7-.6 0-.9-.2-1.1-.7l-.5-2.4z" class="st3"/>
  </g>
  <g class="st1">
    <path d="M458.8 292.2c.4-.2.9-.3 1.5-.3.8 0 1.4.1 1.7.4l1.7.8c1.2.6 2.1 1.5 2.8 2.6.7 1.1 1 2.7 1 4.5 0 .7-.1 1.3-.3 1.9-.5 1.5-1.2 2.6-2.3 3.4-1.1.8-2.4 1.2-3.8 1.2h-.1c-1.5 0-2.8-.4-4-1.1s-2.1-1.8-2.8-3.1c-.4-.8-.6-1.7-.6-2.6v-1.4c0-1 .2-1.8.5-2.5.3-.6.8-1.3 1.6-2 .6-.6 1.1-1 1.5-1.3.3 0 .8-.3 1.6-.5zm2.3 2.9c-.6-.1-1-.2-1-.2h-.4c-.9 0-1.7.4-2.4 1.2-.7.8-1.1 1.7-1.1 2.6 0 1.3.1 2.2.3 2.6.3.8.9 1.5 1.9 2.1s1.8.9 2.7.9c1 0 2-.4 2.8-1.3.8-.9 1.2-2 1.2-3.3 0-1.3-.4-2.4-1.1-3.2s-1.8-1.2-2.9-1.4z" class="st3"/>
  </g>
  <g class="st1">
    <path d="M469.1 292.2c.2-.2.5-.3.9-.3h.1c.4 0 .7.1.9.3.2.2.4.8.4 1.8.1 1 .2 1.4.3 1.4s.2-.2.4-.6c.3-.5.6-1 1.1-1.5.5-.5 1-.9 1.4-1.1.4-.2 1-.3 1.7-.3 1.6 0 3 .7 4.2 2 .8.8 1.3 1.8 1.6 2.9.4 1.3.7 2.8.8 4.5.1 1.3.1 2.1.1 2.5 0 1.5-.2 2.4-.6 2.7-.2.2-.5.3-.8.3-.4 0-.7-.1-.9-.4-.1-.1-.2-.4-.3-.7v-2c0-1.3-.1-2.6-.3-3.8-.2-1.5-.7-2.8-1.4-3.9-.7-1-1.5-1.6-2.3-1.6-.4 0-.8.1-1.2.4-1.5 1.3-2.3 4-2.4 8.3 0 1.7-.1 2.7-.3 3.1-.1.4-.4.6-.9.6-.7 0-1.1-.3-1.3-.8-.2-.7-.4-2-.5-4.1-.1-1-.2-2.4-.4-4.1-.3-2.2-.4-3.5-.4-3.8 0-.7-.1-1-.1-1.1 0-.3.1-.5.2-.7z" class="st3"/>
  </g>
  <g class="st1">
    <path d="M487.8 283.6c.2-.2.5-.3.8-.3.5 0 .8.1 1 .4.2.2.3.6.3 1.1 0 .3-.1 1.3-.2 2.9-.1 1.9-.2 3.1-.2 3.6 0 .1.9.2 2.6.4 1.4.1 2.2.2 2.6.4.4.2.5.5.5.9s-.1.7-.3.9-.5.4-1 .4c-.1 0-.6 0-1.6-.1-1.7-.1-2.6-.1-2.7-.2h-.1c-.1 0-.2.1-.3.3-.1.4-.2.8-.2 1.2v.2c.1 1.1.1 1.8.1 2 0 1.9.2 3.3.5 4.3.2.6.4 1.2.8 1.6.3.4.7.6 1.1.6.3 0 .8-.1 1.5-.4.6-.2 1.1-.3 1.3-.3.3 0 .6.1.9.4.2.2.3.5.3.8 0 .4-.2.8-.5 1-.3.3-.9.6-1.7.8-.8.3-1.5.4-2.1.4h-.1c-.9 0-1.5-.2-2-.6-.5-.4-1-1-1.4-1.9-.4-.8-.6-1.7-.8-2.6-.2-1.2-.3-2.6-.3-4.3l-.1-3.6-1.5.1c-.5 0-.9.1-1.2.1-.8 0-1.3-.2-1.4-.7-.1-.4-.1-.6-.1-.7 0-.4.2-.6.5-.8s1-.3 2-.4c1.3-.1 1.9-.2 2.1-.4.1-.1.2-1.2.3-3.3.1-2 .3-3.3.3-3.7s.1-.3.3-.5z" class="st3"/>
  </g>
  <g class="st1">
    <path d="M498.1 303.3c.3-.7.9-1.1 1.6-1.1.3 0 .6.1.9.2.9.4 1.4 1.1 1.4 2.1 0 .4 0 .6-.1.8-.1.2-.2.4-.5.7-.4.4-.8.6-1.3.6-.7 0-1.3-.2-1.7-.5-.4-.4-.6-.8-.6-1.4-.1-.4.1-.8.3-1.4z" class="st3"/>
  </g>
  <path d="M790 210v180H600v5H444v-5h-10v5h-5v-5h-10v5H10v-85H5v-75H0v165h800V210zM381 0H0v190h10V10h190V5h156v5h10V5h5v5h10V5h409v90h5v75h5V0z" class="st4"/>
  <path fill="#e6f0ff" d="M710.7 310.7l12.6 46.8 34.2-34.2z" opacity=".1"/>
  <path fill="#e6f0ff" d="M88.8 88.8L76.2 42 42 76.2z" opacity=".25"/>
</svg>
